<svg xmlns="http://www.w3.org/2000/svg" xmlns:xlink="http://www.w3.org/1999/xlink" width="1920" zoomAndPan="magnify" viewBox="0 0 1440 809.999993" height="1080" preserveAspectRatio="xMidYMid meet" version="1.0"><defs><g/></defs><g fill="#6b817f" fill-opacity="1"><g transform="translate(81.000002, 445.383741)"><g><path d="M 139.394531 -32.605469 C 139.679688 -30.464844 139.824219 -28.042969 139.824219 -25.335938 C 139.824219 -22.269531 139.003906 -12.898438 137.363281 2.78125 C 136.722656 8.695312 133.480469 16.496094 127.636719 26.191406 C 122.078125 35.453125 117.375 41.296875 113.527344 43.722656 C 107.183594 47.710938 101.054688 50.492188 95.140625 52.058594 C 92.929688 52.628906 86.265625 52.914062 75.148438 52.914062 L 18.28125 52.914062 C 16.996094 52.914062 15.429688 52.34375 13.574219 51.203125 C 13.574219 50.917969 13.46875 50.242188 13.253906 49.171875 C 13.042969 48.105469 12.933594 47.320312 12.933594 46.820312 C 17.496094 45.109375 20.273438 43.933594 21.273438 43.292969 C 24.410156 41.226562 26.972656 37.804688 28.96875 33.03125 C 29.894531 30.894531 30.5 25.40625 30.785156 16.570312 C 30.859375 15.214844 31.179688 11.546875 31.75 5.558594 C 32.246094 0.0703125 32.496094 -4.097656 32.496094 -6.949219 C 32.496094 -22.984375 32.605469 -31.785156 32.816406 -33.351562 C 33.03125 -34.492188 33.851562 -36.558594 35.277344 -39.550781 C 34.636719 -40.335938 33.816406 -41.902344 32.816406 -44.253906 C 32.390625 -46.394531 32.175781 -49.457031 32.175781 -53.449219 L 32.175781 -71.195312 C 32.175781 -71.550781 32.070312 -73.402344 31.855469 -76.753906 C 31.640625 -79.816406 31.714844 -83.738281 32.070312 -88.511719 C 32.710938 -95.566406 33.03125 -99.484375 33.03125 -100.269531 C 32.960938 -100.484375 32.746094 -100.910156 32.390625 -101.554688 C 31.464844 -106.257812 31.5 -112.351562 32.496094 -119.832031 C 32.851562 -122.042969 32.28125 -129.132812 30.785156 -141.105469 C 30.714844 -144.953125 29.96875 -149.976562 28.542969 -156.179688 C 26.6875 -159.3125 24.195312 -161.34375 21.058594 -162.269531 C 18.566406 -162.984375 16.035156 -163.730469 13.46875 -164.515625 C 13.46875 -171.285156 13.363281 -172.710938 13.148438 -168.792969 C 13.21875 -170.644531 14.074219 -171.605469 15.714844 -171.679688 C 19.207031 -171.964844 24.835938 -172.570312 32.605469 -173.496094 C 39.800781 -174.351562 43.507812 -174.777344 43.722656 -174.777344 L 59.328125 -174.777344 C 62.179688 -174.777344 65.191406 -175.117188 68.359375 -175.792969 C 71.53125 -176.46875 74.257812 -176.808594 76.539062 -176.808594 C 79.105469 -176.808594 82.238281 -176.488281 85.945312 -175.847656 C 86.445312 -175.777344 91.539062 -174.171875 101.230469 -171.035156 C 106.363281 -169.398438 111.246094 -164.800781 115.878906 -157.246094 C 120.296875 -150.050781 122.859375 -143.101562 123.574219 -136.402344 C 124 -132.554688 124.214844 -128.847656 124.214844 -125.285156 C 124.214844 -107.039062 118.300781 -90.898438 106.46875 -76.859375 C 106.613281 -76.71875 106.898438 -76.433594 107.324219 -76.003906 C 109.960938 -76.148438 113.402344 -74.773438 117.640625 -71.890625 C 121.882812 -69.003906 125.605469 -65.421875 128.8125 -61.144531 C 134.300781 -53.804688 137.828125 -44.292969 139.394531 -32.605469 Z M 116.734375 -126.351562 C 116.089844 -126.425781 113.242188 -126.460938 108.179688 -126.460938 C 104.617188 -126.390625 101.960938 -127.101562 100.214844 -128.597656 C 98.472656 -130.09375 96.957031 -132.980469 95.671875 -137.257812 C 94.605469 -140.675781 93.570312 -144.132812 92.574219 -147.625 C 91.648438 -149.835938 89.722656 -152.347656 86.800781 -155.164062 C 83.878906 -157.976562 81.386719 -159.5625 79.316406 -159.917969 C 69.839844 -161.699219 64.210938 -161.414062 62.429688 -159.0625 L 60.289062 -119.085938 C 60.289062 -118.515625 60.503906 -117.820312 60.933594 -117 C 61.359375 -116.179688 61.574219 -115.699219 61.574219 -115.554688 C 61.574219 -115.273438 61.144531 -110.675781 60.289062 -101.765625 C 59.792969 -96.136719 59.933594 -88.902344 60.71875 -80.066406 C 63.78125 -78.710938 65.386719 -78.035156 65.527344 -78.035156 C 76.574219 -78.75 83.914062 -79.925781 87.550781 -81.5625 C 96.03125 -85.410156 100.269531 -96.886719 100.269531 -115.984375 C 100.269531 -118.195312 100.199219 -120.332031 100.054688 -122.398438 C 100.414062 -123.109375 100.804688 -123.644531 101.230469 -124 C 105.367188 -124.214844 110.53125 -125 116.734375 -126.351562 Z M 111.386719 -16.675781 C 111.246094 -19.527344 110.355469 -23.375 108.714844 -28.222656 C 107.359375 -32 105.972656 -35.8125 104.546875 -39.660156 C 103.761719 -42.226562 102.480469 -45.46875 100.699219 -49.386719 C 94 -58.863281 85.519531 -63.605469 75.257812 -63.605469 C 73.6875 -63.605469 71.480469 -63.53125 68.628906 -63.390625 C 65.277344 -63.175781 62.5 -62.429688 60.289062 -61.144531 C 59.792969 -54.945312 59.257812 -47.5 58.6875 -38.804688 C 58.617188 -32.960938 58.6875 -26.617188 58.902344 -19.777344 C 59.1875 -10.652344 59.328125 -5.914062 59.328125 -5.558594 C 59.472656 4.773438 60.648438 17.246094 62.855469 31.855469 C 63.070312 33.136719 64.460938 35.242188 67.023438 38.164062 C 68.449219 37.949219 70.019531 37.84375 71.726562 37.84375 C 72.941406 37.84375 74.703125 37.929688 77.019531 38.109375 C 79.335938 38.289062 81.027344 38.375 82.097656 38.375 C 88.296875 38.375 93.359375 36.132812 97.277344 31.640625 C 99.984375 28.792969 102.976562 24.976562 106.257812 20.203125 C 110.246094 8.230469 111.957031 -4.0625 111.386719 -16.675781 Z M 111.386719 -16.675781 "/></g></g></g><g fill="#6b817f" fill-opacity="1"><g transform="translate(222.851112, 445.383741)"><g><path d="M 125.070312 -30.359375 C 123.574219 -25.085938 122.078125 -19.847656 120.582031 -14.644531 C 118.726562 -8.445312 116.089844 -2.566406 112.671875 2.992188 L 17.746094 2.136719 C 16.820312 1.851562 15.179688 1.515625 12.828125 1.121094 C 10.476562 0.730469 8.871094 0.390625 8.015625 0.105469 C 8.015625 -1.746094 8.730469 -3.136719 10.15625 -4.0625 C 13.078125 -3.992188 16.035156 -4.667969 19.027344 -6.09375 C 22.949219 -7.945312 25.371094 -10.691406 26.296875 -14.324219 C 26.722656 -15.820312 26.796875 -18.457031 26.511719 -22.234375 C 26.226562 -26.582031 26.15625 -29.539062 26.296875 -31.105469 C 26.367188 -31.960938 26.761719 -34.882812 27.472656 -39.871094 C 27.972656 -43.722656 28.222656 -46.75 28.222656 -48.960938 C 28.222656 -74.613281 27.792969 -91.824219 26.9375 -100.589844 C 27.152344 -100.875 27.578125 -101.480469 28.222656 -102.40625 C 27.652344 -109.605469 26.722656 -115.484375 25.441406 -120.046875 C 24.800781 -122.183594 22.644531 -124.199219 18.972656 -126.085938 C 15.304688 -127.972656 12.613281 -128.667969 10.902344 -128.171875 C 10.902344 -131.09375 12.792969 -132.554688 16.570312 -132.554688 C 17.636719 -132.554688 19.097656 -132.429688 20.953125 -132.179688 C 22.804688 -131.929688 23.980469 -131.804688 24.480469 -131.804688 L 78.035156 -131.804688 C 78.179688 -130.09375 76.394531 -128.777344 72.691406 -127.851562 C 70.054688 -127.207031 67.453125 -126.566406 64.886719 -125.925781 C 61.679688 -124.429688 59.96875 -123.609375 59.757812 -123.46875 C 57.6875 -122.183594 56.40625 -120.722656 55.90625 -119.085938 C 54.410156 -114.09375 53.378906 -107.46875 52.808594 -99.203125 C 51.882812 -86.660156 51.382812 -79.925781 51.3125 -78.996094 C 52.734375 -74.933594 53.449219 -71.265625 53.449219 -67.988281 C 53.449219 -66.347656 53.199219 -64.121094 52.699219 -61.304688 C 52.203125 -58.492188 51.953125 -56.265625 51.953125 -54.625 L 51.953125 -25.546875 C 53.09375 -22.128906 54.730469 -17.175781 56.871094 -10.691406 C 57.296875 -9.476562 58.652344 -8.695312 60.933594 -8.339844 C 63.78125 -7.980469 67.84375 -7.375 73.117188 -6.519531 C 74.042969 -6.308594 74.933594 -6.308594 75.789062 -6.519531 C 80.921875 -7.234375 86.054688 -7.980469 91.183594 -8.765625 C 97.457031 -9.835938 102.265625 -11.546875 105.613281 -13.898438 C 106.828125 -14.824219 108.324219 -17.316406 110.105469 -21.378906 C 111.957031 -25.796875 113.5625 -28.71875 114.914062 -30.144531 C 115.984375 -31.285156 117.410156 -31.855469 119.191406 -31.855469 C 120.117188 -31.855469 122.078125 -31.355469 125.070312 -30.359375 Z M 125.070312 -30.359375 "/></g></g></g><g fill="#6b817f" fill-opacity="1"><g transform="translate(343.429915, 445.383741)"><g><path d="M 154.148438 -66.597656 C 154.148438 -62.535156 154.039062 -59.433594 153.824219 -57.296875 C 153.113281 -55.65625 152.363281 -53.128906 151.582031 -49.707031 C 151.4375 -46.285156 150.691406 -42.652344 149.335938 -38.804688 C 148.195312 -37.378906 146.519531 -35.0625 144.3125 -31.855469 C 143.742188 -29.71875 142.175781 -26.652344 139.609375 -22.664062 C 137.542969 -20.59375 134.40625 -17.390625 130.203125 -13.042969 C 129.558594 -12.828125 128.742188 -12.472656 127.742188 -11.972656 C 126.816406 -11.117188 125.175781 -9.871094 122.824219 -8.230469 C 111.136719 -2.03125 100.019531 1.496094 89.472656 2.351562 L 75.363281 2.351562 C 75.503906 2.351562 75.21875 2.136719 74.507812 1.710938 C 66.8125 1.496094 61.039062 0.425781 57.191406 -1.496094 C 56.191406 -1.710938 54.839844 -2.066406 53.128906 -2.566406 C 50.277344 -3.707031 46 -5.738281 40.300781 -8.660156 C 33.460938 -13.007812 27.046875 -19.132812 21.058594 -27.046875 C 17.710938 -31.464844 14.75 -37.164062 12.1875 -44.148438 C 9.761719 -50.632812 8.410156 -56.085938 8.125 -60.503906 C 7.625 -68.058594 7.910156 -75.46875 8.980469 -82.738281 C 9.40625 -83.664062 9.976562 -84.984375 10.691406 -86.695312 C 11.117188 -88.832031 11.867188 -91.933594 12.933594 -95.996094 C 14.503906 -98.488281 16.570312 -102.125 19.132812 -106.898438 C 19.492188 -107.683594 19.667969 -108.609375 19.667969 -109.675781 C 20.027344 -110.035156 20.738281 -109.925781 21.808594 -109.355469 C 22.164062 -110.355469 22.164062 -111.78125 21.808594 -113.632812 C 22.734375 -113.917969 24.050781 -114.523438 25.761719 -115.449219 C 26.332031 -116.945312 27.6875 -118.761719 29.824219 -120.902344 C 34.101562 -123.183594 40.550781 -126.53125 49.171875 -130.949219 C 51.382812 -132.019531 54.195312 -132.945312 57.617188 -133.730469 C 66.3125 -135.726562 72.226562 -136.722656 75.363281 -136.722656 L 83.699219 -136.722656 C 90.1875 -136.722656 95.746094 -136.117188 100.378906 -134.90625 C 102.871094 -134.191406 108.359375 -132.195312 116.839844 -128.917969 C 118.621094 -127.777344 121.4375 -125.996094 125.285156 -123.574219 C 130.84375 -120.011719 135.902344 -115.128906 140.464844 -108.929688 C 144.527344 -103.371094 147.164062 -98.238281 148.375 -93.535156 C 148.945312 -92.75 149.65625 -91.574219 150.511719 -90.007812 C 152.078125 -85.730469 152.972656 -79.390625 153.183594 -70.980469 C 153.183594 -70.695312 153.34375 -70.035156 153.664062 -69.003906 C 153.988281 -67.96875 154.148438 -67.167969 154.148438 -66.597656 Z M 130.414062 -63.816406 C 129.773438 -72.796875 128.027344 -80.992188 125.175781 -88.40625 C 121.542969 -97.953125 117.265625 -105.472656 112.351562 -110.960938 C 105.367188 -118.65625 97.742188 -123.183594 89.472656 -124.535156 C 81.632812 -125.820312 76.253906 -126.246094 73.332031 -125.820312 C 67.628906 -125.105469 62.785156 -123.859375 58.792969 -122.078125 C 58.296875 -121.863281 55.050781 -119.976562 49.066406 -116.410156 C 48.710938 -115.699219 48.070312 -114.84375 47.140625 -113.847656 C 46.570312 -113.703125 45.929688 -113.488281 45.21875 -113.203125 C 43.792969 -111.351562 42.011719 -108.859375 39.871094 -105.722656 C 39.585938 -104.867188 39.125 -103.65625 38.484375 -102.085938 C 37.414062 -100.378906 36.273438 -98.347656 35.0625 -95.996094 C 34.421875 -93.359375 33.421875 -89.402344 32.070312 -84.128906 C 32.140625 -82.132812 32.105469 -79.105469 31.960938 -75.042969 C 31.960938 -74.828125 31.820312 -74.367188 31.535156 -73.652344 C 31.25 -72.941406 31.144531 -72.441406 31.214844 -72.15625 C 32.210938 -67.523438 33.636719 -61.109375 35.488281 -52.914062 C 35.277344 -52.34375 35.132812 -51.667969 35.0625 -50.882812 C 35.5625 -49.886719 36.273438 -48.53125 37.199219 -46.820312 C 37.273438 -45.894531 37.484375 -44.683594 37.84375 -43.1875 C 40.835938 -37.199219 42.402344 -34.136719 42.546875 -33.992188 C 44.683594 -30.289062 47.605469 -26.761719 51.3125 -23.410156 C 51.382812 -23.339844 51.84375 -21.878906 52.699219 -19.027344 C 52.984375 -18.957031 54.195312 -18.742188 56.335938 -18.386719 C 59.828125 -15.179688 62.5 -13.007812 64.351562 -11.867188 C 69.625 -8.730469 79.175781 -7.769531 93 -8.980469 C 94.140625 -9.335938 95.636719 -9.800781 97.492188 -10.367188 C 99.84375 -10.867188 103.226562 -12.042969 107.644531 -13.898438 C 108.644531 -14.824219 109.960938 -15.929688 111.601562 -17.210938 C 118.726562 -21.628906 122.96875 -27.082031 124.320312 -33.566406 C 125.035156 -34.421875 125.890625 -35.632812 126.886719 -37.199219 C 127.03125 -38.554688 127.242188 -40.15625 127.527344 -42.011719 C 127.957031 -42.4375 128.382812 -43.117188 128.8125 -44.042969 C 128.953125 -45.679688 129.3125 -49.246094 129.882812 -54.730469 C 130.378906 -59.148438 130.558594 -62.179688 130.414062 -63.816406 Z M 130.414062 -63.816406 "/></g></g></g><g fill="#6b817f" fill-opacity="1"><g transform="translate(508.263685, 445.383741)"><g><path d="M 129.132812 -132.554688 C 129.273438 -131.984375 129.347656 -131.34375 129.347656 -130.628906 C 129.347656 -129.0625 129.007812 -126.316406 128.332031 -122.398438 C 127.652344 -118.476562 127.316406 -115.554688 127.316406 -113.632812 C 127.316406 -112.632812 127.351562 -111.707031 127.421875 -110.851562 C 127.066406 -109.570312 126.746094 -107.789062 126.460938 -105.507812 C 127.03125 -102.65625 127.351562 -101.554688 127.421875 -102.195312 C 127.207031 -101.765625 126.886719 -101.230469 126.460938 -100.589844 C 126.460938 -99.878906 126.675781 -97.847656 127.101562 -94.496094 C 125.320312 -92.789062 123.714844 -91.933594 122.292969 -91.933594 C 121.722656 -91.933594 121.078125 -92.359375 120.367188 -93.214844 C 121.007812 -97.417969 121.222656 -100.019531 121.007812 -101.019531 C 120.792969 -102.160156 120.367188 -103.761719 119.726562 -105.828125 C 118.300781 -108.964844 115.664062 -112.421875 111.816406 -116.199219 C 110.320312 -117.625 106.828125 -119.511719 101.339844 -121.863281 C 100.699219 -122.148438 98.382812 -122.648438 94.390625 -123.359375 C 91.824219 -123.789062 88.046875 -124 83.058594 -124 C 68.949219 -124 57.867188 -120.261719 49.8125 -112.777344 C 48.816406 -112.277344 47.390625 -111.171875 45.539062 -109.464844 C 39.339844 -100.910156 35.8125 -92.539062 34.957031 -84.34375 C 34.597656 -80.921875 34.421875 -75.292969 34.421875 -67.453125 L 34.421875 -60.398438 C 34.421875 -60.824219 34.921875 -58.9375 35.917969 -54.730469 C 35.988281 -52.523438 36.34375 -49.53125 36.988281 -45.753906 C 37.414062 -45.394531 38.125 -44.328125 39.125 -42.546875 C 39.195312 -41.617188 39.445312 -40.40625 39.871094 -38.910156 C 40.871094 -37.558594 42.402344 -35.527344 44.46875 -32.816406 C 44.753906 -31.960938 45.253906 -30.75 45.964844 -29.183594 C 49.171875 -23.339844 54.125 -18.492188 60.824219 -14.644531 C 63.816406 -12.933594 66.777344 -11.722656 69.699219 -11.011719 C 83.738281 -7.730469 92.75 -6.09375 96.742188 -6.09375 C 98.59375 -6.09375 100.414062 -6.308594 102.195312 -6.734375 C 103.050781 -6.878906 104.296875 -7.304688 105.9375 -8.015625 C 106.292969 -10.796875 106.46875 -12.1875 106.46875 -12.1875 C 106.46875 -13.183594 106.007812 -13.859375 105.082031 -14.21875 C 103.796875 -14.644531 102.941406 -15.214844 102.515625 -15.929688 C 101.800781 -17.066406 101.765625 -19.277344 102.40625 -22.554688 C 102.40625 -22.554688 102.40625 -28.222656 102.40625 -39.550781 C 101.980469 -43.6875 101.375 -46.929688 100.589844 -49.28125 C 100.164062 -49.636719 99.59375 -50.3125 98.878906 -51.3125 C 97.667969 -55.089844 95.066406 -57.511719 91.078125 -58.578125 C 89.4375 -59.007812 85.945312 -59.292969 80.601562 -59.433594 C 80.386719 -59.578125 80.066406 -59.828125 79.640625 -60.183594 L 79.640625 -62.960938 C 81.421875 -63.53125 84.34375 -63.816406 88.40625 -63.816406 C 88.691406 -63.816406 91.183594 -63.621094 95.886719 -63.230469 C 100.589844 -62.839844 103.085938 -62.640625 103.371094 -62.640625 C 103.726562 -62.640625 104.332031 -62.800781 105.1875 -63.125 C 106.042969 -63.445312 106.683594 -63.640625 107.113281 -63.710938 C 111.457031 -64.066406 113.882812 -64.246094 114.378906 -64.246094 C 124.429688 -64.246094 128.703125 -64.210938 127.207031 -64.140625 L 127.207031 -59.542969 C 127.207031 -59.328125 126.886719 -58.578125 126.246094 -57.296875 C 125.460938 -55.800781 125 -54.765625 124.855469 -54.195312 C 123.644531 -49.28125 122.933594 -44.292969 122.71875 -39.230469 C 122.433594 -32.816406 122.292969 -28.398438 122.292969 -25.976562 C 122.292969 -21.058594 122.824219 -14.289062 123.894531 -5.664062 C 120.617188 -3.957031 112.027344 -1.675781 98.132812 1.175781 C 96.992188 1.105469 95.246094 1.175781 92.894531 1.390625 C 89.6875 2.101562 87.441406 2.457031 86.160156 2.457031 C 85.804688 2.457031 85.269531 2.351562 84.554688 2.136719 C 83.84375 1.925781 83.34375 1.816406 83.058594 1.816406 C 75.71875 1.460938 69.625 0.855469 64.78125 0 C 62.925781 -0.710938 60.183594 -1.601562 56.550781 -2.671875 C 49.351562 -4.097656 41.40625 -8.660156 32.710938 -16.355469 C 23.660156 -24.410156 18.101562 -32.140625 16.035156 -39.550781 C 15.394531 -41.191406 14.574219 -43.648438 13.574219 -46.929688 C 13.007812 -47.996094 12.257812 -49.601562 11.332031 -51.738281 C 10.476562 -55.230469 10.046875 -58.1875 10.046875 -60.609375 C 10.046875 -60.398438 10.226562 -61.714844 10.582031 -64.566406 C 10.9375 -66.988281 10.976562 -68.699219 10.691406 -69.699219 C 10.40625 -70.835938 10.261719 -72.050781 10.261719 -73.332031 C 10.261719 -75.753906 10.867188 -79.210938 12.078125 -83.699219 C 13.503906 -89.257812 14.359375 -93 14.644531 -94.925781 C 21.628906 -107.539062 25.871094 -113.847656 27.367188 -113.847656 C 27.652344 -113.847656 27.863281 -113.722656 28.007812 -113.472656 C 28.148438 -113.222656 28.398438 -113.097656 28.753906 -113.097656 C 29.96875 -113.097656 30.929688 -113.382812 31.640625 -113.953125 C 31.925781 -114.808594 32.496094 -115.984375 33.351562 -117.480469 C 39.980469 -124.820312 44.007812 -128.492188 45.429688 -128.492188 C 45.789062 -128.492188 46.039062 -128.421875 46.179688 -128.277344 C 46.324219 -128.136719 46.535156 -128.0625 46.820312 -128.0625 C 47.105469 -128.0625 47.871094 -128.542969 49.121094 -129.507812 C 50.367188 -130.46875 51.167969 -130.949219 51.523438 -130.949219 C 51.808594 -130.949219 52.21875 -130.808594 52.753906 -130.523438 C 53.289062 -130.238281 53.699219 -130.09375 53.984375 -130.09375 C 54.339844 -130.09375 57.511719 -130.84375 63.496094 -132.339844 C 69.484375 -133.835938 72.65625 -134.585938 73.011719 -134.585938 L 100.484375 -134.585938 C 100.839844 -134.585938 104.117188 -134.246094 110.320312 -133.570312 C 116.519531 -132.890625 119.796875 -132.554688 120.152344 -132.554688 C 120.296875 -132.554688 121.5625 -132.554688 123.949219 -132.554688 C 126.335938 -132.554688 128.0625 -132.554688 129.132812 -132.554688 Z M 129.132812 -132.554688 "/></g></g></g><path stroke-linecap="butt" transform="matrix(0.965882, 0, 0, 0.965882, 210.528644, 240.68113)" fill="none" stroke-linejoin="miter" d="M 33.492976 24.737068 C 33.363561 25.562091 33.20988 26.548883 33.035978 27.697445 L 33.035978 35.252069 C 32.926784 35.252069 32.732661 35.284423 32.449565 35.34913 C 32.170513 35.413838 31.972345 35.446192 31.867195 35.446192 C 31.822709 35.27229 31.648807 33.98218 31.34549 31.571819 C 31.171588 30.184647 30.532599 29.121014 29.42448 28.38092 C 28.947261 28.037161 27.81892 28.057382 26.039458 28.449672 C 25.149727 28.534601 23.867706 28.740857 22.197439 29.064395 C 21.611025 29.262563 21.243 29.630588 21.093364 30.172515 C 20.721294 31.559686 20.684896 33.569669 20.976081 36.194375 C 21.27131 38.819081 21.190425 42.434623 20.733427 47.032914 C 20.733427 47.012693 20.874975 48.509058 21.158071 51.526055 C 21.069098 52.565422 21.048877 54.13054 21.093364 56.213319 C 21.331973 57.317394 21.675733 58.999794 22.132731 61.256475 C 22.35112 62.340329 23.079081 63.035937 24.312572 63.339254 C 25.311497 63.577864 26.310422 63.808385 27.309347 64.022729 C 27.309347 64.350312 27.058605 64.827531 26.561164 65.454387 L 8.103293 65.454387 C 7.929391 65.454387 7.844463 65.324971 7.844463 65.066141 C 7.844463 65.001433 7.856595 64.827531 7.876816 64.544435 C 8.548159 64.390754 9.534951 64.079348 10.837194 63.602129 C 11.965534 62.99145 12.80269 62.267533 13.344617 61.418244 C 13.498298 61.179635 13.647934 60.204975 13.801615 58.490221 C 13.886544 55.49749 13.995738 52.359166 14.125153 49.083339 L 14.125153 37.367202 L 15.006796 37.367202 C 15.047238 37.342936 15.124079 37.245875 15.233273 37.071973 C 14.929955 36.356144 14.56193 35.324865 14.125153 33.98218 C 14.084711 33.719305 13.910809 32.06117 13.603448 28.999688 L 7.585632 28.999688 C 6.954732 28.999688 6.174195 29.347491 5.239978 30.043099 C 4.30576 30.738707 3.796187 31.300855 3.711258 31.733588 C 3.25426 33.66673 2.809395 35.001327 2.376662 35.737377 C 2.158274 36.109446 1.668922 36.291436 0.91265 36.291436 C 0.91265 36.206507 0.868164 35.935544 0.779191 35.478546 C 0.714483 35.086255 0.706395 34.807203 0.746837 34.633301 C 1.009712 33.743571 1.260454 32.364488 1.499064 30.500097 C 1.778116 28.243416 1.996504 26.722785 2.150185 25.942249 C 2.150185 25.942249 2.493945 25.485251 3.189553 24.575299 C 2.538431 24.510591 4.524149 24.478237 9.146705 24.478237 C 10.493434 24.478237 12.535771 24.59552 15.281804 24.83413 C 18.027836 25.072739 19.346256 25.194066 19.237062 25.194066 L 24.607801 25.194066 C 24.583535 25.194066 25.234656 25.084872 26.561164 24.866483 C 27.992822 24.652139 29.371905 24.510591 30.694368 24.445883 C 31.191809 24.377131 31.693293 24.312424 32.190734 24.247716 C 32.841855 24.183008 33.274588 24.344778 33.492976 24.737068 Z M 78.929913 24.769422 C 78.929913 25.008031 78.800497 25.22642 78.537622 25.420543 C 77.62767 25.659153 76.847134 25.986735 76.196013 26.395203 C 75.827988 26.633812 75.387166 27.135297 74.877593 27.895612 C 74.36802 28.651884 74.113234 29.230209 74.113234 29.618455 C 74.113234 31.571819 74.133455 32.344267 74.177941 31.931755 C 74.004039 32.449417 73.809916 33.209732 73.591528 34.208657 C 73.591528 34.467488 73.733076 35.58774 74.016172 37.561325 C 74.101101 38.232667 74.145587 39.11431 74.145587 40.198163 C 74.145587 41.476141 74.072791 43.03317 73.931243 44.86925 C 73.793739 46.701287 73.720943 47.55462 73.720943 47.425204 L 73.720943 52.241884 C 73.720943 57.143492 74.295224 60.540646 75.44783 62.429302 C 75.662174 62.797327 76.139393 63.177485 76.879488 63.569775 C 77.615538 63.958021 78.246438 64.17641 78.768144 64.216852 C 78.634684 64.435241 78.396074 64.762823 78.04827 65.195556 L 62.85005 65.195556 C 62.85005 65.066141 62.817696 64.863929 62.752988 64.592966 C 62.688281 64.322002 62.655927 64.131923 62.655927 64.022729 C 63.133146 63.808385 63.816621 63.480802 64.706352 63.048069 C 65.377694 62.720487 66.008594 61.721561 66.595008 60.051294 C 67.092448 58.599415 67.343191 57.458942 67.343191 56.633919 L 67.343191 51.881947 C 67.343191 51.558409 67.26635 50.668678 67.11267 49.212755 C 67.003475 48.10868 67.003475 47.218949 67.11267 46.543562 C 67.201643 46.046122 67.015608 45.200877 66.55861 44.007829 C 65.499021 44.788366 63.893462 45.374779 61.741931 45.763026 C 60.61359 45.981414 59.63893 46.025901 58.813907 45.892441 C 57.685567 45.698318 57.087021 45.601256 57.022313 45.601256 L 48.820612 45.601256 C 48.323172 45.884352 47.684183 46.402014 46.899602 47.162329 C 46.576064 47.684035 46.46687 48.420085 46.576064 49.378568 C 46.749966 49.746593 46.944089 50.276387 47.162477 50.971995 C 47.09777 50.668678 47.020929 51.26318 46.931956 52.76359 C 46.911735 52.86874 46.988575 54.575405 47.162477 57.871453 C 47.336379 61.430377 48.561781 63.428227 50.838684 63.86096 C 50.927657 63.881181 51.392743 64.055083 52.237987 64.382666 C 51.501937 65.183423 50.664782 65.587846 49.734608 65.587846 C 49.471733 65.587846 49.156283 65.551448 48.788258 65.486741 C 48.355526 65.422033 48.084562 65.389679 47.975368 65.389679 L 35.151111 65.195556 C 35.171332 64.803266 35.672817 64.415019 36.647477 64.022729 C 37.800082 63.54551 38.677681 62.841813 39.284315 61.907596 C 39.741313 61.191767 40.044631 59.845038 40.194267 57.871453 C 40.368169 55.808896 40.392435 54.053699 40.263019 52.597776 C 40.174046 52.423874 40.044631 52.185265 39.870729 51.881947 C 39.850508 50.21168 39.947569 47.728522 40.161913 44.428429 C 40.186179 44.319235 40.303461 43.975475 40.52185 43.389062 C 40.715973 42.887577 40.804946 42.475066 40.780681 42.151527 C 40.542071 41.783502 40.238754 41.140469 39.870729 40.230517 C 39.935436 40.489348 40.012277 39.773519 40.097206 38.083031 C 40.121471 37.735227 40.081029 37.225654 39.983967 36.554311 C 39.886906 35.878925 39.838375 35.498767 39.838375 35.413838 L 39.838375 30.172515 C 39.838375 29.476907 39.349023 28.643795 38.374363 27.665091 C 37.395659 26.690432 36.433132 26.051443 35.47465 25.748126 C 35.498915 25.703639 35.737525 25.335614 36.190478 24.640006 C 36.975059 24.615741 38.188329 24.542945 39.838375 24.413529 C 41.399448 24.28007 42.212339 24.215362 42.28109 24.215362 L 48.46472 24.215362 C 48.743772 24.215362 49.039001 24.183008 49.342318 24.118301 C 49.645635 24.053593 49.851891 24.021239 49.961085 24.021239 C 50.393818 24.021239 51.154134 24.445883 52.237987 25.291128 C 51.477672 25.659153 50.721401 26.03931 49.961085 26.431601 C 49.026868 26.929041 48.343393 27.483101 47.91066 28.089736 C 47.215052 29.044174 46.867249 30.835768 46.867249 33.460474 L 46.867249 40.42464 C 46.867249 40.554056 46.899602 40.695604 46.96431 40.849285 C 47.033062 40.998921 47.065416 41.120248 47.065416 41.205177 C 48.084562 41.662175 48.950028 41.888652 49.665856 41.888652 L 62.591219 41.888652 C 63.044173 41.957404 63.71956 42.094908 64.60929 42.313296 C 64.629512 42.313296 64.920696 42.442712 65.486889 42.705587 C 65.919621 42.89971 66.255293 42.996771 66.493902 42.996771 C 66.647583 42.996771 66.776998 42.97655 66.886193 42.932064 C 67.5818 42.107041 67.92556 41.108115 67.92556 39.939333 C 67.92556 39.352919 67.808277 38.503631 67.569668 37.399556 C 67.331058 36.291436 67.221864 35.523032 67.242085 35.086255 C 67.242085 34.738451 67.177377 34.054976 67.047962 33.03583 C 66.898325 31.842782 66.809352 30.997538 66.789131 30.500097 C 66.679937 28.393053 65.074377 26.51653 61.972452 24.866483 C 62.384963 24.433751 62.696369 24.215362 62.914758 24.215362 L 67.763791 24.215362 C 67.484739 24.215362 68.382558 24.195141 70.465337 24.150654 C 72.289285 24.085947 73.688589 24.073814 74.663249 24.118301 C 75.641953 24.271981 77.061478 24.486326 78.929913 24.769422 Z M 116.456333 54.615847 C 116.391626 55.744188 116.250078 57.341659 116.031689 59.400173 C 115.772858 59.966365 115.445276 60.759034 115.057029 61.778181 C 114.968056 62.210913 114.806287 62.817548 114.567677 63.602129 C 114.478704 63.840739 114.199652 64.241117 113.722433 64.803266 C 113.156241 65.498873 112.699243 65.846677 112.355483 65.846677 L 104.052676 65.846677 C 103.90304 65.846677 102.924336 65.814323 101.124653 65.749616 C 99.32497 65.684908 98.346266 65.652554 98.19663 65.652554 L 93.181783 65.652554 C 93.052368 65.652554 92.38507 65.591891 91.179889 65.470564 C 89.974708 65.353281 89.299321 65.292618 89.145641 65.292618 L 84.2319 65.292618 L 83.807256 64.835619 C 84.045865 64.532302 84.992215 63.881181 86.642262 62.8863 C 87.770602 62.166427 88.33275 61.300961 88.33275 60.281815 L 88.33275 49.993291 C 88.33275 48.323024 88.591581 46.078476 89.113287 43.255602 C 88.830191 42.390137 88.777616 41.306283 88.951518 40.00404 C 88.559227 39.676458 88.365104 39.21946 88.365104 38.63709 C 88.365104 38.592604 88.583492 37.702873 89.016225 35.967898 C 89.036446 35.814217 88.931296 35.5109 88.692687 35.053902 C 88.385325 34.511975 88.223556 34.228878 88.203335 34.208657 C 88.049654 33.751659 87.984946 33.03583 88.009212 32.06117 C 88.009212 30.714442 88.009212 29.978391 88.009212 29.848976 C 87.94046 29.108882 87.790823 28.51438 87.552214 28.057382 C 87.224631 27.426482 86.694837 26.929041 85.958786 26.561016 C 85.307665 26.27792 84.656544 25.986735 84.005423 25.679374 C 84.30874 24.963545 84.632279 24.583387 84.980083 24.542945 C 85.651425 24.627874 86.617996 24.652139 87.875752 24.607653 C 89.266968 24.28007 89.93831 24.118301 89.893823 24.118301 L 95.656853 24.118301 C 95.741782 24.118301 96.400991 24.195141 97.626393 24.344778 C 98.851795 24.498458 99.777924 24.583387 100.408824 24.607653 C 100.667655 24.607653 102.839407 24.466104 106.920036 24.183008 C 107.850209 24.118301 110.292925 24.183008 114.240095 24.377131 C 114.587899 24.615741 114.7618 24.91097 114.7618 25.258774 C 114.7618 25.452897 114.693049 25.735993 114.5515 26.104018 C 114.409952 26.472043 114.3412 26.743007 114.3412 26.916909 C 114.316935 27.632737 114.090458 29.998613 113.657725 34.014534 C 113.588973 34.14395 113.277568 34.350205 112.711375 34.633301 C 112.58196 34.414913 112.181581 33.254219 111.506194 31.151218 C 111.073462 29.780224 110.272704 29.032041 109.099877 28.902626 C 108.622658 28.793432 108.133306 28.688282 107.635865 28.579088 C 106.960479 28.425407 106.442817 28.405186 106.070748 28.51438 C 105.116309 28.793432 103.045663 28.825786 99.854765 28.611441 C 98.099568 28.482026 96.77306 28.51438 95.88333 28.708503 C 95.624499 28.773211 95.450597 29.023953 95.361624 29.456686 C 96.146205 31.996463 96.178559 34.241011 95.46273 36.194375 C 95.503172 36.064959 95.527437 36.606886 95.527437 37.820156 C 95.527437 38.127517 95.470818 38.754373 95.361624 39.708812 C 95.256474 40.489348 95.232208 41.120248 95.296916 41.597467 C 95.321182 41.815856 95.527437 42.094908 95.915683 42.442712 L 108.185881 42.442712 C 108.578171 42.313296 108.958329 42.183881 109.326354 42.054466 C 109.932989 41.836077 110.357633 41.500406 110.596242 41.043408 C 110.814631 40.48126 111.21501 39.700723 111.801423 38.701798 C 112.497031 38.701798 112.937852 38.940408 113.13602 39.417627 C 113.047046 40.655162 112.962118 42.236456 112.873145 44.169598 C 112.852923 45.447575 112.699243 47.324099 112.420191 49.799168 C 112.331218 50.167193 111.898485 50.28852 111.117948 50.159105 C 110.834852 49.637399 110.337412 48.953924 109.621583 48.10868 C 108.295075 47.109754 107.093938 46.60827 106.00604 46.60827 L 101.516944 46.60827 C 101.233847 46.60827 100.679788 46.555695 99.854765 46.446501 C 99.029741 46.337306 98.410974 46.284731 97.998463 46.284731 C 96.849901 46.284731 96.121939 46.620403 95.818622 47.291745 C 95.470818 48.05206 95.296916 48.638474 95.296916 49.050985 C 95.296916 49.443276 95.373757 50.179326 95.527437 51.26318 C 95.677074 52.351078 95.741782 53.18419 95.72156 53.770603 C 95.701339 54.07392 95.596189 54.644157 95.414199 55.481313 C 95.228164 56.314424 95.135147 56.96959 95.135147 57.446809 C 95.135147 57.818878 95.179633 58.15455 95.264562 58.457867 C 95.418243 58.979573 96.008701 59.606429 97.03998 60.346523 C 98.071259 61.082573 98.952901 61.507217 99.692995 61.616411 C 99.80219 61.656854 99.911384 61.70134 100.016534 61.745827 C 100.234922 61.810535 100.429045 61.842888 100.602947 61.842888 L 106.00604 61.842888 C 107.223354 61.842888 108.2425 61.648765 109.067523 61.256475 C 110.216085 60.734769 111.332292 59.869304 112.420191 58.65199 C 113.613239 57.309305 114.252227 56.027284 114.3412 54.814015 C 114.903349 54.441945 115.607045 54.377238 116.456333 54.615847 Z M 116.456333 54.615847 " stroke="#ffffff" stroke-width="2.500001" stroke-opacity="1" stroke-miterlimit="4"/><path stroke-linecap="butt" transform="matrix(0.965882, 0, 0, 0.965882, 654.685629, 277.352466)" fill="none" stroke-linejoin="miter" d="M 60.07899 57.042944 C 60.07899 58.624239 60.038548 59.833464 59.957663 60.666575 C 59.678611 61.305564 59.387426 62.292356 59.080065 63.626953 C 59.02749 64.957505 58.732261 66.37703 58.206511 67.87744 C 57.761646 68.431499 57.110524 69.333363 56.249103 70.58303 C 56.02667 71.416142 55.415991 72.613234 54.413022 74.166219 C 53.60822 74.971021 52.386862 76.220688 50.748949 77.915221 C 50.498206 78.00015 50.178712 78.137654 49.790466 78.331777 C 49.430529 78.667448 48.791541 79.152756 47.8735 79.791744 C 43.319696 82.210195 38.98428 83.585233 34.875342 83.91686 L 29.375187 83.91686 C 29.427762 83.91686 29.318568 83.831931 29.039516 83.666118 C 26.038697 83.585233 23.790104 83.168677 22.289694 82.41645 C 21.901448 82.331522 21.375698 82.194018 20.7084 81.999895 C 19.596237 81.555029 17.930013 80.76236 15.70973 79.625931 C 13.040538 77.931398 10.541203 75.541257 8.207682 72.459553 C 6.901395 70.736711 5.748789 68.516428 4.749864 65.790616 C 3.803514 63.262972 3.277764 61.13975 3.164526 59.416908 C 2.970402 56.472708 3.083641 53.585127 3.500197 50.750121 C 3.66601 50.390184 3.888443 49.876567 4.167495 49.209269 C 4.333308 48.376157 4.624493 47.166932 5.041049 45.585638 C 5.651728 44.610978 6.45653 43.195497 7.459499 41.335151 C 7.597003 41.027789 7.665755 40.667853 7.665755 40.251297 C 7.803259 40.113793 8.082311 40.154235 8.498866 40.376668 C 8.640414 39.988422 8.640414 39.430318 8.498866 38.710445 C 8.858803 38.597206 9.376465 38.362641 10.039718 38.002704 C 10.262151 37.420335 10.791945 36.70855 11.625057 35.875439 C 13.29128 34.989752 15.806792 33.683465 19.167548 31.960623 C 20.028969 31.544067 21.124956 31.184131 22.455508 30.876769 C 25.844574 30.100277 28.149785 29.712031 29.375187 29.712031 L 32.622705 29.712031 C 35.150349 29.712031 37.318057 29.946596 39.121784 30.419771 C 40.096444 30.694779 42.235842 31.475315 45.539979 32.753292 C 46.235587 33.198158 47.331573 33.889721 48.831983 34.836071 C 50.999691 36.223243 52.969232 38.128075 54.748693 40.542481 C 56.329988 42.710189 57.357222 44.708039 57.830397 46.54412 C 58.05283 46.847438 58.331882 47.30848 58.663509 47.919159 C 59.274188 49.585382 59.621992 52.056407 59.706921 55.336279 C 59.706921 55.445473 59.767584 55.704304 59.892955 56.104683 C 60.018326 56.509106 60.07899 56.820512 60.07899 57.042944 Z M 50.829833 58.126798 C 50.583135 54.624494 49.89966 51.433596 48.791541 48.541971 C 47.372016 44.821278 45.705793 41.88921 43.788827 39.749812 C 41.06706 36.753037 38.09455 34.989752 34.875342 34.459958 C 31.817903 33.958473 29.722991 33.79266 28.582518 33.958473 C 26.358191 34.237525 24.469535 34.722833 22.91655 35.418441 C 22.722427 35.503369 21.456583 36.23942 19.123061 37.626591 C 18.985558 37.905643 18.734815 38.23727 18.374879 38.625516 C 18.152446 38.682135 17.901704 38.767064 17.622652 38.876258 C 17.068592 39.600176 16.372984 40.570791 15.539873 41.792149 C 15.430678 42.12782 15.248688 42.596951 14.997946 43.211674 C 14.58139 43.874928 14.136525 44.667597 13.667394 45.585638 C 13.416651 46.612872 13.028405 48.153724 12.498611 50.208194 C 12.526921 50.98873 12.514788 52.169646 12.458169 53.75094 C 12.458169 53.835869 12.401549 54.013815 12.292355 54.292867 C 12.179117 54.571919 12.138674 54.766042 12.166984 54.875236 C 12.55523 56.683008 13.10929 59.182343 13.833207 62.377285 C 13.748278 62.599718 13.695703 62.862593 13.667394 63.16591 C 13.861517 63.558201 14.136525 64.083951 14.500505 64.751249 C 14.528815 65.111185 14.6097 65.58436 14.751248 66.16673 C 15.915986 68.500251 16.526665 69.693299 16.583284 69.749919 C 17.416396 71.193709 18.552825 72.568748 20.00066 73.875034 C 20.028969 73.903344 20.206915 74.47358 20.542587 75.5817 C 20.651781 75.610009 21.124956 75.694938 21.958067 75.832442 C 23.316929 77.08211 24.360341 77.931398 25.084258 78.376263 C 27.138728 79.597621 30.85942 79.973735 36.25038 79.50056 C 36.691201 79.363056 37.277615 79.181065 37.997488 78.958633 C 38.915529 78.76451 40.233948 78.307512 41.95679 77.583594 C 42.345037 77.223658 42.858654 76.790925 43.497642 76.293484 C 46.276029 74.570642 47.93012 72.443376 48.45587 69.915732 C 48.734922 69.584105 49.066549 69.11093 49.454795 68.500251 C 49.511414 67.974501 49.596343 67.347645 49.705537 66.623728 C 49.871351 66.457914 50.041208 66.195039 50.207022 65.835103 C 50.263641 65.196114 50.401145 63.804899 50.623578 61.665501 C 50.817701 59.946702 50.886453 58.765787 50.829833 58.126798 Z M 105.993146 31.252883 C 106.243888 32.559169 106.163003 36.23942 105.746448 42.293634 C 105.718138 42.766809 105.354157 43.320868 104.662594 43.959857 C 104.549355 43.988166 104.092357 44.000299 103.287555 44.000299 C 103.117697 42.030758 102.911442 40.639543 102.660699 39.834741 C 102.134949 38.196827 101.224997 37.189814 99.930843 36.8137 C 98.640734 36.437587 95.829993 36.251552 91.494577 36.251552 L 84.247315 36.251552 C 82.884409 36.251552 82.204978 37.569972 82.204978 40.210854 C 82.204978 39.875183 82.342482 41.335151 82.621534 44.586713 C 82.674109 45.278276 82.577048 46.418749 82.33035 48.000044 C 82.051298 49.751196 81.913794 51.029173 81.913794 51.833975 C 81.913794 53.083642 82.136226 54.127054 82.577048 54.960165 L 88.077202 54.960165 C 88.19044 54.960165 88.63935 55.037006 89.432019 55.186642 C 90.224689 55.340323 90.718085 55.417163 90.912208 55.417163 L 96.246549 55.417163 C 98.244399 55.417163 99.979374 54.377796 101.451474 52.290973 C 101.564713 51.874417 101.758836 51.292048 102.037888 50.543865 C 102.341205 50.293123 102.951884 50.179884 103.869924 50.208194 C 104.007428 51.069615 104.132799 52.319282 104.246038 53.96124 C 104.161109 55.95909 103.829482 59.918393 103.243069 65.835103 C 103.162184 66.611595 102.454444 66.943222 101.119847 66.834028 C 100.869105 65.693555 100.618363 64.557126 100.371665 63.416653 C 99.926799 62.001172 99.117953 61.111441 97.953214 60.751504 C 97.257607 60.557381 95.534764 60.46032 92.784687 60.46032 L 86.621279 60.46032 C 86.342227 60.626133 85.674929 60.682752 84.619384 60.626133 C 83.677078 60.569514 83.021913 60.791947 82.661976 61.293431 C 82.690286 61.960729 82.649844 62.943478 82.536605 64.249764 C 82.508296 64.500507 82.30204 65.333618 81.913794 66.749099 C 81.606432 67.780378 81.481061 68.61349 81.53768 69.252478 C 81.731803 69.612415 81.925926 70.138165 82.12005 70.833772 C 82.12005 71.335257 82.071519 72.099617 81.974457 73.126852 C 81.877396 74.154086 81.828865 74.918446 81.828865 75.415886 C 81.828865 77.583594 82.577048 79.278127 84.077457 80.499485 C 84.105767 80.527794 86.160236 81.332596 90.24491 82.917935 C 89.71916 83.556924 89.023552 83.88855 88.162131 83.91686 C 89.828354 83.88855 89.023552 83.831931 85.743681 83.751047 C 83.191771 83.694427 80.008961 83.556924 76.203339 83.334491 C 74.17718 83.249562 72.85876 83.265739 72.244037 83.374933 C 71.884101 83.597366 71.38666 83.848108 70.747672 84.123116 C 70.771937 84.123116 69.73257 83.904727 67.621481 83.459862 C 67.787294 82.958377 68.438416 82.307256 69.578889 81.49841 C 70.719362 80.693608 71.398793 80.099106 71.621226 79.706816 C 72.64846 77.765585 73.162078 75.945681 73.162078 74.251148 L 73.162078 64.249764 C 73.162078 64.278074 73.12568 63.311503 73.056928 61.354095 C 72.988176 59.396687 72.955822 57.916498 72.955822 56.917573 C 72.955822 57.055077 72.980087 56.569769 73.036706 55.457606 C 73.093326 54.681113 73.077149 54.013815 72.996264 53.459756 C 72.911335 52.654954 72.705079 51.971479 72.369408 51.417419 C 73.344068 50.030248 73.829376 48.38829 73.829376 46.499634 C 73.829376 44.610978 73.344068 42.459447 72.369408 40.045041 C 72.369408 39.543556 72.341099 38.876258 72.288524 38.043147 C 72.260214 37.569972 72.175285 37.181725 72.037781 36.878408 C 71.483722 35.709625 70.662743 34.613639 69.578889 33.586404 C 69.275572 33.279042 68.563787 33.072787 67.455668 32.959548 C 67.233235 32.656231 67.148306 32.085994 67.204925 31.252883 C 67.067421 31.252883 68.96821 31.208396 72.911335 31.127511 C 79.050478 31.042583 88.412873 30.945521 100.994476 30.836327 C 102.244144 30.836327 103.910367 30.973831 105.993146 31.252883 Z M 105.993146 31.252883 " stroke="#ffffff" stroke-width="3.199999" stroke-opacity="1" stroke-miterlimit="4"/><path stroke-linecap="butt" transform="matrix(0.965882, 0, 0, 0.965882, 635.066158, 365.6497)" fill="none" stroke-linejoin="miter" d="M 42.873151 31.458767 C 42.707337 32.514311 42.513214 33.780155 42.290781 35.252256 L 42.290781 44.917968 C 42.149233 44.917968 41.902535 44.95841 41.538554 45.043339 C 41.178618 45.128268 40.927876 45.16871 40.790372 45.16871 C 40.733752 44.946277 40.51132 43.292187 40.123074 40.210483 C 39.900641 38.431021 39.083706 37.07216 37.664181 36.125809 C 37.053502 35.680944 35.609712 35.709254 33.33281 36.210738 C 32.192336 36.319933 30.554423 36.586852 28.415025 37.003408 C 27.666842 37.250106 27.193667 37.723281 26.999544 38.418888 C 26.526369 40.194306 26.477838 42.766437 26.853951 46.127193 C 27.230065 49.487949 27.124915 54.110505 26.542546 59.998906 C 26.542546 59.97464 26.720492 61.891606 27.080428 65.749802 C 26.971234 67.084399 26.942924 69.082249 26.999544 71.751441 C 27.302861 73.166922 27.747726 75.318453 28.33414 78.210078 C 28.609148 79.59725 29.539321 80.48698 31.124659 80.875227 C 32.402636 81.182588 33.680613 81.473773 34.95859 81.748781 C 34.95859 82.165336 34.639096 82.776015 34.000108 83.584862 L 10.37371 83.584862 C 10.151277 83.584862 10.042083 83.415004 10.042083 83.083377 C 10.042083 82.998448 10.054215 82.776015 10.082525 82.416079 C 10.943946 82.221956 12.20979 81.817533 13.876014 81.206854 C 15.319804 80.430361 16.387481 79.500188 17.083089 78.416334 C 17.277212 78.113017 17.471335 76.863349 17.665458 74.667332 C 17.778697 70.833401 17.916201 66.821524 18.082014 62.627656 L 18.082014 47.627603 L 19.20631 47.627603 C 19.26293 47.599293 19.359991 47.473922 19.497495 47.251489 C 19.109249 46.333449 18.640118 45.015029 18.082014 43.292187 C 18.025395 42.96056 17.802962 40.833294 17.414716 36.918479 L 9.706411 36.918479 C 8.901609 36.918479 7.902684 37.363344 6.709636 38.253075 C 5.512544 39.138762 4.861423 39.862679 4.748184 40.416739 C 4.165815 42.891808 3.595578 44.598474 3.041519 45.544824 C 2.762467 46.013954 2.139655 46.252564 1.164995 46.252564 C 1.164995 46.139326 1.11242 45.791522 0.999182 45.209152 C 0.918297 44.711712 0.90212 44.347731 0.95874 44.125299 C 1.290366 42.98887 1.609861 41.225585 1.917222 38.835444 C 2.277159 35.947863 2.556211 34.002588 2.750334 33.003663 C 2.750334 33.003663 3.195199 32.417249 4.08493 31.252511 C 3.251819 31.167582 5.791596 31.12714 11.708306 31.12714 C 13.431148 31.12714 16.047766 31.280821 19.562203 31.584138 C 23.076639 31.891499 24.763084 32.04518 24.62558 32.04518 L 31.500773 32.04518 C 31.472463 32.04518 32.305575 31.903632 34.000108 31.628624 C 35.832144 31.349572 37.595429 31.167582 39.289962 31.086697 C 39.928951 31.001769 40.567939 30.91684 41.206928 30.835955 C 42.040039 30.751026 42.594099 30.961326 42.873151 31.458767 Z M 101.037283 31.503253 C 101.037283 31.806571 100.871469 32.085623 100.535798 32.336365 C 99.371059 32.639682 98.372134 33.056238 97.534978 33.586032 C 97.065848 33.88935 96.5037 34.528338 95.848534 35.502998 C 95.197413 36.473613 94.86983 37.209663 94.86983 37.711148 C 94.86983 40.210483 94.89814 41.197275 94.954759 40.667481 C 94.732326 41.334779 94.481584 42.305395 94.202532 43.583372 C 94.202532 43.919043 94.384522 45.350701 94.744459 47.878345 C 94.857697 48.735722 94.910272 49.864063 94.910272 51.251234 C 94.910272 52.889147 94.821299 54.882953 94.639309 57.228607 C 94.461363 59.578306 94.37239 60.666204 94.37239 60.50039 L 94.37239 66.667843 C 94.37239 72.944489 95.10844 77.292038 96.58054 79.710488 C 96.855548 80.179619 97.466227 80.664927 98.412577 81.166411 C 99.354882 81.667896 100.163729 81.942904 100.826983 81.999523 C 100.661169 82.278575 100.357852 82.695131 99.912986 83.24919 L 80.45619 83.24919 C 80.45619 83.083377 80.411704 82.824546 80.330819 82.480786 C 80.24589 82.132983 80.205448 81.890329 80.205448 81.748781 C 80.816127 81.473773 81.689681 81.057217 82.830154 80.499113 C 83.691575 80.082557 84.496377 78.80458 85.24456 76.665182 C 85.883549 74.804836 86.203043 73.348913 86.203043 72.293368 L 86.203043 66.210845 C 86.203043 65.794289 86.105981 64.653816 85.911858 62.793469 C 85.774354 61.373944 85.774354 60.237515 85.911858 59.376094 C 86.025097 58.737106 85.786487 57.653252 85.204118 56.124532 C 83.841212 57.127502 81.786743 57.875684 79.036665 58.377169 C 77.592875 58.652177 76.343207 58.708796 75.287663 58.542982 C 73.843873 58.29224 73.079513 58.166869 72.994584 58.166869 L 62.49576 58.166869 C 61.856772 58.526806 61.039837 59.194104 60.036868 60.168763 C 59.620312 60.836062 59.482808 61.778367 59.620312 62.999725 C 59.842744 63.4729 60.093487 64.152331 60.372539 65.042062 C 60.28761 64.653816 60.190548 65.418175 60.081354 67.335141 C 60.053045 67.472645 60.150106 69.652485 60.372539 73.874663 C 60.594971 78.432511 62.164133 80.984421 65.080024 81.542525 C 65.189218 81.570834 65.787764 81.793267 66.871618 82.209823 C 65.925268 83.237058 64.857591 83.750675 63.664543 83.750675 C 63.328872 83.750675 62.928493 83.710233 62.455318 83.625304 C 61.901258 83.540375 61.553454 83.499933 61.411906 83.499933 L 44.996372 83.24919 C 45.024682 82.75175 45.66367 82.250265 46.913338 81.748781 C 48.385438 81.138102 49.509734 80.236238 50.290271 79.04319 C 50.87264 78.12515 51.260886 76.402307 51.455009 73.874663 C 51.677442 71.237824 51.705752 68.985187 51.539938 67.124841 C 51.4267 66.902408 51.260886 66.599091 51.038453 66.210845 C 51.010144 64.071446 51.135515 60.888637 51.414567 56.666459 C 51.442876 56.528955 51.592513 56.08409 51.871565 55.335907 C 52.122307 54.696919 52.231502 54.167124 52.207236 53.750569 C 51.899875 53.277394 51.511628 52.460459 51.038453 51.291676 C 51.123382 51.627347 51.220444 50.709307 51.329638 48.541599 C 51.357948 48.096734 51.309417 47.445612 51.184046 46.584191 C 51.058675 45.72277 50.998011 45.237462 50.998011 45.128268 L 50.998011 38.418888 C 50.998011 37.529158 50.371155 36.461481 49.121488 35.211813 C 47.87182 33.962146 46.634286 33.141167 45.412928 32.752921 C 45.441238 32.696301 45.748599 32.223126 46.330968 31.333396 C 47.329893 31.30913 48.886922 31.212069 50.998011 31.042211 C 52.995861 30.876397 54.039273 30.795513 54.120157 30.795513 L 62.038762 30.795513 C 62.398699 30.795513 62.774812 30.751026 63.163058 30.670142 C 63.551304 30.585213 63.814179 30.54477 63.955728 30.54477 C 64.509787 30.54477 65.484447 31.086697 66.871618 32.170551 C 65.901003 32.639682 64.926343 33.12499 63.955728 33.626475 C 62.758635 34.265463 61.885081 34.973204 61.331022 35.75374 C 60.441291 36.975098 59.996425 39.264133 59.996425 42.624889 L 59.996425 51.542418 C 59.996425 51.708232 60.036868 51.890222 60.121796 52.084345 C 60.206725 52.278468 60.247168 52.432149 60.247168 52.541344 C 61.553454 53.127757 62.661574 53.418942 63.579614 53.418942 L 80.120519 53.418942 C 80.702889 53.499826 81.56431 53.681817 82.704783 53.960869 C 82.733093 53.960869 83.105162 54.126682 83.829079 54.458309 C 84.383139 54.709051 84.815872 54.834423 85.119189 54.834423 C 85.313312 54.834423 85.48317 54.806113 85.620674 54.749494 C 86.510404 53.693949 86.95527 52.415972 86.95527 50.919607 C 86.95527 50.16738 86.801589 49.083526 86.494228 47.668045 C 86.19091 46.252564 86.049362 45.265772 86.077672 44.711712 C 86.077672 44.266847 85.996787 43.389248 85.830974 42.082962 C 85.632806 40.558287 85.523612 39.474433 85.495302 38.835444 C 85.357799 36.141986 83.303329 33.739713 79.32785 31.628624 C 79.857644 31.070521 80.258023 30.795513 80.537075 30.795513 L 86.74497 30.795513 C 86.385033 30.795513 87.537639 30.767203 90.202787 30.710584 C 92.536309 30.625655 94.327903 30.613522 95.577571 30.670142 C 96.827238 30.864265 98.647142 31.139272 101.037283 31.503253 Z M 149.07466 69.709105 C 148.993775 71.152895 148.811785 73.195232 148.532733 75.83207 C 148.201106 76.555988 147.78455 77.57109 147.283065 78.873332 C 147.173871 79.431436 146.963571 80.207929 146.660254 81.206854 C 146.547015 81.514215 146.187079 82.027833 145.5764 82.75175 C 144.852482 83.637437 144.270113 84.082302 143.825248 84.082302 L 133.201053 84.082302 C 133.00693 84.082302 131.757262 84.04186 129.45205 83.956931 C 127.146839 83.876046 125.897171 83.83156 125.703048 83.83156 L 119.284853 83.83156 C 119.11904 83.83156 118.265707 83.758763 116.720811 83.605083 C 115.179959 83.451402 114.314493 83.374562 114.116326 83.374562 L 107.827547 83.374562 L 107.28562 82.792192 C 107.588937 82.403946 108.798162 81.570834 110.909251 80.292857 C 112.353041 79.374817 113.076959 78.262653 113.076959 76.960411 L 113.076959 63.792394 C 113.076959 61.652996 113.408586 58.777548 114.075884 55.166049 C 113.715947 54.05793 113.647195 52.666715 113.869628 51.000491 C 113.368143 50.583936 113.117401 50.001566 113.117401 49.249339 C 113.117401 49.196764 113.396453 48.056291 113.950513 45.836008 C 113.978822 45.641885 113.841318 45.249595 113.533957 44.667226 C 113.145711 43.975662 112.939455 43.611681 112.911145 43.583372 C 112.717022 43.001002 112.632093 42.082962 112.660403 40.833294 C 112.660403 39.114496 112.660403 38.168146 112.660403 38.002333 C 112.575474 37.055983 112.381351 36.291623 112.078034 35.709254 C 111.661478 34.904452 110.978003 34.265463 110.035697 33.792288 C 109.202585 33.432352 108.369474 33.056238 107.536362 32.667992 C 107.924608 31.753996 108.341164 31.264644 108.786029 31.212069 C 109.647451 31.321263 110.880941 31.349572 112.494589 31.292953 C 114.270007 30.876397 115.131428 30.670142 115.074809 30.670142 L 122.451486 30.670142 C 122.560681 30.670142 123.401881 30.767203 124.971042 30.961326 C 126.540204 31.155449 127.729208 31.264644 128.53401 31.292953 C 128.869681 31.292953 131.644024 31.115007 136.86917 30.751026 C 138.062218 30.670142 141.188409 30.751026 146.243698 31.001769 C 146.684519 31.30913 146.906952 31.681199 146.906952 32.126065 C 146.906952 32.376807 146.817979 32.736744 146.635988 33.209919 C 146.458042 33.683094 146.365025 34.030898 146.365025 34.25333 C 146.34076 35.167327 146.049575 38.196456 145.491471 43.336673 C 145.410586 43.502487 145.006163 43.765362 144.282246 44.125299 C 144.116432 43.850291 143.602815 42.362014 142.741394 39.668556 C 142.187334 37.917404 141.160099 36.958921 139.65969 36.793108 C 139.049011 36.655604 138.422155 36.514056 137.783166 36.376552 C 136.921745 36.182429 136.254447 36.154119 135.785316 36.291623 C 134.559914 36.655604 131.910943 36.696046 127.826269 36.416994 C 125.577677 36.251181 123.883144 36.291623 122.742671 36.542365 C 122.411044 36.627294 122.188611 36.946788 122.075373 37.500848 C 123.074298 40.75241 123.118784 43.627858 122.200744 46.127193 C 122.257363 45.961379 122.285673 46.652943 122.285673 48.209972 C 122.285673 48.598218 122.216921 49.40302 122.075373 50.624378 C 121.937869 51.627347 121.909559 52.432149 121.994488 53.042828 C 122.018754 53.32188 122.285673 53.681817 122.783113 54.126682 L 138.490907 54.126682 C 138.992392 53.960869 139.477699 53.791011 139.950874 53.625197 C 140.727367 53.35019 141.269294 52.917457 141.576655 52.335088 C 141.851663 51.61117 142.36528 50.612245 143.117507 49.334268 C 144.007238 49.334268 144.573431 49.64163 144.824173 50.252309 C 144.714979 51.833603 144.60174 53.863807 144.492546 56.334832 C 144.464236 57.972746 144.270113 60.375019 143.910177 63.541652 C 143.796938 64.014827 143.242878 64.168508 142.243953 64.002694 C 141.879973 63.335396 141.240984 62.457798 140.326988 61.373944 C 138.632455 60.100011 137.091603 59.461023 135.700387 59.461023 L 129.949491 59.461023 C 129.589554 59.461023 128.881814 59.388227 127.826269 59.250723 C 126.770725 59.113219 125.978056 59.044467 125.452306 59.044467 C 123.980206 59.044467 123.050033 59.473156 122.657742 60.334577 C 122.216921 61.305192 121.994488 62.057419 121.994488 62.583169 C 121.994488 63.084654 122.09155 64.02696 122.285673 65.418175 C 122.479796 66.805347 122.560681 67.877068 122.536415 68.625251 C 122.508106 69.013497 122.374646 69.745503 122.140081 70.81318 C 121.901471 71.880857 121.784188 72.722057 121.784188 73.332736 C 121.784188 73.805911 121.840807 74.234599 121.950002 74.62689 C 122.144125 75.290144 122.90444 76.09899 124.22286 77.041296 C 125.541279 77.987646 126.673664 78.529573 127.615969 78.667076 C 127.757518 78.723696 127.895021 78.776271 128.032525 78.83289 C 128.311577 78.917819 128.56232 78.958261 128.784752 78.958261 L 135.700387 78.958261 C 137.257416 78.958261 138.563703 78.707519 139.619247 78.210078 C 141.091348 77.54278 142.518961 76.430617 143.910177 74.873588 C 145.434852 73.154789 146.255831 71.512832 146.365025 69.959847 C 147.088942 69.486672 147.990806 69.401743 149.07466 69.709105 Z M 149.07466 69.709105 " stroke="#ffffff" stroke-width="3.199999" stroke-opacity="1" stroke-miterlimit="4"/><g fill="#6b817f" fill-opacity="1"><g transform="translate(776.193717, 432.814978)"><g><path d="M 161.359375 21.488281 C 161.359375 22.160156 161.332031 22.835938 161.277344 23.507812 C 161.164062 24.351562 160.757812 24.898438 160.054688 25.152344 C 159.351562 25.40625 157.90625 25.671875 155.714844 25.953125 C 154.984375 26.066406 153.441406 26.484375 151.082031 27.214844 C 148.945312 27.890625 147.34375 28.226562 146.277344 28.226562 C 145.882812 28.226562 145.519531 28.183594 145.183594 28.101562 C 144.84375 28.015625 144.3125 27.695312 143.582031 27.132812 C 142.625 26.457031 142.234375 25.894531 142.402344 25.445312 C 141.785156 25.109375 140.605469 25.195312 138.863281 25.699219 C 140.042969 26.316406 141.476562 27.105469 143.160156 28.058594 C 138.945312 28.285156 136.109375 27.890625 134.648438 26.878906 C 134.761719 26.375 134.957031 25.585938 135.238281 24.519531 C 135.183594 24.464844 135.015625 24.351562 134.734375 24.183594 C 135.015625 24.125 132.65625 23.875 127.65625 23.425781 C 127.65625 23.367188 127.460938 23.507812 127.066406 23.847656 C 127.515625 24.070312 128.160156 24.378906 129.003906 24.773438 C 126.476562 24.886719 124.875 24.714844 124.203125 24.265625 C 123.527344 23.367188 122.851562 22.496094 122.179688 21.65625 C 120.886719 20.195312 119.734375 19.578125 118.722656 19.800781 C 117.433594 18.058594 114.371094 14.828125 109.539062 10.113281 C 105.328125 6.066406 103.136719 3.59375 102.96875 2.695312 C 102.40625 2.359375 101.703125 1.769531 100.859375 0.925781 C 100.019531 -0.140625 99.007812 -1.796875 97.828125 -4.042969 C 97.601562 -4.605469 97.152344 -4.914062 96.480469 -4.972656 C 95.691406 -7.441406 93.953125 -9.605469 91.253906 -11.460938 C 91.703125 -12.132812 91.761719 -12.722656 91.421875 -13.230469 C 90.019531 -14.859375 88.585938 -16.515625 87.125 -18.199219 C 85.214844 -20.449219 84.261719 -22.386719 84.261719 -24.015625 C 84.261719 -24.296875 84.289062 -24.578125 84.347656 -24.855469 C 84.515625 -25.027344 85.132812 -24.996094 86.199219 -24.773438 C 86.480469 -24.546875 86.902344 -24.238281 87.464844 -23.847656 C 88.699219 -24.070312 89.683594 -24.519531 90.414062 -25.195312 C 91.421875 -24.296875 92.742188 -22.917969 94.371094 -21.066406 C 95.214844 -21.234375 95.636719 -21.738281 95.636719 -22.582031 C 95.636719 -24.042969 94.820312 -24.746094 93.191406 -24.6875 C 93.304688 -24.800781 93.433594 -24.996094 93.574219 -25.277344 C 93.710938 -25.558594 93.839844 -25.726562 93.953125 -25.785156 C 94.289062 -25.503906 94.851562 -25.109375 95.636719 -24.605469 C 96.085938 -24.605469 96.421875 -24.773438 96.648438 -25.109375 C 96.816406 -25.785156 96.816406 -26.625 96.648438 -27.636719 C 95.300781 -28.761719 93.726562 -29.324219 91.929688 -29.324219 C 90.917969 -29.324219 89.429688 -29.085938 87.464844 -28.605469 C 85.496094 -28.128906 84.09375 -27.890625 83.25 -27.890625 C 82.183594 -27.890625 81.257812 -28.117188 80.46875 -28.566406 C 78.503906 -29.6875 77.210938 -31.652344 76.59375 -34.464844 C 76.3125 -34.6875 75.949219 -34.996094 75.5 -35.390625 C 75.554688 -35.613281 75.609375 -35.839844 75.667969 -36.0625 C 75.667969 -36.960938 75.1875 -37.75 74.234375 -38.421875 C 73.28125 -39.097656 72.378906 -39.433594 71.539062 -39.433594 C 68.335938 -39.378906 64.011719 -39.378906 58.5625 -39.433594 C 52.15625 -39.492188 47.832031 -39.519531 45.585938 -39.519531 C 45.078125 -39.519531 44.828125 -39.265625 44.828125 -38.761719 C 44.714844 -35.503906 44.714844 -33.648438 44.828125 -33.199219 L 44.828125 -22.328125 C 44.828125 -22.328125 44.882812 -20.757812 44.996094 -17.609375 C 45.109375 -14.464844 45.164062 -12.105469 45.164062 -10.53125 C 45.164062 -10.308594 45.039062 -9.859375 44.785156 -9.183594 C 44.53125 -8.511719 44.460938 -7.976562 44.574219 -7.582031 C 45.078125 -6.851562 45.667969 -5.671875 46.34375 -4.042969 C 46.960938 0.0546875 47.160156 2.695312 46.933594 3.875 C 46.148438 4.4375 44.882812 5.335938 43.140625 6.574219 C 43.140625 6.910156 43.226562 7.132812 43.394531 7.246094 C 46.539062 7.300781 51.566406 7.949219 58.476562 9.183594 C 59.039062 9.351562 59.882812 9.632812 61.003906 10.027344 C 61.117188 10.476562 61.035156 11.628906 60.753906 13.480469 C 59.855469 14.15625 59.066406 14.492188 58.394531 14.492188 C 56.707031 14.492188 52.214844 13.960938 44.910156 12.890625 L 26.625 12.554688 C 25.445312 12.890625 23.59375 13.230469 21.066406 13.566406 C 17.078125 13.734375 12.332031 13.820312 6.824219 13.820312 C 6.824219 12.863281 6.851562 11.488281 6.910156 9.691406 C 8.707031 8.960938 11.320312 8.144531 14.746094 7.246094 C 16.542969 6.796875 18.453125 5.324219 20.476562 2.824219 C 22.496094 0.324219 23.566406 -1.742188 23.675781 -3.371094 C 24.40625 -11.179688 24.773438 -15.449219 24.773438 -16.179688 L 24.773438 -76.679688 C 24.773438 -76.902344 24.6875 -77.578125 24.519531 -78.699219 C 24.351562 -79.824219 24.265625 -80.582031 24.265625 -80.976562 C 24.210938 -81.707031 24.324219 -83.417969 24.605469 -86.113281 C 24.886719 -88.8125 25.027344 -90.945312 25.027344 -92.519531 C 25.027344 -93.191406 24.914062 -94.484375 24.6875 -96.394531 C 24.40625 -98.53125 24.265625 -100.074219 24.265625 -101.03125 C 24.15625 -102.660156 23.847656 -105.046875 23.339844 -108.191406 C 22.945312 -108.976562 22.414062 -110.1875 21.738281 -111.816406 C 21.234375 -113.78125 19.015625 -115.296875 15.082031 -116.363281 C 14.578125 -116.589844 13.707031 -116.953125 12.46875 -117.460938 C 11.460938 -117.460938 10.027344 -117.515625 8.171875 -117.628906 C 6.824219 -118.527344 6.628906 -119.875 7.582031 -121.671875 C 9.210938 -122.066406 11.628906 -122.515625 14.828125 -123.023438 C 23.929688 -123.753906 29.183594 -124.117188 30.585938 -124.117188 L 42.636719 -124.117188 C 42.859375 -124.117188 44.449219 -124.285156 47.398438 -124.621094 C 50.347656 -124.960938 51.960938 -125.128906 52.242188 -125.128906 L 58.984375 -125.128906 C 59.265625 -125.128906 60.164062 -125.042969 61.679688 -124.875 C 63.421875 -124.707031 64.628906 -124.59375 65.300781 -124.539062 C 66.371094 -124.707031 67.914062 -124.847656 69.9375 -124.960938 C 75.722656 -124.230469 82.265625 -123.023438 89.570312 -121.335938 C 92.265625 -120.71875 97.714844 -117.152344 105.917969 -110.636719 C 106.199219 -110.1875 106.199219 -109.566406 105.917969 -108.78125 C 104.960938 -107.828125 103.039062 -106.605469 100.144531 -105.117188 C 97.25 -103.628906 95.300781 -102.347656 94.289062 -101.28125 C 94.402344 -100.609375 95.046875 -100.1875 96.226562 -100.019531 C 97.238281 -99.90625 98.164062 -99.992188 99.007812 -100.269531 C 99.121094 -100.609375 99.457031 -100.972656 100.019531 -101.367188 C 101.589844 -101.648438 102.714844 -101.789062 103.390625 -101.789062 C 103.667969 -100.832031 104.316406 -99.851562 105.328125 -98.839844 C 106.226562 -99.121094 106.675781 -99.710938 106.675781 -100.609375 C 106.617188 -101.449219 106.199219 -102.238281 105.410156 -102.96875 C 106.199219 -103.191406 107.011719 -103.191406 107.855469 -102.96875 C 109.035156 -102.628906 110.074219 -102.460938 110.972656 -102.460938 C 111.535156 -99.539062 112.125 -96.621094 112.742188 -93.699219 C 113.527344 -89.765625 113.921875 -86.480469 113.921875 -83.839844 C 113.921875 -81.59375 113.667969 -79.542969 113.164062 -77.6875 C 112.375 -74.65625 110.746094 -70.160156 108.277344 -64.207031 C 106.816406 -61.625 104.0625 -57.886719 100.019531 -53 C 99.90625 -52.832031 97.265625 -50.78125 92.097656 -46.847656 C 93.671875 -43.871094 95.890625 -40.585938 98.753906 -36.992188 C 101 -34.183594 102.742188 -31.625 103.980469 -29.324219 C 105.328125 -26.796875 106.367188 -25.027344 107.097656 -24.015625 C 107.207031 -23.621094 107.40625 -23.117188 107.6875 -22.496094 C 110.832031 -18.679688 115.355469 -12.976562 121.253906 -5.394531 C 121.421875 -5.054688 121.421875 -4.746094 121.253906 -4.464844 C 123.613281 -2.667969 126.5625 -0.113281 130.101562 3.203125 C 131.671875 4.773438 133.835938 7.164062 136.585938 10.363281 C 134.789062 10.53125 133.890625 11.375 133.890625 12.890625 C 133.890625 14.296875 134.59375 15.28125 135.996094 15.839844 C 136.277344 13.820312 137.148438 12.808594 138.609375 12.808594 C 138.835938 12.808594 139.058594 12.835938 139.285156 12.890625 C 139.507812 12.949219 140.886719 13.59375 143.414062 14.828125 C 147.175781 16.683594 150.941406 18.539062 154.703125 20.390625 C 156.332031 21.066406 158.550781 21.429688 161.359375 21.488281 Z M 88.558594 -26.542969 C 87.882812 -25.757812 87.238281 -25.445312 86.621094 -25.617188 C 86.734375 -26.234375 87.125 -26.683594 87.800781 -26.964844 C 87.914062 -26.90625 88.164062 -26.765625 88.558594 -26.542969 Z M 93.613281 -78.699219 C 92.097656 -79.207031 91.339844 -79.964844 91.339844 -80.976562 L 91.339844 -89.90625 C 91.339844 -90.1875 91.253906 -90.539062 91.085938 -90.960938 C 90.917969 -91.382812 90.804688 -91.675781 90.75 -91.84375 C 90.414062 -95.441406 88.613281 -99.511719 85.355469 -104.0625 C 81.761719 -109.0625 78.027344 -111.957031 74.148438 -112.742188 C 73.589844 -113.078125 72.828125 -113.445312 71.875 -113.835938 C 66.203125 -115.015625 63 -115.605469 62.269531 -115.605469 L 54.855469 -115.605469 C 52.046875 -115.605469 49.488281 -115.242188 47.1875 -114.511719 C 46.960938 -114.398438 46.316406 -113.726562 45.25 -112.488281 C 45.640625 -109.175781 45.808594 -107.320312 45.753906 -106.929688 C 45.753906 -106.871094 45.65625 -106.703125 45.460938 -106.421875 C 45.261719 -106.140625 45.164062 -105.859375 45.164062 -105.578125 L 45.164062 -93.867188 C 45.164062 -93.585938 44.996094 -93.09375 44.660156 -92.394531 C 44.320312 -91.691406 44.179688 -91.171875 44.238281 -90.832031 C 44.574219 -89.484375 44.9375 -88.164062 45.332031 -86.875 C 45.726562 -85.414062 45.726562 -84.121094 45.332031 -82.996094 C 44.433594 -80.355469 44.320312 -76.847656 44.996094 -72.464844 C 44.882812 -73.363281 44.828125 -72.042969 44.828125 -68.503906 L 44.828125 -56.457031 C 44.828125 -55.726562 44.742188 -54.824219 44.574219 -53.757812 C 44.460938 -52.972656 44.433594 -52.328125 44.488281 -51.820312 C 44.660156 -51.089844 45.023438 -50.109375 45.585938 -48.871094 C 46.933594 -48.476562 48.898438 -48 51.484375 -47.4375 L 67.914062 -47.101562 C 69.65625 -47.832031 72.296875 -48.871094 75.835938 -50.21875 C 77.183594 -50.613281 78.953125 -51.34375 81.144531 -52.410156 C 84.457031 -55.445312 86.816406 -58.28125 88.222656 -60.921875 C 89.402344 -63.054688 90.300781 -65.921875 90.917969 -69.515625 C 90.972656 -70.582031 91.171875 -72.210938 91.507812 -74.402344 C 91.621094 -75.246094 91.816406 -76.339844 92.097656 -77.6875 C 92.378906 -78.53125 92.882812 -78.867188 93.613281 -78.699219 Z M 93.613281 -78.699219 "/></g></g></g><g fill="#6b817f" fill-opacity="1"><g transform="translate(896.175858, 432.814978)"><g><path d="M 49.882812 -96.226562 C 49.65625 -95.382812 49.292969 -94.203125 48.789062 -92.6875 C 48.789062 -92.6875 47.101562 -92.324219 43.730469 -91.59375 C 41.597656 -91.085938 40.25 -90.132812 39.6875 -88.726562 C 39.238281 -88.054688 38.675781 -87.097656 38 -85.863281 C 37.890625 -85.46875 37.160156 -82.210938 35.8125 -76.089844 L 35.472656 -40.699219 C 35.082031 -39.238281 34.882812 -38.453125 34.882812 -38.339844 C 34.882812 -38.339844 35.082031 -37.75 35.472656 -36.570312 L 35.304688 -23.507812 C 34.914062 -21.710938 34.914062 -19.238281 35.304688 -16.09375 C 35.699219 -12.441406 36.484375 -9.464844 37.664062 -7.164062 C 38.058594 -6.375 39.042969 -5.503906 40.613281 -4.550781 C 43.535156 -2.863281 46.457031 -2.050781 49.378906 -2.105469 C 49.320312 -1.375 49.011719 -0.308594 48.449219 1.09375 L 38.675781 1.09375 C 38.507812 1.09375 37.539062 1.039062 35.769531 0.925781 C 34 0.816406 33.058594 0.757812 32.945312 0.757812 C 32.777344 0.757812 32.019531 0.816406 30.671875 0.925781 C 29.324219 1.039062 28.59375 1.09375 28.480469 1.09375 C 28.367188 1.09375 27.847656 1.039062 26.921875 0.925781 C 25.996094 0.816406 25.445312 0.757812 25.277344 0.757812 C 25.109375 0.757812 24.730469 0.816406 24.140625 0.925781 C 23.550781 1.039062 23.171875 1.09375 23.003906 1.09375 L 5.394531 1.515625 C 3.875 1.515625 3.117188 0.953125 3.117188 -0.167969 C 3.117188 -1.460938 3.511719 -2.21875 4.296875 -2.445312 C 6.09375 -2.78125 7.890625 -3.089844 9.691406 -3.371094 C 11.769531 -3.820312 13.117188 -4.578125 13.734375 -5.644531 C 13.960938 -6.320312 14.296875 -7.359375 14.746094 -8.761719 C 15.53125 -8.707031 16.738281 -8.539062 18.367188 -8.257812 C 18.929688 -10.5625 19.210938 -12.050781 19.210938 -12.722656 C 19.210938 -13.339844 18.929688 -14.183594 18.367188 -15.25 C 18.820312 -16.375 18.902344 -17.328125 18.621094 -18.117188 C 18.398438 -18.679688 17.863281 -19.632812 17.019531 -20.980469 C 16.289062 -22.160156 15.925781 -22.835938 15.925781 -23.003906 C 15.925781 -22.609375 16.402344 -24.296875 17.359375 -28.058594 C 17.46875 -28.507812 17.300781 -29.15625 16.851562 -29.996094 C 17.808594 -31.570312 18.285156 -32.636719 18.285156 -33.199219 C 18.285156 -33.3125 18.144531 -35.136719 17.863281 -38.675781 C 17.863281 -38.957031 17.667969 -39.492188 17.273438 -40.277344 C 16.878906 -41.0625 16.683594 -41.539062 16.683594 -41.710938 C 16.683594 -41.933594 16.910156 -42.328125 17.359375 -42.890625 C 17.246094 -42.664062 17.1875 -42.972656 17.1875 -43.816406 L 17.1875 -54.011719 C 17.1875 -54.179688 17.316406 -54.6875 17.570312 -55.527344 C 17.820312 -56.371094 17.949219 -56.875 17.949219 -57.046875 C 17.949219 -57.15625 17.863281 -57.367188 17.695312 -57.675781 C 17.527344 -57.984375 17.441406 -58.226562 17.441406 -58.394531 C 17.441406 -58.167969 17.527344 -59.433594 17.695312 -62.183594 C 17.695312 -62.746094 17.640625 -63.671875 17.527344 -64.964844 C 17.414062 -66.257812 17.359375 -66.902344 17.359375 -66.902344 L 17.359375 -73.558594 C 17.359375 -74.179688 16.964844 -75.078125 16.179688 -76.257812 C 16.402344 -76.875 16.234375 -78.027344 15.671875 -79.710938 C 15.617188 -80.496094 15.390625 -81.675781 15 -83.25 C 14.550781 -83.757812 13.988281 -84.484375 13.3125 -85.441406 C 13.089844 -86.003906 12.695312 -86.84375 12.132812 -87.96875 C 11.011719 -89.710938 9.941406 -90.832031 8.933594 -91.339844 C 7.640625 -91.675781 5.703125 -92.292969 3.117188 -93.191406 C 3.285156 -93.980469 3.59375 -94.992188 4.042969 -96.226562 L 4.804688 -96.226562 C 4.972656 -96.226562 5.492188 -96.171875 6.363281 -96.058594 C 7.234375 -95.945312 7.753906 -95.890625 7.921875 -95.890625 Z M 49.882812 -96.226562 "/></g></g></g><g fill="#6b817f" fill-opacity="1"><g transform="translate(949.257845, 432.814978)"><g><path d="M 89.570312 -37.582031 L 88.8125 -36.652344 L 88.304688 -37.160156 L 88.726562 -38.929688 C 89.683594 -38.03125 89.964844 -37.582031 89.570312 -37.582031 Z M 120.832031 -101.957031 C 119.761719 -101.789062 118.21875 -101.507812 116.195312 -101.113281 C 114.0625 -100.496094 112.375 -99.148438 111.140625 -97.070312 C 109.398438 -93.980469 108.332031 -90.945312 107.9375 -87.96875 C 107.207031 -82.800781 106.84375 -78.585938 106.84375 -75.328125 C 106.84375 -75.105469 106.957031 -72.675781 107.179688 -68.042969 C 107.40625 -63.40625 107.519531 -60.949219 107.519531 -60.667969 L 107.519531 -47.269531 C 107.519531 -47.101562 107.617188 -46.539062 107.8125 -45.585938 C 108.007812 -44.628906 108.078125 -43.898438 108.023438 -43.394531 C 107.6875 -36.597656 107.519531 -32.777344 107.519531 -31.933594 C 107.519531 -31.484375 107.628906 -30.574219 107.855469 -29.195312 C 108.078125 -27.820312 108.191406 -27.019531 108.191406 -26.796875 L 108.191406 -0.925781 C 108.191406 -0.589844 108.234375 -0.40625 108.316406 -0.378906 C 108.402344 -0.351562 108.445312 -0.308594 108.445312 -0.253906 C 104.511719 0.421875 102.742188 0.757812 103.136719 0.757812 C 100.777344 0.757812 99.316406 0.503906 98.753906 0 C 94.878906 -3.59375 89.148438 -9.886719 81.566406 -18.875 C 80.21875 -20.671875 78.195312 -23.257812 75.5 -26.625 C 73.140625 -28.929688 69.9375 -32.300781 65.890625 -36.738281 C 64.882812 -38.421875 63.195312 -40.921875 60.835938 -44.238281 C 55.78125 -50.359375 48.617188 -59.375 39.351562 -71.285156 C 38.113281 -72.238281 36.429688 -73.757812 34.292969 -75.835938 C 34.238281 -76.230469 34.070312 -76.789062 33.789062 -77.519531 C 33.113281 -78.585938 31.992188 -80.1875 30.417969 -82.324219 C 29.238281 -81.761719 28.648438 -80.890625 28.648438 -79.710938 C 28.648438 -79.765625 29.042969 -76.902344 29.828125 -71.117188 C 29.882812 -70.78125 29.828125 -70.261719 29.660156 -69.558594 C 29.492188 -68.855469 29.40625 -68.390625 29.40625 -68.167969 C 29.40625 -65.921875 29.503906 -62.453125 29.703125 -57.761719 C 29.898438 -53.070312 29.996094 -50.78125 29.996094 -50.894531 L 29.996094 -39.097656 C 29.996094 -38.761719 30.039062 -35.894531 30.125 -30.503906 C 30.207031 -25.109375 30.25 -22.273438 30.25 -21.992188 C 30.25 -10.25 34.433594 -4.074219 42.804688 -3.453125 C 42.972656 -3.453125 43.183594 -3.214844 43.4375 -2.738281 C 43.691406 -2.261719 43.871094 -1.964844 43.984375 -1.855469 C 44.039062 -0.84375 43.898438 0 43.5625 0.675781 L 14.15625 0.675781 C 13.929688 0.675781 12.90625 0.828125 11.082031 1.136719 C 9.253906 1.445312 8.203125 1.601562 7.921875 1.601562 L 6.574219 1.601562 C 6.066406 1.09375 5.8125 0.785156 5.8125 0.675781 C 5.8125 -1.292969 6.433594 -2.613281 7.667969 -3.285156 C 9.128906 -3.734375 11.261719 -4.578125 14.070312 -5.8125 C 16.824219 -7.332031 18.480469 -9.746094 19.042969 -13.058594 C 20.503906 -21.207031 20.8125 -26.175781 19.96875 -27.976562 C 19.578125 -28.761719 19.519531 -29.433594 19.800781 -29.996094 C 19.800781 -29.996094 20.027344 -30.277344 20.476562 -30.839844 C 20.476562 -30.839844 20.308594 -31.09375 19.96875 -31.597656 C 19.914062 -32.214844 19.941406 -33.296875 20.054688 -34.84375 C 20.167969 -36.386719 20.222656 -37.496094 20.222656 -38.171875 C 20.222656 -38.957031 20.066406 -40.304688 19.757812 -42.214844 C 19.449219 -44.125 19.296875 -45.472656 19.296875 -46.257812 C 19.296875 -45.417969 19.410156 -47.160156 19.632812 -51.484375 C 19.578125 -51.652344 19.324219 -52.214844 18.875 -53.167969 L 19.296875 -53.589844 C 19.519531 -53.925781 19.660156 -54.546875 19.71875 -55.445312 C 19.828125 -55.613281 19.828125 -55.808594 19.71875 -56.035156 C 18.929688 -62.382812 18.539062 -66.652344 18.539062 -68.839844 L 18.539062 -80.46875 C 18.539062 -80.46875 18.4375 -82.125 18.242188 -85.441406 C 18.046875 -88.753906 17.949219 -91.144531 17.949219 -92.601562 C 17.949219 -92.773438 18.046875 -93.136719 18.242188 -93.699219 C 18.4375 -94.261719 18.507812 -94.738281 18.453125 -95.132812 C 14.183594 -99.625 8.820312 -101.648438 2.359375 -101.199219 L 1.9375 -101.621094 L 1.9375 -104.398438 C 2.554688 -105.128906 4.074219 -105.496094 6.488281 -105.496094 C 6.769531 -105.496094 9.03125 -105.382812 13.269531 -105.160156 C 17.511719 -104.933594 19.773438 -104.820312 20.054688 -104.820312 C 20.277344 -104.820312 22.371094 -104.933594 26.332031 -105.160156 C 30.292969 -105.382812 32.414062 -105.496094 32.695312 -105.496094 C 34.042969 -105.496094 34.828125 -105.4375 35.054688 -105.328125 C 35.839844 -105.046875 37.46875 -103.21875 39.941406 -99.851562 C 44.601562 -93.277344 51.625 -83.503906 61.003906 -70.527344 C 62.914062 -68.113281 65.78125 -64.515625 69.601562 -59.742188 C 68.925781 -54.796875 69.628906 -52.328125 71.707031 -52.328125 C 71.929688 -52.328125 72.378906 -52.496094 73.054688 -52.832031 C 73.730469 -53.167969 74.207031 -53.335938 74.488281 -53.335938 C 75.21875 -53.335938 76.199219 -52.296875 77.4375 -50.21875 C 78.054688 -49.152344 78.644531 -48.113281 79.207031 -47.101562 C 83.304688 -43.789062 85.863281 -41.261719 86.875 -39.519531 C 87.097656 -38.5625 87.492188 -37.160156 88.054688 -35.304688 C 88.503906 -34.6875 88.867188 -34.378906 89.148438 -34.378906 C 89.429688 -34.378906 89.710938 -34.492188 89.992188 -34.714844 C 90.273438 -34.941406 90.441406 -35.054688 90.496094 -35.054688 C 92.011719 -33.421875 94.0625 -31.035156 96.648438 -27.890625 C 97.601562 -28.339844 98.082031 -28.761719 98.082031 -29.15625 C 98.082031 -29.433594 97.96875 -29.914062 97.742188 -30.585938 C 97.519531 -31.261719 97.40625 -31.738281 97.40625 -32.019531 L 97.40625 -41.035156 C 97.40625 -41.316406 97.363281 -41.722656 97.28125 -42.257812 C 97.195312 -42.789062 97.152344 -43.480469 97.152344 -44.320312 C 97.378906 -45.390625 97.546875 -46.90625 97.660156 -48.871094 C 97.378906 -50.5 97.011719 -52.886719 96.5625 -56.035156 C 96.453125 -56.484375 96.507812 -57.324219 96.730469 -58.5625 C 96.957031 -59.796875 97.070312 -60.5 97.070312 -60.667969 C 97.070312 -60.894531 96.984375 -61.355469 96.816406 -62.058594 C 96.648438 -62.761719 96.5625 -63.253906 96.5625 -63.53125 C 96.453125 -64.542969 96.453125 -65.921875 96.5625 -67.660156 C 96.675781 -69.851562 96.730469 -71.3125 96.730469 -72.042969 C 96.730469 -72.324219 96.605469 -72.800781 96.351562 -73.476562 C 96.101562 -74.148438 95.945312 -74.65625 95.890625 -74.992188 C 95.890625 -74.992188 96 -75.75 96.226562 -77.269531 C 96.28125 -77.71875 96.183594 -78.585938 95.933594 -79.878906 C 95.679688 -81.171875 95.550781 -82.15625 95.550781 -82.828125 C 95.550781 -83.054688 95.664062 -83.558594 95.890625 -84.347656 C 96.113281 -85.132812 96.199219 -85.695312 96.140625 -86.03125 C 95.804688 -88.335938 95.214844 -91.703125 94.371094 -96.140625 C 93.585938 -99.0625 90.382812 -101 84.765625 -101.957031 C 84.878906 -102.910156 84.765625 -103.921875 84.429688 -104.988281 C 85.046875 -105.496094 87.042969 -105.75 90.414062 -105.75 L 105.75 -105.160156 C 105.410156 -105.160156 107.9375 -105.328125 113.332031 -105.664062 C 116.535156 -105.886719 119.035156 -105.691406 120.832031 -105.074219 Z M 120.832031 -101.957031 "/></g></g></g><g fill="#6b817f" fill-opacity="1"><g transform="translate(1063.089211, 432.814978)"><g><path d="M 101.789062 -104.484375 C 101.898438 -104.035156 101.957031 -103.527344 101.957031 -102.96875 C 101.957031 -101.730469 101.691406 -99.570312 101.15625 -96.480469 C 100.621094 -93.390625 100.355469 -91.085938 100.355469 -89.570312 C 100.355469 -88.785156 100.382812 -88.054688 100.441406 -87.378906 C 100.160156 -86.367188 99.90625 -84.964844 99.679688 -83.167969 C 100.128906 -80.917969 100.382812 -80.046875 100.441406 -80.554688 C 100.269531 -80.21875 100.019531 -79.796875 99.679688 -79.289062 C 99.679688 -78.726562 99.851562 -77.128906 100.1875 -74.488281 C 98.78125 -73.140625 97.519531 -72.464844 96.394531 -72.464844 C 95.945312 -72.464844 95.441406 -72.800781 94.878906 -73.476562 C 95.382812 -76.789062 95.550781 -78.839844 95.382812 -79.628906 C 95.214844 -80.527344 94.878906 -81.789062 94.371094 -83.417969 C 93.25 -85.890625 91.171875 -88.613281 88.136719 -91.59375 C 86.957031 -92.714844 84.207031 -94.203125 79.878906 -96.058594 C 79.375 -96.28125 77.546875 -96.675781 74.402344 -97.238281 C 72.378906 -97.574219 69.402344 -97.742188 65.472656 -97.742188 C 54.347656 -97.742188 45.613281 -94.792969 39.265625 -88.894531 C 38.480469 -88.503906 37.355469 -87.632812 35.894531 -86.285156 C 31.007812 -79.542969 28.226562 -72.941406 27.554688 -66.480469 C 27.273438 -63.785156 27.132812 -59.347656 27.132812 -53.167969 L 27.132812 -47.609375 C 27.132812 -47.945312 27.527344 -46.457031 28.3125 -43.140625 C 28.367188 -41.402344 28.648438 -39.042969 29.15625 -36.0625 C 29.492188 -35.78125 30.054688 -34.941406 30.839844 -33.535156 C 30.894531 -32.804688 31.09375 -31.851562 31.429688 -30.671875 C 32.214844 -29.605469 33.421875 -28.003906 35.054688 -25.867188 C 35.277344 -25.195312 35.671875 -24.238281 36.234375 -23.003906 C 38.761719 -18.398438 42.664062 -14.578125 47.945312 -11.542969 C 50.304688 -10.195312 52.636719 -9.242188 54.9375 -8.679688 C 66.003906 -6.09375 73.109375 -4.804688 76.257812 -4.804688 C 77.71875 -4.804688 79.148438 -4.972656 80.554688 -5.308594 C 81.226562 -5.421875 82.210938 -5.757812 83.503906 -6.320312 C 83.785156 -8.511719 83.925781 -9.605469 83.925781 -9.605469 C 83.925781 -10.390625 83.558594 -10.925781 82.828125 -11.207031 C 81.816406 -11.542969 81.144531 -11.992188 80.808594 -12.554688 C 80.246094 -13.453125 80.21875 -15.195312 80.722656 -17.777344 C 80.722656 -17.777344 80.722656 -22.246094 80.722656 -31.175781 C 80.386719 -34.433594 79.90625 -36.992188 79.289062 -38.84375 C 78.953125 -39.125 78.503906 -39.660156 77.941406 -40.445312 C 76.988281 -43.421875 74.9375 -45.332031 71.789062 -46.175781 C 70.5 -46.511719 67.746094 -46.738281 63.53125 -46.847656 C 63.363281 -46.960938 63.113281 -47.160156 62.773438 -47.4375 L 62.773438 -49.628906 C 64.179688 -50.078125 66.480469 -50.304688 69.683594 -50.304688 C 69.910156 -50.304688 71.875 -50.148438 75.582031 -49.839844 C 79.289062 -49.53125 81.257812 -49.378906 81.480469 -49.378906 C 81.761719 -49.378906 82.238281 -49.503906 82.914062 -49.757812 C 83.585938 -50.007812 84.09375 -50.164062 84.429688 -50.21875 C 87.855469 -50.5 89.765625 -50.640625 90.160156 -50.640625 C 98.082031 -50.640625 101.449219 -50.613281 100.269531 -50.558594 L 100.269531 -46.933594 C 100.269531 -46.765625 100.019531 -46.175781 99.511719 -45.164062 C 98.894531 -43.984375 98.53125 -43.171875 98.417969 -42.71875 C 97.460938 -38.84375 96.902344 -34.914062 96.730469 -30.925781 C 96.507812 -25.867188 96.394531 -22.386719 96.394531 -20.476562 C 96.394531 -16.597656 96.816406 -11.261719 97.660156 -4.464844 C 95.074219 -3.117188 88.304688 -1.320312 77.351562 0.925781 C 76.453125 0.871094 75.078125 0.925781 73.222656 1.09375 C 70.695312 1.65625 68.925781 1.9375 67.914062 1.9375 C 67.632812 1.9375 67.210938 1.855469 66.652344 1.683594 C 66.089844 1.515625 65.695312 1.433594 65.472656 1.433594 C 59.683594 1.152344 54.882812 0.675781 51.0625 0 C 49.601562 -0.5625 47.4375 -1.265625 44.574219 -2.105469 C 38.902344 -3.230469 32.636719 -6.824219 25.785156 -12.890625 C 18.648438 -19.238281 14.269531 -25.335938 12.640625 -31.175781 C 12.132812 -32.46875 11.488281 -34.40625 10.703125 -36.992188 C 10.25 -37.832031 9.660156 -39.097656 8.933594 -40.78125 C 8.257812 -43.535156 7.921875 -45.867188 7.921875 -47.777344 C 7.921875 -47.609375 8.0625 -48.648438 8.34375 -50.894531 C 8.621094 -52.804688 8.652344 -54.152344 8.425781 -54.9375 C 8.203125 -55.835938 8.089844 -56.792969 8.089844 -57.804688 C 8.089844 -59.714844 8.566406 -62.4375 9.523438 -65.976562 C 10.644531 -70.359375 11.320312 -73.308594 11.542969 -74.824219 C 17.050781 -84.765625 20.390625 -89.738281 21.570312 -89.738281 C 21.796875 -89.738281 21.964844 -89.640625 22.078125 -89.445312 C 22.1875 -89.246094 22.386719 -89.148438 22.667969 -89.148438 C 23.621094 -89.148438 24.378906 -89.375 24.941406 -89.824219 C 25.167969 -90.496094 25.617188 -91.421875 26.289062 -92.601562 C 31.515625 -98.390625 34.6875 -101.28125 35.8125 -101.28125 C 36.09375 -101.28125 36.289062 -101.226562 36.402344 -101.113281 C 36.511719 -101 36.683594 -100.945312 36.90625 -100.945312 C 37.132812 -100.945312 37.734375 -101.324219 38.71875 -102.082031 C 39.703125 -102.839844 40.332031 -103.21875 40.613281 -103.21875 C 40.839844 -103.21875 41.160156 -103.109375 41.582031 -102.882812 C 42.003906 -102.660156 42.328125 -102.546875 42.550781 -102.546875 C 42.832031 -102.546875 45.332031 -103.136719 50.050781 -104.316406 C 54.769531 -105.496094 57.269531 -106.085938 57.550781 -106.085938 L 79.207031 -106.085938 C 79.488281 -106.085938 82.070312 -105.820312 86.957031 -105.285156 C 91.84375 -104.75 94.429688 -104.484375 94.710938 -104.484375 C 94.820312 -104.484375 95.820312 -104.484375 97.703125 -104.484375 C 99.582031 -104.484375 100.945312 -104.484375 101.789062 -104.484375 Z M 101.789062 -104.484375 "/></g></g></g><g fill="#6b817f" fill-opacity="1"><g transform="translate(1163.018145, 432.814978)"><g><path d="M 82.828125 -26.375 C 82.828125 -25.136719 82.167969 -22.707031 80.847656 -19.085938 C 79.527344 -15.460938 78.558594 -13.230469 77.941406 -12.386719 C 75.300781 -9.183594 72.492188 -6.375 69.515625 -3.960938 C 67.886719 -2.667969 65.753906 -1.601562 63.113281 -0.757812 C 56.316406 1.375 49.882812 2.445312 43.816406 2.445312 C 43.929688 2.445312 42.859375 2.386719 40.613281 2.273438 C 38.589844 2.105469 37.101562 2.050781 36.148438 2.105469 C 36.316406 2.613281 36.402344 1.628906 36.402344 -0.84375 C 34.996094 -2.191406 33.144531 -2.863281 30.839844 -2.863281 C 29.996094 -2.863281 29.210938 -2.5 28.480469 -1.769531 C 28.59375 -1.65625 29.433594 -1.265625 31.007812 -0.589844 C 30.671875 0.421875 29.996094 0.925781 28.984375 0.925781 C 27.917969 0.925781 25.53125 0.476562 21.824219 -0.421875 C 16.992188 -1.601562 13.480469 -2.949219 11.292969 -4.464844 C 10.785156 -4.804688 10.222656 -7.050781 9.605469 -11.207031 C 9.15625 -14.519531 8.933594 -18.59375 8.933594 -23.425781 C 8.933594 -27.804688 9.15625 -31.375 9.605469 -34.125 C 9.886719 -34.070312 10.785156 -34.183594 12.300781 -34.464844 C 12.75 -33.902344 12.949219 -32.832031 12.890625 -31.261719 C 12.835938 -29.238281 12.808594 -28.253906 12.808594 -28.3125 C 13.089844 -26.964844 13.511719 -24.96875 14.070312 -22.328125 C 14.128906 -21.9375 14.886719 -20.699219 16.347656 -18.621094 C 17.1875 -17.273438 18.707031 -15.417969 20.898438 -13.058594 C 22.75 -11.601562 25.25 -10.476562 28.394531 -9.691406 C 30.082031 -9.183594 31.765625 -8.652344 33.453125 -8.089844 C 35.585938 -7.472656 37.355469 -7.164062 38.761719 -7.164062 C 39.320312 -6.824219 39.742188 -6.65625 40.023438 -6.65625 C 40.25 -6.65625 40.585938 -6.710938 41.035156 -6.824219 C 41.484375 -6.9375 41.820312 -6.992188 42.046875 -6.992188 C 42.328125 -6.992188 43.394531 -6.78125 45.25 -6.363281 C 47.101562 -5.941406 48.140625 -5.730469 48.367188 -5.730469 C 48.589844 -5.730469 49.136719 -6.054688 50.007812 -6.699219 C 50.878906 -7.34375 51.539062 -7.722656 51.988281 -7.835938 C 53.5625 -8.171875 55.867188 -8.652344 58.898438 -9.269531 C 60.472656 -9.605469 61.734375 -11.121094 62.691406 -13.820312 C 63.082031 -14.550781 63.644531 -15.617188 64.375 -17.019531 C 64.375 -17.414062 64.433594 -18.03125 64.542969 -18.875 C 64.65625 -19.269531 64.992188 -19.96875 65.554688 -20.980469 C 66.117188 -21.992188 66.398438 -22.636719 66.398438 -22.917969 C 66.398438 -24.996094 66.144531 -26.765625 65.640625 -28.226562 C 65.359375 -29.125 64.207031 -31.121094 62.183594 -34.210938 C 61.566406 -34.660156 60.667969 -35.304688 59.488281 -36.148438 C 54.601562 -40.082031 49.882812 -42.804688 45.332031 -44.320312 C 44.097656 -45.050781 42.300781 -46.035156 39.941406 -47.269531 C 37.132812 -48.449219 32.609375 -50.976562 26.375 -54.855469 C 25.925781 -55.023438 25.277344 -55.304688 24.4375 -55.695312 C 22.75 -57.101562 21.007812 -58.925781 19.210938 -61.171875 C 16.628906 -64.433594 15.222656 -66.171875 15 -66.398438 C 15 -67.183594 14.941406 -68.363281 14.828125 -69.9375 C 14.492188 -70.5 14.015625 -71.425781 13.398438 -72.71875 C 13.398438 -73.898438 13.3125 -75.527344 13.144531 -77.605469 C 13.480469 -78.054688 13.648438 -78.449219 13.648438 -78.785156 C 13.03125 -80.246094 12.722656 -80.945312 12.722656 -80.890625 C 12.722656 -80.777344 13.3125 -82.097656 14.492188 -84.851562 C 14.660156 -86.085938 15.054688 -87.773438 15.671875 -89.90625 C 15.898438 -90.414062 17.386719 -92.011719 20.136719 -94.710938 C 21.429688 -94.09375 22.019531 -93.78125 21.90625 -93.78125 C 22.078125 -94.511719 22.414062 -95.441406 22.917969 -96.5625 C 28.085938 -101.507812 32.832031 -104.539062 37.160156 -105.664062 C 40.699219 -106.5625 45.445312 -107.011719 51.398438 -107.011719 C 51.679688 -107.011719 54.515625 -106.703125 59.910156 -106.085938 C 65.300781 -105.46875 68.140625 -105.160156 68.421875 -105.160156 C 68.644531 -105.160156 69.894531 -105.3125 72.171875 -105.621094 C 74.445312 -105.929688 75.722656 -106.085938 76.003906 -106.085938 C 77.578125 -106.085938 78.363281 -105.410156 78.363281 -104.0625 L 77.097656 -90.160156 L 77.097656 -82.828125 C 77.097656 -82.714844 77.042969 -81.734375 76.929688 -79.878906 C 76.820312 -78.027344 76.761719 -76.679688 76.761719 -75.835938 C 76.707031 -75.835938 76.523438 -75.722656 76.214844 -75.5 C 75.90625 -75.273438 75.609375 -75.160156 75.328125 -75.160156 L 73.390625 -75.160156 C 73.222656 -76.957031 72.859375 -79.515625 72.296875 -82.828125 C 70.554688 -89.457031 66.933594 -93.753906 61.425781 -95.722656 C 58.5625 -96.730469 53.535156 -97.238281 46.34375 -97.238281 C 44.996094 -97.238281 42.691406 -96.675781 39.433594 -95.550781 C 36.625 -94.597656 33.957031 -92.152344 31.429688 -88.222656 C 30.53125 -86.816406 30.082031 -85.300781 30.082031 -83.671875 C 30.082031 -81.03125 30.953125 -77.859375 32.695312 -74.148438 C 33.421875 -73.476562 34.433594 -72.550781 35.726562 -71.371094 C 39.601562 -67.492188 45.359375 -63.984375 53 -60.835938 C 65.078125 -55.894531 73.476562 -50.445312 78.195312 -44.488281 C 79.9375 -42.300781 81.117188 -39.742188 81.734375 -36.820312 C 82.464844 -33.394531 82.828125 -29.914062 82.828125 -26.375 Z M 82.828125 -26.375 "/></g></g></g></svg>