<svg xmlns="http://www.w3.org/2000/svg" xmlns:xlink="http://www.w3.org/1999/xlink" width="1080" zoomAndPan="magnify" viewBox="0 0 810 1439.999935" height="1920" preserveAspectRatio="xMidYMid meet" version="1.0"><defs><g/></defs><g fill="#6b817f" fill-opacity="1"><g transform="translate(219.474009, 360.860287)"><g><path d="M 78.410156 -18.339844 C 78.570312 -17.136719 78.648438 -15.773438 78.648438 -14.25 C 78.648438 -12.527344 78.1875 -7.253906 77.265625 1.5625 C 76.90625 4.890625 75.082031 9.28125 71.796875 14.730469 C 68.667969 19.941406 66.023438 23.230469 63.859375 24.59375 C 60.289062 26.839844 56.84375 28.402344 53.515625 29.285156 C 52.273438 29.605469 48.523438 29.765625 42.269531 29.765625 L 10.28125 29.765625 C 9.5625 29.765625 8.679688 29.445312 7.636719 28.800781 C 7.636719 28.640625 7.578125 28.261719 7.457031 27.660156 C 7.335938 27.058594 7.277344 26.617188 7.277344 26.335938 C 9.839844 25.375 11.40625 24.714844 11.964844 24.351562 C 13.730469 23.191406 15.171875 21.265625 16.296875 18.582031 C 16.816406 17.378906 17.15625 14.289062 17.316406 9.320312 C 17.359375 8.558594 17.539062 6.492188 17.859375 3.125 C 18.140625 0.0390625 18.28125 -2.304688 18.28125 -3.910156 C 18.28125 -12.929688 18.339844 -17.878906 18.460938 -18.761719 C 18.582031 -19.402344 19.042969 -20.566406 19.84375 -22.25 C 19.480469 -22.6875 19.019531 -23.570312 18.460938 -24.894531 C 18.21875 -26.097656 18.097656 -27.820312 18.097656 -30.066406 L 18.097656 -40.046875 C 18.097656 -40.246094 18.039062 -41.289062 17.917969 -43.171875 C 17.796875 -44.898438 17.839844 -47.101562 18.039062 -49.789062 C 18.398438 -53.757812 18.582031 -55.960938 18.582031 -56.402344 C 18.539062 -56.523438 18.417969 -56.761719 18.21875 -57.125 C 17.699219 -59.769531 17.71875 -63.195312 18.28125 -67.40625 C 18.480469 -68.648438 18.160156 -72.636719 17.316406 -79.371094 C 17.277344 -81.535156 16.855469 -84.363281 16.054688 -87.851562 C 15.011719 -89.613281 13.609375 -90.757812 11.84375 -91.277344 C 10.441406 -91.679688 9.019531 -92.097656 7.578125 -92.539062 C 7.578125 -96.347656 7.515625 -97.148438 7.394531 -94.945312 C 7.4375 -95.988281 7.917969 -96.527344 8.839844 -96.570312 C 10.804688 -96.730469 13.96875 -97.070312 18.339844 -97.589844 C 22.386719 -98.070312 24.472656 -98.3125 24.59375 -98.3125 L 33.371094 -98.3125 C 34.976562 -98.3125 36.667969 -98.503906 38.453125 -98.882812 C 40.238281 -99.265625 41.769531 -99.457031 43.054688 -99.457031 C 44.496094 -99.457031 46.261719 -99.273438 48.34375 -98.914062 C 48.625 -98.875 51.492188 -97.972656 56.941406 -96.207031 C 59.828125 -95.285156 62.574219 -92.699219 65.179688 -88.453125 C 67.667969 -84.402344 69.109375 -80.492188 69.511719 -76.726562 C 69.75 -74.5625 69.871094 -72.476562 69.871094 -70.472656 C 69.871094 -60.210938 66.542969 -51.128906 59.890625 -43.234375 C 59.96875 -43.152344 60.128906 -42.992188 60.371094 -42.753906 C 61.855469 -42.832031 63.789062 -42.0625 66.171875 -40.4375 C 68.558594 -38.8125 70.652344 -36.800781 72.457031 -34.394531 C 75.542969 -30.265625 77.527344 -24.914062 78.410156 -18.339844 Z M 65.660156 -71.074219 C 65.300781 -71.113281 63.699219 -71.132812 60.851562 -71.132812 C 58.847656 -71.09375 57.355469 -71.496094 56.371094 -72.335938 C 55.390625 -73.179688 54.539062 -74.800781 53.816406 -77.207031 C 53.214844 -79.132812 52.632812 -81.074219 52.074219 -83.039062 C 51.550781 -84.28125 50.46875 -85.695312 48.824219 -87.277344 C 47.183594 -88.863281 45.777344 -89.753906 44.617188 -89.953125 C 39.285156 -90.957031 36.117188 -90.796875 35.117188 -89.472656 L 33.914062 -66.984375 C 33.914062 -66.664062 34.035156 -66.273438 34.273438 -65.8125 C 34.515625 -65.351562 34.636719 -65.082031 34.636719 -65 C 34.636719 -64.839844 34.394531 -62.253906 33.914062 -57.242188 C 33.632812 -54.078125 33.714844 -50.007812 34.152344 -45.039062 C 35.878906 -44.277344 36.78125 -43.894531 36.859375 -43.894531 C 43.074219 -44.296875 47.203125 -44.957031 49.246094 -45.878906 C 54.015625 -48.042969 56.402344 -54.496094 56.402344 -65.242188 C 56.402344 -66.484375 56.363281 -67.6875 56.28125 -68.847656 C 56.480469 -69.25 56.703125 -69.550781 56.941406 -69.75 C 59.269531 -69.871094 62.175781 -70.3125 65.660156 -71.074219 Z M 62.65625 -9.378906 C 62.574219 -10.984375 62.074219 -13.148438 61.152344 -15.875 C 60.390625 -18 59.609375 -20.144531 58.808594 -22.308594 C 58.367188 -23.75 57.644531 -25.574219 56.640625 -27.78125 C 52.875 -33.113281 48.105469 -35.777344 42.332031 -35.777344 C 41.449219 -35.777344 40.207031 -35.738281 38.601562 -35.65625 C 36.71875 -35.535156 35.15625 -35.117188 33.914062 -34.394531 C 33.632812 -30.90625 33.332031 -26.71875 33.011719 -21.828125 C 32.972656 -18.539062 33.011719 -14.972656 33.132812 -11.125 C 33.292969 -5.992188 33.371094 -3.328125 33.371094 -3.125 C 33.453125 2.6875 34.113281 9.699219 35.355469 17.917969 C 35.476562 18.640625 36.257812 19.824219 37.703125 21.464844 C 38.503906 21.347656 39.386719 21.285156 40.347656 21.285156 C 41.027344 21.285156 42.019531 21.335938 43.324219 21.4375 C 44.625 21.535156 45.578125 21.585938 46.179688 21.585938 C 49.667969 21.585938 52.511719 20.324219 54.71875 17.796875 C 56.242188 16.195312 57.925781 14.050781 59.769531 11.363281 C 62.015625 4.628906 62.976562 -2.285156 62.65625 -9.378906 Z M 62.65625 -9.378906 "/></g></g></g><g fill="#6b817f" fill-opacity="1"><g transform="translate(299.265258, 360.860287)"><g><path d="M 70.351562 -17.078125 C 69.511719 -14.109375 68.667969 -11.164062 67.828125 -8.238281 C 66.785156 -4.75 65.300781 -1.441406 63.378906 1.683594 L 9.980469 1.203125 C 9.460938 1.042969 8.539062 0.851562 7.214844 0.632812 C 5.894531 0.410156 4.992188 0.21875 4.507812 0.0585938 C 4.507812 -0.980469 4.910156 -1.765625 5.710938 -2.285156 C 7.355469 -2.246094 9.019531 -2.625 10.703125 -3.425781 C 12.90625 -4.46875 14.269531 -6.011719 14.792969 -8.058594 C 15.03125 -8.898438 15.074219 -10.382812 14.914062 -12.507812 C 14.75 -14.953125 14.710938 -16.617188 14.792969 -17.496094 C 14.832031 -17.980469 15.050781 -19.621094 15.453125 -22.429688 C 15.734375 -24.59375 15.875 -26.296875 15.875 -27.539062 C 15.875 -41.972656 15.632812 -51.652344 15.152344 -56.582031 C 15.273438 -56.742188 15.511719 -57.082031 15.875 -57.605469 C 15.554688 -61.652344 15.03125 -64.960938 14.3125 -67.527344 C 13.949219 -68.730469 12.738281 -69.859375 10.671875 -70.921875 C 8.609375 -71.984375 7.09375 -72.375 6.132812 -72.097656 C 6.132812 -73.738281 7.195312 -74.5625 9.320312 -74.5625 C 9.921875 -74.5625 10.742188 -74.492188 11.785156 -74.351562 C 12.828125 -74.210938 13.488281 -74.140625 13.769531 -74.140625 L 43.894531 -74.140625 C 43.976562 -73.179688 42.972656 -72.4375 40.886719 -71.914062 C 39.40625 -71.554688 37.941406 -71.195312 36.5 -70.832031 C 34.695312 -69.992188 33.734375 -69.53125 33.613281 -69.449219 C 32.449219 -68.730469 31.730469 -67.90625 31.449219 -66.984375 C 30.605469 -64.179688 30.023438 -60.449219 29.703125 -55.800781 C 29.183594 -48.746094 28.902344 -44.957031 28.863281 -44.4375 C 29.664062 -42.152344 30.066406 -40.085938 30.066406 -38.242188 C 30.066406 -37.320312 29.925781 -36.066406 29.644531 -34.484375 C 29.363281 -32.902344 29.222656 -31.648438 29.222656 -30.726562 L 29.222656 -14.371094 C 29.863281 -12.445312 30.785156 -9.660156 31.988281 -6.011719 C 32.230469 -5.332031 32.992188 -4.890625 34.273438 -4.691406 C 35.878906 -4.488281 38.164062 -4.148438 41.128906 -3.667969 C 41.648438 -3.546875 42.152344 -3.546875 42.632812 -3.667969 C 45.519531 -4.070312 48.40625 -4.488281 51.289062 -4.929688 C 54.820312 -5.53125 57.523438 -6.492188 59.410156 -7.816406 C 60.089844 -8.339844 60.933594 -9.742188 61.933594 -12.027344 C 62.976562 -14.511719 63.878906 -16.15625 64.640625 -16.957031 C 65.242188 -17.597656 66.042969 -17.917969 67.046875 -17.917969 C 67.566406 -17.917969 68.667969 -17.636719 70.351562 -17.078125 Z M 70.351562 -17.078125 "/></g></g></g><g fill="#6b817f" fill-opacity="1"><g transform="translate(367.090834, 360.860287)"><g><path d="M 86.707031 -37.460938 C 86.707031 -35.175781 86.648438 -33.433594 86.527344 -32.230469 C 86.125 -31.308594 85.707031 -29.882812 85.265625 -27.960938 C 85.183594 -26.035156 84.761719 -23.992188 84 -21.828125 C 83.359375 -21.027344 82.417969 -19.722656 81.175781 -17.917969 C 80.855469 -16.714844 79.972656 -14.992188 78.53125 -12.746094 C 77.367188 -11.585938 75.601562 -9.78125 73.238281 -7.335938 C 72.878906 -7.214844 72.417969 -7.015625 71.855469 -6.734375 C 71.335938 -6.253906 70.414062 -5.550781 69.089844 -4.628906 C 62.515625 -1.140625 56.261719 0.84375 50.328125 1.324219 L 42.390625 1.324219 C 42.472656 1.324219 42.3125 1.203125 41.910156 0.960938 C 37.582031 0.84375 34.335938 0.242188 32.167969 -0.84375 C 31.609375 -0.960938 30.847656 -1.164062 29.882812 -1.441406 C 28.28125 -2.085938 25.875 -3.226562 22.667969 -4.871094 C 18.820312 -7.316406 15.214844 -10.761719 11.84375 -15.214844 C 9.960938 -17.699219 8.296875 -20.90625 6.855469 -24.832031 C 5.492188 -28.480469 4.730469 -31.546875 4.570312 -34.035156 C 4.289062 -38.28125 4.449219 -42.453125 5.050781 -46.539062 C 5.292969 -47.0625 5.613281 -47.804688 6.011719 -48.765625 C 6.253906 -49.96875 6.675781 -51.710938 7.277344 -53.996094 C 8.15625 -55.398438 9.320312 -57.445312 10.761719 -60.128906 C 10.964844 -60.570312 11.0625 -61.09375 11.0625 -61.695312 C 11.265625 -61.894531 11.664062 -61.832031 12.265625 -61.511719 C 12.46875 -62.074219 12.46875 -62.875 12.265625 -63.917969 C 12.789062 -64.078125 13.527344 -64.417969 14.492188 -64.941406 C 14.8125 -65.78125 15.574219 -66.804688 16.777344 -68.007812 C 19.179688 -69.289062 22.808594 -71.175781 27.660156 -73.660156 C 28.902344 -74.261719 30.484375 -74.78125 32.410156 -75.222656 C 37.300781 -76.34375 40.628906 -76.90625 42.390625 -76.90625 L 47.082031 -76.90625 C 50.730469 -76.90625 53.855469 -76.566406 56.460938 -75.882812 C 57.863281 -75.484375 60.953125 -74.359375 65.722656 -72.515625 C 66.722656 -71.875 68.308594 -70.875 70.472656 -69.511719 C 73.597656 -67.507812 76.445312 -64.761719 79.011719 -61.273438 C 81.296875 -58.144531 82.777344 -55.257812 83.460938 -52.613281 C 83.78125 -52.171875 84.183594 -51.511719 84.664062 -50.628906 C 85.546875 -48.222656 86.046875 -44.65625 86.167969 -39.925781 C 86.167969 -39.765625 86.257812 -39.394531 86.4375 -38.8125 C 86.617188 -38.234375 86.707031 -37.78125 86.707031 -37.460938 Z M 73.359375 -35.898438 C 72.996094 -40.949219 72.015625 -45.558594 70.414062 -49.726562 C 68.367188 -55.097656 65.960938 -59.328125 63.195312 -62.414062 C 59.269531 -66.746094 54.980469 -69.289062 50.328125 -70.050781 C 45.917969 -70.773438 42.894531 -71.011719 41.25 -70.773438 C 38.042969 -70.371094 35.316406 -69.671875 33.070312 -68.667969 C 32.789062 -68.546875 30.96875 -67.484375 27.601562 -65.480469 C 27.398438 -65.082031 27.039062 -64.601562 26.515625 -64.039062 C 26.195312 -63.957031 25.835938 -63.839844 25.433594 -63.675781 C 24.632812 -62.636719 23.632812 -61.234375 22.429688 -59.46875 C 22.269531 -58.988281 22.007812 -58.304688 21.648438 -57.425781 C 21.046875 -56.460938 20.402344 -55.320312 19.722656 -53.996094 C 19.363281 -52.511719 18.800781 -50.289062 18.039062 -47.324219 C 18.078125 -46.199219 18.058594 -44.496094 17.980469 -42.210938 C 17.980469 -42.089844 17.898438 -41.832031 17.738281 -41.429688 C 17.578125 -41.027344 17.519531 -40.75 17.558594 -40.585938 C 18.121094 -37.980469 18.921875 -34.375 19.964844 -29.765625 C 19.84375 -29.445312 19.761719 -29.0625 19.722656 -28.621094 C 20.003906 -28.0625 20.402344 -27.300781 20.925781 -26.335938 C 20.964844 -25.816406 21.085938 -25.132812 21.285156 -24.292969 C 22.96875 -20.925781 23.851562 -19.203125 23.933594 -19.121094 C 25.132812 -17.035156 26.777344 -15.050781 28.863281 -13.167969 C 28.902344 -13.128906 29.164062 -12.304688 29.644531 -10.703125 C 29.804688 -10.664062 30.484375 -10.542969 31.6875 -10.34375 C 33.652344 -8.539062 35.15625 -7.316406 36.199219 -6.675781 C 39.164062 -4.910156 44.535156 -4.371094 52.3125 -5.050781 C 52.953125 -5.25 53.796875 -5.511719 54.839844 -5.832031 C 56.160156 -6.113281 58.066406 -6.773438 60.550781 -7.816406 C 61.113281 -8.339844 61.855469 -8.960938 62.777344 -9.679688 C 66.785156 -12.167969 69.167969 -15.234375 69.929688 -18.878906 C 70.332031 -19.363281 70.8125 -20.042969 71.375 -20.925781 C 71.453125 -21.6875 71.574219 -22.589844 71.734375 -23.632812 C 71.976562 -23.871094 72.214844 -24.253906 72.457031 -24.773438 C 72.535156 -25.695312 72.738281 -27.699219 73.058594 -30.785156 C 73.339844 -33.273438 73.4375 -34.976562 73.359375 -35.898438 Z M 73.359375 -35.898438 "/></g></g></g><g fill="#6b817f" fill-opacity="1"><g transform="translate(459.809829, 360.860287)"><g><path d="M 72.636719 -74.5625 C 72.71875 -74.242188 72.757812 -73.878906 72.757812 -73.480469 C 72.757812 -72.597656 72.566406 -71.054688 72.1875 -68.847656 C 71.804688 -66.644531 71.613281 -65 71.613281 -63.917969 C 71.613281 -63.355469 71.636719 -62.835938 71.675781 -62.355469 C 71.472656 -61.632812 71.292969 -60.632812 71.132812 -59.347656 C 71.453125 -57.746094 71.636719 -57.125 71.675781 -57.484375 C 71.554688 -57.242188 71.375 -56.941406 71.132812 -56.582031 C 71.132812 -56.179688 71.253906 -55.039062 71.496094 -53.15625 C 70.492188 -52.191406 69.589844 -51.710938 68.789062 -51.710938 C 68.46875 -51.710938 68.105469 -51.953125 67.707031 -52.433594 C 68.066406 -54.796875 68.1875 -56.261719 68.066406 -56.824219 C 67.945312 -57.464844 67.707031 -58.367188 67.34375 -59.527344 C 66.542969 -61.292969 65.0625 -63.238281 62.894531 -65.363281 C 62.054688 -66.164062 60.089844 -67.226562 57.003906 -68.546875 C 56.640625 -68.707031 55.339844 -68.988281 53.09375 -69.390625 C 51.652344 -69.628906 49.527344 -69.75 46.722656 -69.75 C 38.785156 -69.75 32.550781 -67.644531 28.019531 -63.4375 C 27.460938 -63.15625 26.65625 -62.535156 25.617188 -61.574219 C 22.128906 -56.761719 20.144531 -52.050781 19.664062 -47.441406 C 19.460938 -45.519531 19.363281 -42.351562 19.363281 -37.941406 L 19.363281 -33.972656 C 19.363281 -34.214844 19.640625 -33.152344 20.203125 -30.785156 C 20.242188 -29.542969 20.445312 -27.859375 20.804688 -25.734375 C 21.046875 -25.535156 21.445312 -24.933594 22.007812 -23.933594 C 22.046875 -23.410156 22.1875 -22.730469 22.429688 -21.886719 C 22.988281 -21.125 23.851562 -19.984375 25.015625 -18.460938 C 25.175781 -17.980469 25.453125 -17.296875 25.855469 -16.414062 C 27.660156 -13.128906 30.445312 -10.402344 34.214844 -8.238281 C 35.898438 -7.277344 37.5625 -6.59375 39.203125 -6.195312 C 47.101562 -4.347656 52.171875 -3.425781 54.417969 -3.425781 C 55.460938 -3.425781 56.480469 -3.546875 57.484375 -3.789062 C 57.964844 -3.867188 58.667969 -4.109375 59.589844 -4.507812 C 59.789062 -6.074219 59.890625 -6.855469 59.890625 -6.855469 C 59.890625 -7.417969 59.628906 -7.796875 59.109375 -7.996094 C 58.386719 -8.238281 57.90625 -8.558594 57.664062 -8.960938 C 57.265625 -9.601562 57.242188 -10.84375 57.605469 -12.6875 C 57.605469 -12.6875 57.605469 -15.875 57.605469 -22.25 C 57.363281 -24.574219 57.023438 -26.398438 56.582031 -27.71875 C 56.34375 -27.921875 56.019531 -28.300781 55.621094 -28.863281 C 54.9375 -30.988281 53.476562 -32.351562 51.230469 -32.953125 C 50.308594 -33.191406 48.34375 -33.351562 45.339844 -33.433594 C 45.21875 -33.511719 45.039062 -33.652344 44.796875 -33.851562 L 44.796875 -35.417969 C 45.800781 -35.738281 47.441406 -35.898438 49.726562 -35.898438 C 49.886719 -35.898438 51.289062 -35.789062 53.9375 -35.566406 C 56.582031 -35.347656 57.984375 -35.234375 58.144531 -35.234375 C 58.347656 -35.234375 58.6875 -35.328125 59.167969 -35.507812 C 59.648438 -35.6875 60.011719 -35.796875 60.25 -35.835938 C 62.695312 -36.039062 64.058594 -36.136719 64.339844 -36.136719 C 69.992188 -36.136719 72.398438 -36.117188 71.554688 -36.078125 L 71.554688 -33.492188 C 71.554688 -33.371094 71.375 -32.953125 71.011719 -32.230469 C 70.574219 -31.386719 70.3125 -30.804688 70.230469 -30.484375 C 69.550781 -27.71875 69.148438 -24.914062 69.027344 -22.066406 C 68.867188 -18.460938 68.789062 -15.972656 68.789062 -14.613281 C 68.789062 -11.84375 69.089844 -8.039062 69.691406 -3.1875 C 67.847656 -2.226562 63.015625 -0.941406 55.199219 0.660156 C 54.558594 0.621094 53.574219 0.660156 52.253906 0.78125 C 50.449219 1.183594 49.1875 1.382812 48.464844 1.382812 C 48.265625 1.382812 47.964844 1.324219 47.5625 1.203125 C 47.160156 1.082031 46.882812 1.023438 46.722656 1.023438 C 42.59375 0.820312 39.164062 0.480469 36.4375 0 C 35.398438 -0.402344 33.851562 -0.902344 31.808594 -1.503906 C 27.761719 -2.304688 23.289062 -4.871094 18.398438 -9.199219 C 13.308594 -13.730469 10.183594 -18.078125 9.019531 -22.25 C 8.660156 -23.171875 8.199219 -24.554688 7.636719 -26.398438 C 7.316406 -27 6.894531 -27.898438 6.375 -29.101562 C 5.894531 -31.066406 5.652344 -32.730469 5.652344 -34.09375 C 5.652344 -33.972656 5.753906 -34.714844 5.953125 -36.320312 C 6.152344 -37.679688 6.171875 -38.644531 6.011719 -39.203125 C 5.851562 -39.847656 5.773438 -40.527344 5.773438 -41.25 C 5.773438 -42.613281 6.113281 -44.554688 6.792969 -47.082031 C 7.597656 -50.207031 8.078125 -52.3125 8.238281 -53.394531 C 12.167969 -60.492188 14.550781 -64.039062 15.394531 -64.039062 C 15.554688 -64.039062 15.675781 -63.96875 15.753906 -63.828125 C 15.835938 -63.6875 15.972656 -63.617188 16.175781 -63.617188 C 16.855469 -63.617188 17.398438 -63.777344 17.796875 -64.097656 C 17.957031 -64.578125 18.28125 -65.242188 18.761719 -66.082031 C 22.488281 -70.210938 24.753906 -72.277344 25.554688 -72.277344 C 25.753906 -72.277344 25.894531 -72.234375 25.976562 -72.15625 C 26.054688 -72.074219 26.175781 -72.035156 26.335938 -72.035156 C 26.496094 -72.035156 26.929688 -72.304688 27.628906 -72.847656 C 28.332031 -73.390625 28.78125 -73.660156 28.984375 -73.660156 C 29.144531 -73.660156 29.375 -73.578125 29.675781 -73.417969 C 29.976562 -73.257812 30.207031 -73.179688 30.367188 -73.179688 C 30.566406 -73.179688 32.351562 -73.597656 35.71875 -74.441406 C 39.085938 -75.28125 40.867188 -75.703125 41.070312 -75.703125 L 56.523438 -75.703125 C 56.722656 -75.703125 58.566406 -75.511719 62.054688 -75.132812 C 65.542969 -74.75 67.386719 -74.5625 67.585938 -74.5625 C 67.667969 -74.5625 68.378906 -74.5625 69.722656 -74.5625 C 71.0625 -74.5625 72.035156 -74.5625 72.636719 -74.5625 Z M 72.636719 -74.5625 "/></g></g></g><path stroke-linecap="butt" transform="matrix(0.543309, 0, 0, 0.543309, 219.474009, 205.655149)" fill="none" stroke-linejoin="miter" d="M 33.494529 24.734747 C 33.365114 25.561568 33.214129 26.546563 33.034385 27.696922 L 33.034385 35.253343 C 32.926539 35.253343 32.732416 35.282102 32.452016 35.34681 C 32.171616 35.411518 31.970303 35.447466 31.862457 35.447466 C 31.819318 35.274913 31.646765 33.980759 31.344795 31.572194 C 31.172242 30.184574 30.532354 29.120491 29.425134 28.379948 C 28.943421 28.03484 27.821821 28.056409 26.038764 28.444656 C 25.147236 28.530932 23.867461 28.739435 22.199441 29.062974 C 21.609882 29.264286 21.243205 29.630963 21.09222 30.170194 C 20.725543 31.565005 20.682405 33.570943 20.977184 36.1952 C 21.271964 38.819456 21.192877 42.435898 20.732733 47.030144 C 20.732733 47.008575 20.876528 48.511232 21.156928 51.523735 C 21.070651 52.566247 21.049082 54.126422 21.09222 56.211448 C 21.329482 57.318668 21.674589 59.001069 22.134733 61.258648 C 22.350425 62.3443 23.076589 63.034515 24.313226 63.336484 C 25.3126 63.580936 26.311974 63.803818 27.311349 64.0267 C 27.311349 64.350238 27.059708 64.824761 26.556426 65.457459 L 8.107542 65.457459 C 7.927798 65.457459 7.841521 65.328043 7.841521 65.062023 C 7.841521 64.997315 7.855901 64.824761 7.87747 64.544361 C 8.546116 64.393377 9.538301 64.077028 10.839645 63.602505 C 11.968435 62.991377 12.802445 62.265212 13.341676 61.416823 C 13.49985 61.179561 13.650835 60.201756 13.801819 58.490597 C 13.888096 55.492473 13.995943 52.357745 14.125358 49.086411 L 14.125358 37.367128 L 15.002507 37.367128 C 15.045645 37.345559 15.124732 37.244902 15.232579 37.072349 C 14.930609 36.360564 14.556743 35.325241 14.125358 33.980759 C 14.082219 33.721928 13.909666 32.061097 13.607696 28.998266 L 7.582691 28.998266 C 6.957183 28.998266 6.173501 29.350563 5.238834 30.040779 C 4.304167 30.738184 3.800885 31.298984 3.707419 31.737558 C 3.254465 33.66441 2.8087 35.001702 2.377316 35.735056 C 2.161623 36.108923 1.672721 36.288666 0.910608 36.288666 C 0.910608 36.20239 0.86747 35.936369 0.781193 35.476225 C 0.716485 35.087979 0.702105 34.807579 0.745244 34.635025 C 1.011264 33.743497 1.255716 32.363066 1.500167 30.500922 C 1.780567 28.243343 1.996259 26.719117 2.147244 25.942625 C 2.147244 25.942625 2.492352 25.482481 3.189757 24.576573 C 2.53549 24.511865 4.527049 24.475917 9.142865 24.475917 C 10.494537 24.475917 12.536424 24.598142 15.282907 24.835404 C 18.029389 25.072665 19.345112 25.194891 19.237266 25.194891 L 24.608005 25.194891 C 24.586436 25.194891 25.233513 25.087045 26.556426 24.864163 C 27.994375 24.648471 29.367616 24.511865 30.690529 24.447158 C 31.193811 24.38245 31.689903 24.310553 32.193185 24.245845 C 32.840262 24.181137 33.278837 24.346501 33.494529 24.734747 Z M 78.926523 24.770696 C 78.926523 25.007958 78.797107 25.22365 78.538277 25.417773 C 77.625179 25.662225 76.848687 25.985763 76.19442 26.395578 C 75.827743 26.63284 75.389169 27.136122 74.878697 27.891045 C 74.368225 28.653158 74.109394 29.228338 74.109394 29.616584 C 74.109394 31.572194 74.130963 32.341497 74.174102 31.931681 C 74.001548 32.449343 73.807425 33.211456 73.591733 34.21083 C 73.591733 34.469661 73.735527 35.584072 74.015927 37.561251 C 74.102204 38.237087 74.145343 39.114236 74.145343 40.199887 C 74.145343 41.479662 74.073445 43.032647 73.929651 44.866031 C 73.793045 46.699416 73.721148 47.554996 73.721148 47.42558 L 73.721148 52.242709 C 73.721148 57.146115 74.296327 60.539674 75.446687 62.430577 C 75.662379 62.797254 76.144092 63.17831 76.877446 63.566556 C 77.617989 63.961992 78.243497 64.177684 78.768348 64.220823 C 78.638933 64.436515 78.394482 64.760054 78.049374 65.198628 L 62.850255 65.198628 C 62.850255 65.062023 62.814306 64.8679 62.749598 64.59469 C 62.684891 64.321479 62.656132 64.134546 62.656132 64.0267 C 63.130655 63.803818 63.81368 63.480279 64.705209 63.048895 C 65.381045 62.718166 66.006552 61.725982 66.596111 60.050771 C 67.092204 58.598443 67.343845 57.462463 67.343845 56.635643 L 67.343845 51.883222 C 67.343845 51.559683 67.264758 50.668155 67.113773 49.215827 C 67.005927 48.108606 67.005927 47.217078 67.113773 46.541242 C 67.20005 46.045149 67.013117 45.19676 66.560163 44.003262 C 65.496081 44.786944 63.892768 45.376503 61.743034 45.764749 C 60.614244 45.980442 59.636439 46.02358 58.816808 45.894165 C 57.688018 45.700042 57.09127 45.599385 57.026562 45.599385 L 48.823064 45.599385 C 48.319782 45.879785 47.679894 46.404637 46.903402 47.16675 C 46.572674 47.684411 46.464828 48.424955 46.572674 49.374001 C 46.752417 49.747868 46.94654 50.279909 47.162233 50.970124 C 47.097525 50.668155 47.018438 51.264904 46.932161 52.760371 C 46.910592 52.868217 46.989679 54.572186 47.162233 57.872279 C 47.334787 61.431202 48.564233 63.429951 50.836192 63.861336 C 50.929659 63.882905 51.389802 64.055459 52.238192 64.378997 C 51.504838 65.184249 50.663638 65.586874 49.736161 65.586874 C 49.470141 65.586874 49.160982 65.550926 48.787115 65.486218 C 48.35573 65.42151 48.08252 65.392751 47.974674 65.392751 L 35.14817 65.198628 C 35.169739 64.803192 35.673021 64.414946 36.650827 64.0267 C 37.801186 63.544987 38.678335 62.840392 39.282273 61.905725 C 39.742417 61.193941 40.044386 59.849458 40.195371 57.872279 C 40.367924 55.808822 40.389494 54.054525 40.260078 52.602196 C 40.173801 52.422453 40.044386 52.185191 39.871832 51.883222 C 39.850263 50.215201 39.943729 47.72755 40.166612 44.427457 C 40.188181 44.319611 40.303217 43.974503 40.518909 43.384944 C 40.720222 42.888852 40.806499 42.479036 40.78493 42.148308 C 40.540478 41.781631 40.238509 41.141744 39.871832 40.228646 C 39.93654 40.487477 40.008437 39.775692 40.101904 38.078913 C 40.123473 37.733805 40.080335 37.223333 39.986868 36.554687 C 39.886212 35.878851 39.835883 35.497795 39.835883 35.411518 L 39.835883 30.170194 C 39.835883 29.479979 39.346981 28.645968 38.376365 27.668163 C 37.39856 26.690358 36.427945 26.050471 35.478898 25.748501 C 35.500468 25.705363 35.737729 25.331496 36.190683 24.641281 C 36.974365 24.619712 38.189432 24.540624 39.835883 24.411209 C 41.403248 24.281794 42.215689 24.217086 42.280396 24.217086 L 48.463576 24.217086 C 48.743976 24.217086 49.038756 24.181137 49.340725 24.116429 C 49.642694 24.051722 49.851197 24.022963 49.959043 24.022963 C 50.397618 24.022963 51.152541 24.447158 52.238192 25.288358 C 51.476079 25.662225 50.721156 26.036091 49.959043 26.431527 C 49.024376 26.927619 48.341351 27.48123 47.909966 28.092358 C 47.212561 29.041404 46.867453 30.831651 46.867453 33.463097 L 46.867453 40.422769 C 46.867453 40.559375 46.903402 40.69598 46.96811 40.846964 C 47.032817 40.997949 47.061576 41.120175 47.061576 41.206452 C 48.08252 41.659405 48.952479 41.889477 49.664264 41.889477 L 62.591424 41.889477 C 63.044378 41.954185 63.720214 42.09798 64.604552 42.313672 C 64.626121 42.313672 64.920901 42.443088 65.488891 42.701918 C 65.920275 42.896041 66.258193 42.996698 66.495455 42.996698 C 66.64644 42.996698 66.775855 42.975129 66.883701 42.93199 C 67.581106 42.10517 67.926214 41.105795 67.926214 39.933867 C 67.926214 39.351498 67.811178 38.503108 67.566727 37.395887 C 67.329465 36.288666 67.221619 35.519364 67.243188 35.087979 C 67.243188 34.742871 67.178481 34.059846 67.049065 33.038902 C 66.898081 31.845405 66.811804 30.997015 66.790234 30.500922 C 66.682388 28.394327 65.071886 26.517804 61.973106 24.864163 C 62.382921 24.432778 62.69927 24.217086 62.914962 24.217086 L 67.76804 24.217086 C 67.48045 24.217086 68.386358 24.195517 70.464194 24.152378 C 72.290389 24.087671 73.685199 24.073291 74.663004 24.116429 C 75.64081 24.267414 77.064379 24.490296 78.926523 24.770696 Z M 116.456988 54.615325 C 116.39228 55.744114 116.248485 57.340238 116.032793 59.403694 C 115.773962 59.964494 115.443234 60.755366 115.054988 61.77631 C 114.968711 62.214884 114.803347 62.818823 114.566085 63.602505 C 114.479808 63.839766 114.199408 64.242392 113.717695 64.803192 C 113.156895 65.500597 112.703941 65.845705 112.351644 65.845705 L 104.054679 65.845705 C 103.903694 65.845705 102.925889 65.816946 101.121263 65.745049 C 99.323827 65.680341 98.346022 65.651582 98.195037 65.651582 L 93.183786 65.651582 C 93.05437 65.651582 92.385724 65.594064 91.177847 65.471838 C 89.97716 65.349613 89.301324 65.292095 89.143149 65.292095 L 84.232554 65.292095 L 83.808359 64.839141 C 84.045621 64.529982 84.994667 63.882905 86.641118 62.88353 C 87.769908 62.171746 88.330708 61.301787 88.330708 60.280843 L 88.330708 49.992319 C 88.330708 48.324298 88.596729 46.081098 89.11439 43.255529 C 88.83399 42.392759 88.776472 41.307108 88.949026 40.005764 C 88.56078 39.675036 88.366657 39.222082 88.366657 38.632523 C 88.366657 38.589385 88.582349 37.705046 89.013734 35.965128 C 89.035303 35.814143 88.927457 35.512174 88.690195 35.05203 C 88.388226 34.5128 88.222862 34.2324 88.201293 34.21083 C 88.050308 33.750687 87.985601 33.038902 88.00717 32.061097 C 88.00717 30.716615 88.00717 29.976071 88.00717 29.846656 C 87.942462 29.106112 87.791477 28.509363 87.554216 28.056409 C 87.223488 27.430902 86.691447 26.927619 85.958093 26.560943 C 85.303826 26.280543 84.656749 25.985763 84.002482 25.683794 C 84.304451 24.964819 84.63518 24.583763 84.980287 24.540624 C 85.656123 24.626901 86.619549 24.648471 87.877754 24.605332 C 89.265375 24.281794 89.941211 24.116429 89.898072 24.116429 L 95.657058 24.116429 C 95.743335 24.116429 96.397601 24.195517 97.627048 24.346501 C 98.849304 24.497486 99.776781 24.583763 100.409479 24.605332 C 100.668309 24.605332 102.839612 24.468727 106.916197 24.181137 C 107.850864 24.116429 110.295377 24.181137 114.242546 24.38245 C 114.587654 24.619712 114.760208 24.907301 114.760208 25.259599 C 114.760208 25.453722 114.6955 25.734122 114.551705 26.100799 C 114.407911 26.474666 114.336013 26.740686 114.336013 26.92043 C 114.314444 27.632214 114.091562 29.99764 113.652987 34.016707 C 113.58828 34.146123 113.279121 34.347436 112.711131 34.635025 C 112.581716 34.412143 112.17909 33.254594 111.510444 31.147999 C 111.071869 29.781948 110.273808 29.034215 109.101879 28.904799 C 108.620166 28.796953 108.131264 28.689107 107.635172 28.581261 C 106.959336 28.423086 106.441674 28.401517 106.074997 28.509363 C 105.118761 28.796953 103.048115 28.825712 99.855868 28.61002 C 98.094381 28.480604 96.771468 28.509363 95.887129 28.710676 C 95.621109 28.775384 95.448555 29.019835 95.362278 29.458409 C 96.14596 31.996389 96.174719 34.239589 95.462935 36.1952 C 95.506073 36.065784 95.527642 36.605015 95.527642 37.820082 C 95.527642 38.122051 95.470124 38.754749 95.362278 39.710985 C 95.254432 40.487477 95.232863 41.120175 95.29757 41.594698 C 95.31914 41.81758 95.527642 42.09798 95.915888 42.443088 L 108.188782 42.443088 C 108.577028 42.313672 108.958084 42.184257 109.324761 42.054841 C 109.93589 41.839149 110.360085 41.501231 110.597346 41.041087 C 110.813038 40.480287 111.215664 39.696605 111.798033 38.697231 C 112.495439 38.697231 112.941203 38.941682 113.135326 39.416205 C 113.049049 40.652841 112.962772 42.234585 112.876495 44.168626 C 112.854926 45.448401 112.703941 47.324924 112.416351 49.798196 C 112.330075 50.172063 111.89869 50.287099 111.115008 50.157683 C 110.834608 49.640022 110.338515 48.956996 109.619541 48.108606 C 108.296628 47.109232 107.088751 46.613139 106.010289 46.613139 L 101.516699 46.613139 C 101.236299 46.613139 100.682689 46.555621 99.855868 46.447775 C 99.029048 46.339929 98.41073 46.282411 98.000914 46.282411 C 96.850555 46.282411 96.124391 46.620329 95.822422 47.296165 C 95.470124 48.051088 95.29757 48.640647 95.29757 49.050463 C 95.29757 49.438709 95.376658 50.179252 95.527642 51.264904 C 95.678627 52.350555 95.743335 53.184565 95.721765 53.774124 C 95.700196 54.076094 95.59954 54.644084 95.412606 55.478094 C 95.225673 56.312104 95.132206 56.973561 95.132206 57.448084 C 95.132206 57.814761 95.182535 58.152679 95.268811 58.454648 C 95.419796 58.979499 96.009355 59.605007 97.037489 60.345551 C 98.072812 61.086094 98.95715 61.5031 99.690504 61.618135 C 99.79835 61.661274 99.906196 61.704412 100.021232 61.747551 C 100.236925 61.812259 100.431048 61.841018 100.603602 61.841018 L 106.010289 61.841018 C 107.225356 61.841018 108.23911 61.646894 109.065931 61.258648 C 110.21629 60.733797 111.3307 59.871028 112.416351 58.655961 C 113.609849 57.304289 114.249736 56.024514 114.336013 54.809448 C 114.904003 54.442771 115.608598 54.378063 116.456988 54.615325 Z M 116.456988 54.615325 " stroke="#ffffff" stroke-width="2.500001" stroke-opacity="1" stroke-miterlimit="4"/><path stroke-linecap="butt" transform="matrix(0.543309, 0, 0, 0.543309, 316.879064, 367.832732)" fill="none" stroke-linejoin="miter" d="M 60.084403 57.042141 C 60.084403 58.623885 60.041265 59.831762 59.954988 60.665772 C 59.681777 61.305659 59.386998 62.290654 59.077839 63.627947 C 59.027511 64.958049 58.732731 66.374429 58.20788 67.877085 C 57.762116 68.430696 57.107849 69.336604 56.24508 70.580429 C 56.022198 71.41444 55.411069 72.607937 54.411695 74.168112 C 53.606444 74.973363 52.384187 76.224379 50.744925 77.913968 C 50.500474 78.000245 50.176936 78.136851 49.788689 78.330974 C 49.429202 78.668892 48.789315 79.150604 47.876217 79.790492 C 43.317919 82.206246 38.982504 83.586677 34.87716 83.917405 L 29.377005 83.917405 C 29.427334 83.917405 29.319487 83.831128 29.039087 83.665764 C 26.040964 83.586677 23.790574 83.169671 22.287918 82.414748 C 21.899671 82.335661 21.37482 82.191866 20.706174 81.997743 C 19.598953 81.559169 17.930933 80.761107 15.709302 79.625128 C 13.041906 77.928348 10.539875 75.541353 8.210398 72.456953 C 6.901865 70.738604 5.751506 68.516973 4.752131 65.79206 C 3.803085 63.26127 3.278234 61.140295 3.163198 59.414757 C 2.969075 56.474151 3.084111 53.583874 3.501116 50.751115 C 3.66648 50.391627 3.889362 49.873966 4.169762 49.212509 C 4.335126 48.378499 4.622716 47.170622 5.039721 45.581689 C 5.650849 44.611073 6.456101 43.194693 7.455475 41.33255 C 7.59927 41.03058 7.663978 40.671093 7.663978 40.254088 C 7.807773 40.110293 8.080983 40.153432 8.497988 40.376314 C 8.641783 39.988068 8.641783 39.434457 8.497988 38.708293 C 8.857475 38.600447 9.375137 38.363185 10.043783 38.003698 C 10.266665 37.421329 10.791517 36.709544 11.625527 35.875534 C 13.293548 34.991195 15.802768 33.682662 19.167569 31.957123 C 20.030338 31.540118 21.123179 31.180631 22.460471 30.878662 C 25.846841 30.102169 28.154749 29.713923 29.377005 29.713923 L 32.62677 29.713923 C 35.15037 29.713923 37.314483 29.943995 39.126299 30.418518 C 40.096914 30.698918 42.232268 31.47541 45.53955 32.755185 C 46.236956 33.193759 47.329797 33.891164 48.832453 34.833021 C 50.996566 36.220642 52.973746 38.125924 54.749613 40.541678 C 56.331357 42.712981 57.35949 44.71173 57.834013 46.545114 C 58.049705 46.847084 58.330105 47.307227 58.660834 47.918355 C 59.271962 49.586376 59.624259 52.059648 59.703347 55.330982 C 59.703347 55.446018 59.768054 55.704848 59.89028 56.107474 C 60.019695 56.5101 60.084403 56.819259 60.084403 57.042141 Z M 50.831202 58.127792 C 50.579561 54.626387 49.903725 51.43414 48.789315 48.543863 C 47.372935 44.819576 45.704915 41.89335 43.792443 39.750806 C 41.06753 36.752683 38.098165 34.991195 34.87716 34.459154 C 31.821518 33.963062 29.722113 33.790508 28.578944 33.963062 C 26.357313 34.236272 24.4736 34.725175 22.913425 35.41539 C 22.719302 35.501667 21.453907 36.235021 19.12443 37.629831 C 18.987825 37.903042 18.736184 38.24096 18.376697 38.629206 C 18.153815 38.679534 17.902174 38.765811 17.621774 38.873657 C 17.068163 39.599821 16.377948 40.570437 15.543937 41.792693 C 15.428902 42.123422 15.249158 42.597945 14.997517 43.209073 C 14.580512 43.877719 14.134748 44.668591 13.667414 45.581689 C 13.415773 46.609822 13.027527 48.155617 12.502676 50.211884 C 12.524245 50.988376 12.509865 52.167494 12.459537 53.749238 C 12.459537 53.835515 12.402019 54.015259 12.294173 54.295659 C 12.179137 54.568869 12.135999 54.762992 12.164758 54.878028 C 12.553004 56.682654 13.113804 59.184685 13.832778 62.376931 C 13.746501 62.599813 13.696173 62.858644 13.667414 63.167803 C 13.861537 63.556049 14.134748 64.080901 14.501425 64.749547 C 14.530184 65.109034 14.609271 65.583557 14.745876 66.165926 C 15.917804 68.502593 16.528932 69.696091 16.579261 69.753609 C 17.413271 71.191558 18.55644 72.571988 20.001579 73.873332 C 20.030338 73.902091 20.210081 74.470081 20.54081 75.584491 C 20.648656 75.61325 21.123179 75.692337 21.957189 75.836132 C 23.316051 77.087148 24.358564 77.928348 25.084728 78.374112 C 27.140995 79.596369 30.858093 79.970235 36.250401 79.502902 C 36.696165 79.359107 37.278534 79.179363 37.997509 78.956481 C 38.917796 78.762358 40.233519 78.302215 41.959058 77.58324 C 42.347304 77.223753 42.857776 76.792368 43.497663 76.289086 C 46.272904 74.570737 47.926546 72.442573 48.458587 69.918973 C 48.731797 69.581055 49.069715 69.113721 49.457961 68.502593 C 49.515479 67.970552 49.594566 67.345044 49.709602 66.62607 C 49.874966 66.460706 50.04033 66.194685 50.205694 65.835198 C 50.263212 65.195311 50.399818 63.80769 50.6227 61.665146 C 50.816823 59.946798 50.88872 58.76768 50.831202 58.127792 Z M 105.99092 31.252528 C 106.242561 32.561062 106.163474 36.235021 105.746469 42.295975 C 105.71771 42.763309 105.358223 43.324109 104.660817 43.956806 C 104.552971 43.985565 104.092828 43.999945 103.287576 43.999945 C 103.122212 42.029955 102.91371 40.642334 102.662068 39.837083 C 102.130027 38.197821 101.22412 37.191257 99.929966 36.81739 C 98.643001 36.436334 95.824622 36.249401 91.496396 36.249401 L 84.241944 36.249401 C 82.883082 36.249401 82.207246 37.572314 82.207246 40.21095 C 82.207246 39.880221 82.343851 41.33255 82.617062 44.582314 C 82.674579 45.279719 82.581113 46.415699 82.329472 48.004632 C 82.049072 49.75174 81.912467 51.031515 81.912467 51.836766 C 81.912467 53.087782 82.135349 54.123105 82.581113 54.957115 L 88.081267 54.957115 C 88.189113 54.957115 88.642067 55.036202 89.432939 55.187187 C 90.223811 55.338172 90.719903 55.417259 90.914026 55.417259 L 96.241627 55.417259 C 98.247566 55.417259 99.980294 54.374746 101.454191 52.28972 C 101.562038 51.872715 101.756161 51.290346 102.036561 50.542612 C 102.33853 50.290971 102.949658 50.183125 103.869946 50.211884 C 104.006551 51.067463 104.135966 52.318479 104.243812 53.957741 C 104.164725 55.95649 103.826807 59.918039 103.244438 65.835198 C 103.158161 66.61169 102.453566 66.942419 101.116273 66.834573 C 100.871822 65.698593 100.620181 64.555424 100.36854 63.419444 C 99.922776 62.003064 99.117525 61.111536 97.952786 60.752049 C 97.255381 60.557926 95.537032 60.457269 92.78336 60.457269 L 86.621749 60.457269 C 86.341349 60.622634 85.672703 60.680151 84.623 60.622634 C 83.673954 60.572305 83.019687 60.795187 82.6602 61.29128 C 82.688959 61.959926 82.645821 62.944921 82.537974 64.253454 C 82.509215 64.497906 82.300713 65.331916 81.912467 66.748296 C 81.603308 67.776429 81.481082 68.610439 81.5386 69.250327 C 81.732723 69.609814 81.926846 70.141855 82.120969 70.83207 C 82.120969 71.335352 82.070641 72.097465 81.977174 73.125599 C 81.876518 74.153732 81.82619 74.915845 81.82619 75.419127 C 81.82619 77.58324 82.581113 79.28002 84.07658 80.502276 C 84.105339 80.531035 86.161605 81.336287 90.24538 82.91803 C 89.720529 83.557918 89.023124 83.888646 88.160354 83.917405 C 89.828375 83.888646 89.023124 83.831128 85.7446 83.752041 C 83.192241 83.694523 80.007184 83.557918 76.20381 83.335036 C 74.176302 83.248759 72.853389 83.263138 72.242261 83.378174 C 71.882773 83.593866 71.386681 83.845507 70.746794 84.125907 C 70.775553 84.125907 69.73304 83.903025 67.619255 83.457261 C 67.784619 82.961169 68.438886 82.306902 69.582055 81.501651 C 70.718035 80.696399 71.401061 80.099651 71.623943 79.711405 C 72.652076 77.762984 73.162548 75.943979 73.162548 74.247199 L 73.162548 64.253454 C 73.162548 64.275024 73.126599 63.311598 73.054702 61.355987 C 72.989994 59.393187 72.954045 57.91929 72.954045 56.919915 C 72.954045 57.05652 72.982804 56.567618 73.040322 55.460397 C 73.09065 54.683905 73.076271 54.015259 72.997184 53.461648 C 72.910907 52.656397 72.702404 51.973371 72.371676 51.419761 C 73.342291 50.03214 73.831194 48.392879 73.831194 46.501976 C 73.831194 44.611073 73.342291 42.46134 72.371676 40.045586 C 72.371676 39.542303 72.342917 38.873657 72.285399 38.046837 C 72.25664 37.572314 72.177553 37.184067 72.040948 36.874908 C 71.480148 35.71017 70.660517 34.610139 69.582055 33.582005 C 69.272896 33.280036 68.568301 33.071534 67.453891 32.963687 C 67.231009 32.654528 67.151922 32.086539 67.20225 31.252528 C 67.065645 31.252528 68.970927 31.20939 72.910907 31.130303 C 79.050948 31.044026 88.411995 30.943369 100.994048 30.835523 C 102.245063 30.835523 103.913084 30.972128 105.99092 31.252528 Z M 105.99092 31.252528 " stroke="#ffffff" stroke-width="3.199999" stroke-opacity="1" stroke-miterlimit="4"/><path stroke-linecap="butt" transform="matrix(0.543309, 0, 0, 0.543309, 390.129798, 367.832732)" fill="none" stroke-linejoin="miter" d="M 42.870804 31.461031 C 42.705439 32.517923 42.511316 33.776129 42.288434 35.250026 L 42.288434 44.920232 C 42.151829 44.920232 41.900188 44.963371 41.540701 45.042458 C 41.181214 45.128735 40.929573 45.164683 40.792967 45.164683 C 40.73545 44.948991 40.512567 43.29535 40.124321 40.21095 C 39.901439 38.435083 39.081808 37.069031 37.665429 36.127175 C 37.0543 35.681411 35.609162 35.71017 33.330013 36.213452 C 32.194033 36.321298 30.554772 36.587319 28.412228 37.004324 C 27.664494 37.248775 27.189971 37.723298 26.995848 38.420703 C 26.528515 40.19657 26.478187 42.763309 26.852053 46.128109 C 27.22592 49.48572 27.125264 54.108725 26.542894 60.004316 C 26.542894 59.975557 26.722638 61.888029 27.082125 65.748921 C 26.974279 67.086214 26.94552 69.084963 26.995848 71.752358 C 27.305007 73.168737 27.750771 75.318471 28.333141 78.208748 C 28.613541 79.596369 29.541018 80.487897 31.122761 80.876143 C 32.402536 81.178112 33.68231 81.472892 34.954895 81.753292 C 34.954895 82.163107 34.638546 82.774236 33.998659 83.586677 L 10.37316 83.586677 C 10.150278 83.586677 10.042431 83.414123 10.042431 83.083395 C 10.042431 82.997118 10.056811 82.774236 10.08557 82.414748 C 10.941149 82.220625 12.206544 81.818 13.874565 81.206871 C 15.319704 80.430379 16.390976 79.502902 17.081191 78.417251 C 17.275314 78.108092 17.469437 76.864266 17.66356 74.664204 C 17.778596 70.83207 17.915201 66.820193 18.080565 62.628572 L 18.080565 47.623576 L 19.209355 47.623576 C 19.259683 47.602007 19.36034 47.472591 19.496945 47.249709 C 19.108699 46.336612 18.641365 45.013699 18.080565 43.29535 C 18.030237 42.957432 17.807355 40.836457 17.419109 36.918047 L 9.704513 36.918047 C 8.899262 36.918047 7.899888 37.363811 6.70639 38.255339 C 5.512892 39.139678 4.858626 39.865842 4.75078 40.419452 C 4.16841 42.892724 3.600421 44.596694 3.03962 45.54574 C 2.76641 46.013073 2.140902 46.250335 1.163097 46.250335 C 1.163097 46.142489 1.112769 45.790191 0.997733 45.207822 C 0.918646 44.71173 0.904266 44.352242 0.961784 44.12936 C 1.292513 42.986191 1.608861 41.224704 1.91802 38.837708 C 2.277508 35.947431 2.557908 33.999011 2.752031 32.999636 C 2.752031 32.999636 3.197795 32.417267 4.082133 31.252528 C 3.248123 31.166251 5.793292 31.130303 11.710452 31.130303 C 13.428801 31.130303 16.045868 31.281287 19.561653 31.583257 C 23.077438 31.892416 24.759838 32.0434 24.623233 32.0434 L 31.496628 32.0434 C 31.467869 32.0434 32.30188 31.906795 33.998659 31.626395 C 35.832044 31.345995 37.593531 31.166251 39.290311 31.087164 C 39.930198 31.000887 40.570085 30.9218 41.209973 30.835523 C 42.036793 30.749246 42.597593 30.957749 42.870804 31.461031 Z M 101.035834 31.504169 C 101.035834 31.806139 100.87047 32.086539 100.539742 32.33818 C 99.367814 32.640149 98.368439 33.057154 97.534429 33.582005 C 97.067096 33.891164 96.499106 34.531052 95.852029 35.501667 C 95.197762 36.472283 94.867034 37.212826 94.867034 37.708919 C 94.867034 40.21095 94.895793 41.195945 94.953311 40.671093 C 94.730429 41.33255 94.478788 42.310355 94.205577 43.58294 C 94.205577 43.920858 94.385321 45.351617 94.744808 47.875217 C 94.859844 48.737986 94.910172 49.859586 94.910172 51.254397 C 94.910172 52.893658 94.823895 54.885218 94.644152 57.229074 C 94.457219 59.580121 94.370942 60.665772 94.370942 60.500408 L 94.370942 66.669208 C 94.370942 72.945855 95.104295 77.288461 96.578193 79.711405 C 96.858593 80.178738 97.469721 80.66764 98.411578 81.163733 C 99.353434 81.667015 100.158686 81.947415 100.827332 81.997743 C 100.661968 82.278143 100.352809 82.695148 99.914234 83.248759 L 80.451597 83.248759 C 80.451597 83.083395 80.415648 82.824564 80.329371 82.479456 C 80.243094 82.134348 80.207145 81.889897 80.207145 81.753292 C 80.818274 81.472892 81.688233 81.055887 82.831402 80.502276 C 83.686982 80.085271 84.492233 78.805497 85.247156 76.670143 C 85.887043 74.807999 86.203392 73.348481 86.203392 72.291588 L 86.203392 66.209065 C 86.203392 65.79206 86.109925 64.65608 85.915802 62.793936 C 85.772007 61.377557 85.772007 60.234387 85.915802 59.378808 C 86.023649 58.738921 85.786387 57.653269 85.204018 56.129043 C 83.845156 57.128418 81.788889 57.876151 79.035217 58.379433 C 77.590079 58.652644 76.346253 58.710162 75.28936 58.544797 C 73.844222 58.293156 73.082109 58.170931 72.995832 58.170931 L 62.498805 58.170931 C 61.858918 58.530418 61.039287 59.191874 60.039913 60.16968 C 59.622908 60.831136 59.486303 61.780182 59.622908 63.002439 C 59.84579 63.469772 60.097431 64.152798 60.370641 65.044326 C 60.291554 64.65608 60.190897 65.418193 60.083051 67.330665 C 60.054292 67.47446 60.147759 69.652952 60.370641 73.873332 C 60.593523 78.43163 62.160887 80.983989 65.079924 81.544789 C 65.18777 81.566359 65.791708 81.789241 66.87017 82.206246 C 65.928313 83.234379 64.857041 83.752041 63.663544 83.752041 C 63.332816 83.752041 62.93019 83.708902 62.455667 83.622625 C 61.902057 83.543538 61.549759 83.5004 61.413154 83.5004 L 44.998968 83.248759 C 45.027727 82.752666 45.660424 82.249384 46.91144 81.753292 C 48.385337 81.142164 49.514127 80.236256 50.29062 79.042758 C 50.872989 78.122471 51.261235 76.404122 51.455358 73.873332 C 51.67824 71.234696 51.706999 68.984306 51.541635 67.122162 C 51.426599 66.90647 51.261235 66.597311 51.038353 66.209065 C 51.009594 64.073711 51.139009 60.888654 51.41222 56.668274 C 51.440979 56.531669 51.591963 56.085905 51.872363 55.330982 C 52.124004 54.698284 52.231851 54.166243 52.203092 53.749238 C 51.901122 53.281905 51.512876 52.462274 51.038353 51.290346 C 51.12463 51.628263 51.218097 50.707976 51.333133 48.543863 C 51.354702 48.098099 51.311563 47.443832 51.182148 46.588253 C 51.059922 45.725483 50.995215 45.236581 50.995215 45.128735 L 50.995215 38.420703 C 50.995215 37.529175 50.369707 36.457903 49.118691 35.206888 C 47.874866 33.963062 46.63823 33.143431 45.415973 32.755185 C 45.444732 32.697667 45.746701 32.223144 46.329071 31.338805 C 47.328445 31.310046 48.888619 31.20939 50.995215 31.044026 C 52.993963 30.878662 54.036476 30.792385 54.122753 30.792385 L 62.038662 30.792385 C 62.398149 30.792385 62.772016 30.749246 63.160262 30.670159 C 63.555698 30.583882 63.814529 30.540744 63.958323 30.540744 C 64.511934 30.540744 65.482549 31.087164 66.87017 32.165626 C 65.899554 32.640149 64.928939 33.129052 63.958323 33.625144 C 62.757636 34.265031 61.887677 34.976816 61.326877 35.753308 C 60.442538 36.975565 59.996774 39.269093 59.996774 42.626704 L 59.996774 51.541987 C 59.996774 51.707351 60.039913 51.887094 60.119 52.081217 C 60.205277 52.28253 60.248415 52.433515 60.248415 52.541361 C 61.549759 53.12373 62.664169 53.41851 63.577267 53.41851 L 80.120868 53.41851 C 80.703238 53.497597 81.566007 53.68453 82.701987 53.957741 C 82.730746 53.957741 83.104612 54.123105 83.830777 54.461023 C 84.384387 54.712664 84.815771 54.834889 85.117741 54.834889 C 85.311864 54.834889 85.484418 54.80613 85.621023 54.748612 C 86.512551 53.69891 86.951126 52.419135 86.951126 50.916479 C 86.951126 50.168745 86.800141 49.083094 86.498172 47.666714 C 86.189013 46.250335 86.052407 45.26534 86.081166 44.71173 C 86.081166 44.265965 85.99489 43.388817 85.829525 42.087473 C 85.635402 40.556057 85.520366 39.470406 85.498797 38.837708 C 85.355002 36.141554 83.298735 33.74018 79.329997 31.626395 C 79.854848 31.072785 80.257474 30.792385 80.537874 30.792385 L 86.742623 30.792385 C 86.383136 30.792385 87.540685 30.763626 90.20089 30.713297 C 92.537557 30.627021 94.327803 30.612641 95.578819 30.670159 C 96.829834 30.864282 98.648839 31.137492 101.035834 31.504169 Z M 149.077706 69.71047 C 148.991429 71.155609 148.811685 73.197496 148.531285 75.836132 C 148.200557 76.555107 147.783552 77.568861 147.280269 78.877394 C 147.172423 79.431004 146.963921 80.207497 146.661951 81.206871 C 146.546916 81.51603 146.187428 82.026502 145.5763 82.752666 C 144.850136 83.637005 144.267767 84.082769 143.822002 84.082769 L 133.20275 84.082769 C 133.008627 84.082769 131.757612 84.039631 129.449704 83.960543 C 127.148986 83.874266 125.89797 83.831128 125.703847 83.831128 L 119.283405 83.831128 C 119.118041 83.831128 118.262462 83.759231 116.723856 83.601056 C 115.178061 83.450072 114.315292 83.378174 114.121169 83.378174 L 107.830143 83.378174 L 107.283722 82.788615 C 107.592881 82.400369 108.800758 81.566359 110.907353 80.293774 C 112.352492 79.373487 113.078656 78.266266 113.078656 76.957732 L 113.078656 63.793311 C 113.078656 61.650767 113.409384 58.782059 114.078031 55.165618 C 113.718543 54.058397 113.646646 52.670776 113.869528 51.002756 C 113.366246 50.585751 113.121795 50.003381 113.121795 49.248458 C 113.121795 49.19813 113.395005 48.054961 113.948615 45.83333 C 113.977374 45.639207 113.840769 45.25096 113.53161 44.668591 C 113.143364 43.971186 112.934861 43.611699 112.913292 43.58294 C 112.711979 43.00057 112.632892 42.087473 112.661651 40.836457 C 112.661651 39.110919 112.661651 38.169062 112.661651 38.003698 C 112.575374 37.054652 112.381251 36.292539 112.079282 35.71017 C 111.662276 34.904918 110.979251 34.265031 110.037394 33.790508 C 109.203384 33.431021 108.369374 33.057154 107.535363 32.668908 C 107.923609 31.748621 108.340615 31.266908 108.786379 31.20939 C 109.649148 31.324426 110.885784 31.345995 112.496287 31.295667 C 114.272154 30.878662 115.134923 30.670159 115.077405 30.670159 L 122.454083 30.670159 C 122.561929 30.670159 123.403129 30.763626 124.970493 30.957749 C 126.537857 31.151872 127.731355 31.266908 128.536606 31.295667 C 128.867334 31.295667 131.642576 31.115923 136.86952 30.749246 C 138.063017 30.670159 141.183366 30.749246 146.244946 31.000887 C 146.683521 31.310046 146.906403 31.683913 146.906403 32.129677 C 146.906403 32.374128 146.820126 32.740805 146.640382 33.208139 C 146.460639 33.682662 146.367172 34.02777 146.367172 34.250652 C 146.338413 35.170939 146.050823 38.197821 145.490023 43.331299 C 145.410936 43.503853 145.00831 43.762683 144.282146 44.12936 C 144.116782 43.84896 143.60631 42.360683 142.743541 39.671719 C 142.189931 37.917421 141.161797 36.961185 139.659141 36.795821 C 139.048012 36.652026 138.422505 36.515421 137.782617 36.378816 C 136.919848 36.184693 136.258392 36.155934 135.783868 36.292539 C 134.561612 36.652026 131.908596 36.695165 127.824822 36.421954 C 125.574432 36.249401 123.884842 36.292539 122.741672 36.54418 C 122.410944 36.623267 122.188062 36.946806 122.073026 37.500416 C 123.07959 40.75018 123.115539 43.626078 122.202442 46.128109 C 122.259959 45.962745 122.281529 46.65296 122.281529 48.213135 C 122.281529 48.601381 122.216821 49.406633 122.073026 50.628889 C 121.936421 51.628263 121.907662 52.433515 121.993939 53.044643 C 122.022698 53.317853 122.281529 53.68453 122.784811 54.123105 L 138.494402 54.123105 C 138.990494 53.957741 139.479397 53.792377 139.95392 53.627012 C 140.730412 53.346612 141.269643 52.915228 141.578802 52.332858 C 141.852013 51.613884 142.369674 50.61451 143.117408 49.334735 C 144.008936 49.334735 144.576926 49.636704 144.828567 50.247833 C 144.713531 51.836766 144.605685 53.864274 144.490649 56.337546 C 144.46189 57.969618 144.267767 60.378182 143.908279 63.54167 C 143.800433 64.016193 143.239633 64.167177 142.240259 64.001813 C 141.880772 63.333167 141.240884 62.456018 140.327787 61.377557 C 138.631007 60.097782 137.092402 59.457895 135.697591 59.457895 L 129.952986 59.457895 C 129.586309 59.457895 128.881714 59.393187 127.824822 59.249392 C 126.767929 59.112787 125.977057 59.04089 125.452206 59.04089 C 123.978308 59.04089 123.050831 59.472274 122.662585 60.335044 C 122.216821 61.305659 121.993939 62.053393 121.993939 62.585434 C 121.993939 63.081526 122.087406 64.030572 122.281529 65.418193 C 122.475652 66.805814 122.561929 67.877085 122.53317 68.624819 C 122.504411 69.013065 122.374995 69.746419 122.137734 70.810501 C 121.900472 71.881773 121.785436 72.722973 121.785436 73.334101 C 121.785436 73.808624 121.842954 74.240009 121.9508 74.628255 C 122.144924 75.289712 122.899847 76.094963 124.22276 77.044009 C 125.538483 77.985866 126.674462 78.525097 127.616319 78.668892 C 127.760114 78.71922 127.896719 78.776738 128.033324 78.834256 C 128.313724 78.913343 128.565365 78.956481 128.781058 78.956481 L 135.697591 78.956481 C 137.257766 78.956481 138.55911 78.71203 139.616002 78.208748 C 141.0899 77.540102 142.520659 76.432881 143.908279 74.872707 C 145.439695 73.154358 146.259326 71.515096 146.367172 69.962111 C 147.086146 69.487588 147.992054 69.401311 149.077706 69.71047 Z M 149.077706 69.71047 " stroke="#ffffff" stroke-width="3.199999" stroke-opacity="1" stroke-miterlimit="4"/><g fill="#6b817f" fill-opacity="1"><g transform="translate(275.234464, 486.074754)"><g><path d="M 90.765625 12.085938 C 90.765625 12.464844 90.746094 12.84375 90.714844 13.222656 C 90.652344 13.699219 90.425781 14.003906 90.027344 14.148438 C 89.632812 14.289062 88.820312 14.441406 87.589844 14.597656 C 87.175781 14.660156 86.308594 14.898438 84.980469 15.308594 C 83.78125 15.6875 82.878906 15.878906 82.28125 15.878906 C 82.058594 15.878906 81.851562 15.855469 81.664062 15.808594 C 81.472656 15.757812 81.175781 15.578125 80.761719 15.261719 C 80.226562 14.882812 80.003906 14.566406 80.101562 14.3125 C 79.753906 14.125 79.089844 14.171875 78.109375 14.457031 C 78.773438 14.804688 79.578125 15.246094 80.527344 15.78125 C 78.15625 15.910156 76.5625 15.6875 75.738281 15.121094 C 75.800781 14.835938 75.914062 14.394531 76.070312 13.792969 C 76.039062 13.761719 75.945312 13.699219 75.785156 13.601562 C 75.945312 13.570312 74.617188 13.429688 71.804688 13.175781 C 71.804688 13.144531 71.695312 13.222656 71.472656 13.414062 C 71.726562 13.539062 72.089844 13.714844 72.5625 13.933594 C 71.140625 13.996094 70.242188 13.902344 69.863281 13.648438 C 69.484375 13.144531 69.105469 12.65625 68.722656 12.179688 C 67.996094 11.359375 67.351562 11.011719 66.78125 11.136719 C 66.054688 10.160156 64.332031 8.339844 61.613281 5.6875 C 59.246094 3.414062 58.011719 2.023438 57.917969 1.515625 C 57.601562 1.328125 57.207031 0.996094 56.734375 0.519531 C 56.257812 -0.078125 55.691406 -1.011719 55.027344 -2.273438 C 54.902344 -2.589844 54.648438 -2.765625 54.269531 -2.796875 C 53.828125 -4.1875 52.847656 -5.402344 51.332031 -6.445312 C 51.582031 -6.824219 51.613281 -7.15625 51.425781 -7.441406 C 50.636719 -8.359375 49.828125 -9.289062 49.007812 -10.238281 C 47.933594 -11.5 47.394531 -12.589844 47.394531 -13.507812 C 47.394531 -13.664062 47.410156 -13.824219 47.445312 -13.980469 C 47.539062 -14.078125 47.886719 -14.0625 48.488281 -13.933594 C 48.644531 -13.808594 48.882812 -13.632812 49.199219 -13.414062 C 49.890625 -13.539062 50.445312 -13.792969 50.855469 -14.171875 C 51.425781 -13.664062 52.167969 -12.890625 53.082031 -11.847656 C 53.558594 -11.945312 53.792969 -12.226562 53.792969 -12.703125 C 53.792969 -13.523438 53.335938 -13.917969 52.421875 -13.886719 C 52.484375 -13.949219 52.554688 -14.0625 52.632812 -14.21875 C 52.710938 -14.375 52.785156 -14.472656 52.847656 -14.503906 C 53.035156 -14.34375 53.351562 -14.125 53.792969 -13.839844 C 54.046875 -13.839844 54.238281 -13.933594 54.363281 -14.125 C 54.457031 -14.503906 54.457031 -14.976562 54.363281 -15.546875 C 53.605469 -16.179688 52.71875 -16.492188 51.710938 -16.492188 C 51.140625 -16.492188 50.304688 -16.359375 49.199219 -16.089844 C 48.089844 -15.824219 47.300781 -15.6875 46.828125 -15.6875 C 46.226562 -15.6875 45.707031 -15.816406 45.261719 -16.066406 C 44.15625 -16.699219 43.429688 -17.804688 43.082031 -19.386719 C 42.925781 -19.511719 42.71875 -19.683594 42.46875 -19.90625 C 42.5 -20.03125 42.53125 -20.160156 42.5625 -20.285156 C 42.5625 -20.792969 42.292969 -21.234375 41.757812 -21.613281 C 41.21875 -21.992188 40.714844 -22.179688 40.238281 -22.179688 C 38.4375 -22.148438 36.003906 -22.148438 32.941406 -22.179688 C 29.339844 -22.214844 26.90625 -22.230469 25.640625 -22.230469 C 25.355469 -22.230469 25.214844 -22.085938 25.214844 -21.800781 C 25.152344 -19.96875 25.152344 -18.925781 25.214844 -18.675781 L 25.214844 -12.558594 C 25.214844 -12.558594 25.246094 -11.675781 25.308594 -9.90625 C 25.371094 -8.136719 25.40625 -6.808594 25.40625 -5.925781 C 25.40625 -5.796875 25.332031 -5.546875 25.191406 -5.167969 C 25.050781 -4.785156 25.007812 -4.488281 25.074219 -4.265625 C 25.355469 -3.855469 25.6875 -3.191406 26.066406 -2.273438 C 26.414062 0.03125 26.527344 1.515625 26.398438 2.179688 C 25.957031 2.496094 25.246094 3 24.265625 3.695312 C 24.265625 3.886719 24.3125 4.011719 24.410156 4.074219 C 26.179688 4.109375 29.007812 4.472656 32.894531 5.167969 C 33.207031 5.261719 33.683594 5.417969 34.316406 5.640625 C 34.378906 5.894531 34.332031 6.539062 34.171875 7.582031 C 33.667969 7.960938 33.226562 8.152344 32.84375 8.152344 C 31.898438 8.152344 29.371094 7.851562 25.261719 7.25 L 14.976562 7.0625 C 14.3125 7.25 13.269531 7.441406 11.847656 7.628906 C 9.605469 7.726562 6.9375 7.773438 3.839844 7.773438 C 3.839844 7.234375 3.855469 6.460938 3.886719 5.449219 C 4.898438 5.039062 6.367188 4.582031 8.292969 4.074219 C 9.304688 3.824219 10.378906 2.992188 11.515625 1.585938 C 12.65625 0.183594 13.253906 -0.980469 13.316406 -1.894531 C 13.730469 -6.289062 13.933594 -8.6875 13.933594 -9.101562 L 13.933594 -43.128906 C 13.933594 -43.257812 13.886719 -43.636719 13.792969 -44.269531 C 13.699219 -44.898438 13.648438 -45.328125 13.648438 -45.546875 C 13.617188 -45.957031 13.683594 -46.921875 13.839844 -48.4375 C 13.996094 -49.957031 14.078125 -51.15625 14.078125 -52.042969 C 14.078125 -52.421875 14.011719 -53.148438 13.886719 -54.222656 C 13.730469 -55.421875 13.648438 -56.289062 13.648438 -56.828125 C 13.585938 -57.746094 13.414062 -59.085938 13.128906 -60.855469 C 12.90625 -61.300781 12.605469 -61.976562 12.226562 -62.894531 C 11.945312 -64 10.695312 -64.855469 8.484375 -65.453125 C 8.199219 -65.582031 7.710938 -65.785156 7.015625 -66.070312 C 6.445312 -66.070312 5.640625 -66.101562 4.597656 -66.164062 C 3.839844 -66.671875 3.726562 -67.429688 4.265625 -68.441406 C 5.183594 -68.660156 6.539062 -68.914062 8.339844 -69.199219 C 13.460938 -69.609375 16.414062 -69.816406 17.203125 -69.816406 L 23.984375 -69.816406 C 24.109375 -69.816406 25 -69.910156 26.660156 -70.097656 C 28.320312 -70.289062 29.226562 -70.382812 29.386719 -70.382812 L 33.175781 -70.382812 C 33.335938 -70.382812 33.839844 -70.335938 34.695312 -70.242188 C 35.671875 -70.144531 36.351562 -70.082031 36.730469 -70.050781 C 37.332031 -70.144531 38.203125 -70.226562 39.339844 -70.289062 C 42.59375 -69.878906 46.273438 -69.199219 50.382812 -68.25 C 51.898438 -67.902344 54.964844 -65.898438 59.578125 -62.230469 C 59.734375 -61.976562 59.734375 -61.632812 59.578125 -61.1875 C 59.039062 -60.652344 57.957031 -59.964844 56.332031 -59.125 C 54.703125 -58.289062 53.605469 -57.570312 53.035156 -56.96875 C 53.097656 -56.589844 53.464844 -56.355469 54.125 -56.257812 C 54.695312 -56.195312 55.214844 -56.242188 55.691406 -56.402344 C 55.753906 -56.589844 55.945312 -56.796875 56.257812 -57.019531 C 57.144531 -57.175781 57.777344 -57.253906 58.15625 -57.253906 C 58.3125 -56.71875 58.675781 -56.164062 59.246094 -55.597656 C 59.75 -55.753906 60.003906 -56.085938 60.003906 -56.589844 C 59.972656 -57.066406 59.734375 -57.507812 59.292969 -57.917969 C 59.734375 -58.042969 60.191406 -58.042969 60.667969 -57.917969 C 61.332031 -57.730469 61.914062 -57.632812 62.421875 -57.632812 C 62.738281 -55.992188 63.070312 -54.347656 63.417969 -52.703125 C 63.859375 -50.492188 64.078125 -48.644531 64.078125 -47.160156 C 64.078125 -45.894531 63.9375 -44.742188 63.652344 -43.699219 C 63.210938 -41.992188 62.292969 -39.464844 60.902344 -36.117188 C 60.082031 -34.664062 58.535156 -32.5625 56.257812 -29.8125 C 56.195312 -29.71875 54.710938 -28.5625 51.804688 -26.351562 C 52.6875 -24.675781 53.9375 -22.828125 55.546875 -20.808594 C 56.8125 -19.226562 57.792969 -17.789062 58.488281 -16.492188 C 59.246094 -15.070312 59.828125 -14.078125 60.242188 -13.507812 C 60.304688 -13.285156 60.414062 -13.003906 60.574219 -12.65625 C 62.34375 -10.507812 64.886719 -7.300781 68.203125 -3.035156 C 68.296875 -2.84375 68.296875 -2.671875 68.203125 -2.511719 C 69.53125 -1.5 71.1875 -0.0625 73.179688 1.800781 C 74.066406 2.6875 75.28125 4.027344 76.828125 5.828125 C 75.816406 5.925781 75.3125 6.398438 75.3125 7.25 C 75.3125 8.042969 75.707031 8.59375 76.496094 8.910156 C 76.65625 7.773438 77.144531 7.203125 77.96875 7.203125 C 78.09375 7.203125 78.21875 7.21875 78.347656 7.25 C 78.472656 7.285156 79.246094 7.648438 80.667969 8.339844 C 82.785156 9.382812 84.902344 10.425781 87.019531 11.46875 C 87.9375 11.847656 89.183594 12.054688 90.765625 12.085938 Z M 49.8125 -14.929688 C 49.433594 -14.488281 49.070312 -14.3125 48.722656 -14.410156 C 48.785156 -14.757812 49.007812 -15.007812 49.386719 -15.167969 C 49.449219 -15.136719 49.59375 -15.054688 49.8125 -14.929688 Z M 52.65625 -44.269531 C 51.804688 -44.550781 51.378906 -44.980469 51.378906 -45.546875 L 51.378906 -50.570312 C 51.378906 -50.730469 51.332031 -50.925781 51.234375 -51.164062 C 51.140625 -51.402344 51.078125 -51.566406 51.046875 -51.660156 C 50.855469 -53.683594 49.84375 -55.976562 48.011719 -58.535156 C 45.988281 -61.347656 43.890625 -62.972656 41.707031 -63.417969 C 41.394531 -63.605469 40.964844 -63.8125 40.429688 -64.03125 C 37.238281 -64.695312 35.4375 -65.027344 35.027344 -65.027344 L 30.855469 -65.027344 C 29.273438 -65.027344 27.835938 -64.824219 26.542969 -64.410156 C 26.414062 -64.347656 26.050781 -63.96875 25.453125 -63.273438 C 25.671875 -61.410156 25.769531 -60.367188 25.734375 -60.144531 C 25.734375 -60.113281 25.679688 -60.019531 25.570312 -59.863281 C 25.460938 -59.703125 25.40625 -59.546875 25.40625 -59.386719 L 25.40625 -52.800781 C 25.40625 -52.640625 25.308594 -52.363281 25.121094 -51.96875 C 24.929688 -51.574219 24.851562 -51.28125 24.882812 -51.09375 C 25.074219 -50.335938 25.277344 -49.59375 25.5 -48.867188 C 25.71875 -48.042969 25.71875 -47.316406 25.5 -46.683594 C 24.992188 -45.199219 24.929688 -43.226562 25.308594 -40.761719 C 25.246094 -41.265625 25.214844 -40.523438 25.214844 -38.53125 L 25.214844 -31.753906 C 25.214844 -31.34375 25.167969 -30.839844 25.074219 -30.238281 C 25.007812 -29.796875 24.992188 -29.433594 25.023438 -29.148438 C 25.121094 -28.738281 25.324219 -28.183594 25.640625 -27.488281 C 26.398438 -27.269531 27.503906 -27 28.960938 -26.683594 L 38.203125 -26.496094 C 39.179688 -26.90625 40.664062 -27.488281 42.65625 -28.25 C 43.414062 -28.46875 44.410156 -28.878906 45.644531 -29.480469 C 47.507812 -31.1875 48.832031 -32.78125 49.625 -34.265625 C 50.289062 -35.46875 50.792969 -37.078125 51.140625 -39.101562 C 51.171875 -39.703125 51.28125 -40.617188 51.472656 -41.851562 C 51.535156 -42.324219 51.644531 -42.941406 51.804688 -43.699219 C 51.960938 -44.171875 52.246094 -44.363281 52.65625 -44.269531 Z M 52.65625 -44.269531 "/></g></g></g><g fill="#6b817f" fill-opacity="1"><g transform="translate(342.725305, 486.074754)"><g><path d="M 28.058594 -54.125 C 27.933594 -53.652344 27.726562 -52.988281 27.441406 -52.136719 C 27.441406 -52.136719 26.496094 -51.929688 24.597656 -51.519531 C 23.398438 -51.234375 22.640625 -50.699219 22.324219 -49.910156 C 22.070312 -49.527344 21.753906 -48.992188 21.375 -48.296875 C 21.3125 -48.074219 20.902344 -46.242188 20.144531 -42.796875 L 19.953125 -22.890625 C 19.734375 -22.070312 19.621094 -21.628906 19.621094 -21.566406 C 19.621094 -21.566406 19.734375 -21.234375 19.953125 -20.570312 L 19.859375 -13.222656 C 19.636719 -12.210938 19.636719 -10.820312 19.859375 -9.050781 C 20.082031 -7 20.523438 -5.324219 21.1875 -4.027344 C 21.40625 -3.585938 21.960938 -3.097656 22.84375 -2.558594 C 24.488281 -1.613281 26.132812 -1.152344 27.773438 -1.183594 C 27.742188 -0.773438 27.570312 -0.171875 27.253906 0.617188 L 21.753906 0.617188 C 21.660156 0.617188 21.113281 0.585938 20.121094 0.519531 C 19.125 0.457031 18.59375 0.425781 18.53125 0.425781 C 18.4375 0.425781 18.011719 0.457031 17.253906 0.519531 C 16.492188 0.585938 16.082031 0.617188 16.019531 0.617188 C 15.957031 0.617188 15.664062 0.585938 15.144531 0.519531 C 14.621094 0.457031 14.3125 0.425781 14.21875 0.425781 C 14.125 0.425781 13.910156 0.457031 13.578125 0.519531 C 13.246094 0.585938 13.035156 0.617188 12.9375 0.617188 L 3.035156 0.851562 C 2.179688 0.851562 1.753906 0.539062 1.753906 -0.09375 C 1.753906 -0.820312 1.976562 -1.25 2.417969 -1.375 C 3.429688 -1.5625 4.4375 -1.738281 5.449219 -1.894531 C 6.621094 -2.148438 7.378906 -2.574219 7.726562 -3.175781 C 7.851562 -3.554688 8.042969 -4.140625 8.292969 -4.929688 C 8.738281 -4.898438 9.417969 -4.804688 10.332031 -4.644531 C 10.648438 -5.941406 10.804688 -6.777344 10.804688 -7.15625 C 10.804688 -7.503906 10.648438 -7.976562 10.332031 -8.578125 C 10.585938 -9.210938 10.632812 -9.746094 10.472656 -10.191406 C 10.347656 -10.507812 10.046875 -11.042969 9.574219 -11.800781 C 9.164062 -12.464844 8.957031 -12.84375 8.957031 -12.9375 C 8.957031 -12.71875 9.226562 -13.664062 9.761719 -15.78125 C 9.828125 -16.035156 9.730469 -16.398438 9.480469 -16.875 C 10.015625 -17.757812 10.285156 -18.359375 10.285156 -18.675781 C 10.285156 -18.738281 10.207031 -19.765625 10.046875 -21.753906 C 10.046875 -21.914062 9.9375 -22.214844 9.714844 -22.65625 C 9.496094 -23.097656 9.382812 -23.367188 9.382812 -23.460938 C 9.382812 -23.585938 9.511719 -23.808594 9.761719 -24.125 C 9.699219 -24 9.667969 -24.171875 9.667969 -24.644531 L 9.667969 -30.382812 C 9.667969 -30.476562 9.738281 -30.761719 9.882812 -31.234375 C 10.023438 -31.707031 10.09375 -31.992188 10.09375 -32.085938 C 10.09375 -32.152344 10.046875 -32.269531 9.953125 -32.441406 C 9.859375 -32.617188 9.8125 -32.75 9.8125 -32.84375 C 9.8125 -32.71875 9.859375 -33.429688 9.953125 -34.976562 C 9.953125 -35.292969 9.921875 -35.816406 9.859375 -36.542969 C 9.796875 -37.269531 9.761719 -37.632812 9.761719 -37.632812 L 9.761719 -41.375 C 9.761719 -41.722656 9.542969 -42.230469 9.101562 -42.894531 C 9.226562 -43.242188 9.132812 -43.890625 8.816406 -44.835938 C 8.785156 -45.277344 8.65625 -45.941406 8.4375 -46.828125 C 8.183594 -47.113281 7.867188 -47.523438 7.488281 -48.058594 C 7.363281 -48.375 7.140625 -48.851562 6.824219 -49.480469 C 6.191406 -50.460938 5.59375 -51.09375 5.023438 -51.378906 C 4.296875 -51.566406 3.207031 -51.914062 1.753906 -52.421875 C 1.847656 -52.863281 2.023438 -53.429688 2.273438 -54.125 L 2.703125 -54.125 C 2.796875 -54.125 3.089844 -54.09375 3.578125 -54.03125 C 4.066406 -53.96875 4.359375 -53.9375 4.457031 -53.9375 Z M 28.058594 -54.125 "/></g></g></g><g fill="#6b817f" fill-opacity="1"><g transform="translate(372.584315, 486.074754)"><g><path d="M 50.382812 -21.140625 L 49.957031 -20.617188 L 49.671875 -20.902344 L 49.910156 -21.898438 C 50.445312 -21.390625 50.601562 -21.140625 50.382812 -21.140625 Z M 67.964844 -57.347656 C 67.367188 -57.253906 66.496094 -57.097656 65.359375 -56.875 C 64.160156 -56.527344 63.210938 -55.769531 62.515625 -54.601562 C 61.535156 -52.863281 60.9375 -51.15625 60.714844 -49.480469 C 60.304688 -46.574219 60.097656 -44.203125 60.097656 -42.371094 C 60.097656 -42.246094 60.160156 -40.878906 60.289062 -38.273438 C 60.414062 -35.664062 60.476562 -34.285156 60.476562 -34.125 L 60.476562 -26.589844 C 60.476562 -26.496094 60.53125 -26.179688 60.644531 -25.640625 C 60.753906 -25.105469 60.792969 -24.695312 60.761719 -24.410156 C 60.574219 -20.585938 60.476562 -18.4375 60.476562 -17.964844 C 60.476562 -17.710938 60.539062 -17.195312 60.667969 -16.421875 C 60.792969 -15.648438 60.855469 -15.199219 60.855469 -15.070312 L 60.855469 -0.519531 C 60.855469 -0.332031 60.878906 -0.230469 60.929688 -0.214844 C 60.976562 -0.199219 61 -0.171875 61 -0.140625 C 58.789062 0.238281 57.792969 0.425781 58.011719 0.425781 C 56.6875 0.425781 55.863281 0.285156 55.546875 0 C 53.367188 -2.023438 50.144531 -5.5625 45.878906 -10.617188 C 45.121094 -11.628906 43.984375 -13.082031 42.46875 -14.976562 C 41.140625 -16.273438 39.339844 -18.167969 37.0625 -20.664062 C 36.496094 -21.613281 35.546875 -23.019531 34.21875 -24.882812 C 31.375 -28.328125 27.347656 -33.398438 22.132812 -40.097656 C 21.4375 -40.632812 20.492188 -41.488281 19.289062 -42.65625 C 19.257812 -42.878906 19.164062 -43.195312 19.007812 -43.605469 C 18.625 -44.203125 17.996094 -45.105469 17.109375 -46.304688 C 16.445312 -45.988281 16.113281 -45.5 16.113281 -44.835938 C 16.113281 -44.867188 16.335938 -43.257812 16.777344 -40.003906 C 16.808594 -39.8125 16.777344 -39.519531 16.683594 -39.125 C 16.589844 -38.730469 16.542969 -38.46875 16.542969 -38.34375 C 16.542969 -37.078125 16.597656 -35.128906 16.707031 -32.488281 C 16.816406 -29.851562 16.875 -28.5625 16.875 -28.628906 L 16.875 -21.992188 C 16.875 -21.800781 16.898438 -20.191406 16.945312 -17.15625 C 16.992188 -14.125 17.015625 -12.527344 17.015625 -12.371094 C 17.015625 -5.765625 19.371094 -2.289062 24.078125 -1.941406 C 24.171875 -1.941406 24.289062 -1.808594 24.433594 -1.539062 C 24.574219 -1.273438 24.675781 -1.105469 24.742188 -1.042969 C 24.773438 -0.472656 24.695312 0 24.503906 0.378906 L 7.960938 0.378906 C 7.835938 0.378906 7.257812 0.464844 6.234375 0.640625 C 5.207031 0.8125 4.613281 0.902344 4.457031 0.902344 L 3.695312 0.902344 C 3.414062 0.617188 3.269531 0.441406 3.269531 0.378906 C 3.269531 -0.726562 3.617188 -1.46875 4.3125 -1.847656 C 5.132812 -2.101562 6.335938 -2.574219 7.914062 -3.269531 C 9.464844 -4.125 10.394531 -5.480469 10.710938 -7.347656 C 11.53125 -11.929688 11.707031 -14.722656 11.234375 -15.734375 C 11.011719 -16.179688 10.980469 -16.558594 11.136719 -16.875 C 11.136719 -16.875 11.265625 -17.03125 11.515625 -17.347656 C 11.515625 -17.347656 11.421875 -17.488281 11.234375 -17.773438 C 11.203125 -18.121094 11.21875 -18.730469 11.28125 -19.597656 C 11.34375 -20.46875 11.375 -21.089844 11.375 -21.46875 C 11.375 -21.914062 11.289062 -22.671875 11.113281 -23.746094 C 10.941406 -24.820312 10.855469 -25.578125 10.855469 -26.019531 C 10.855469 -25.546875 10.917969 -26.527344 11.042969 -28.960938 C 11.011719 -29.054688 10.871094 -29.371094 10.617188 -29.90625 L 10.855469 -30.144531 C 10.980469 -30.332031 11.058594 -30.679688 11.089844 -31.1875 C 11.152344 -31.28125 11.152344 -31.390625 11.089844 -31.519531 C 10.648438 -35.089844 10.425781 -37.492188 10.425781 -38.722656 L 10.425781 -45.261719 C 10.425781 -45.261719 10.371094 -46.195312 10.261719 -48.058594 C 10.152344 -49.925781 10.09375 -51.265625 10.09375 -52.089844 C 10.09375 -52.183594 10.152344 -52.386719 10.261719 -52.703125 C 10.371094 -53.019531 10.410156 -53.289062 10.378906 -53.511719 C 7.976562 -56.039062 4.960938 -57.175781 1.328125 -56.921875 L 1.089844 -57.160156 L 1.089844 -58.722656 C 1.4375 -59.132812 2.289062 -59.339844 3.648438 -59.339844 C 3.808594 -59.339844 5.078125 -59.277344 7.464844 -59.152344 C 9.851562 -59.023438 11.121094 -58.960938 11.28125 -58.960938 C 11.40625 -58.960938 12.582031 -59.023438 14.8125 -59.152344 C 17.039062 -59.277344 18.230469 -59.339844 18.390625 -59.339844 C 19.148438 -59.339844 19.589844 -59.308594 19.71875 -59.246094 C 20.160156 -59.085938 21.074219 -58.058594 22.464844 -56.164062 C 25.089844 -52.46875 29.039062 -46.96875 34.316406 -39.671875 C 35.390625 -38.3125 37 -36.289062 39.148438 -33.605469 C 38.769531 -30.824219 39.164062 -29.433594 40.335938 -29.433594 C 40.460938 -29.433594 40.714844 -29.527344 41.09375 -29.71875 C 41.472656 -29.90625 41.742188 -30 41.898438 -30 C 42.308594 -30 42.863281 -29.417969 43.558594 -28.25 C 43.90625 -27.648438 44.238281 -27.0625 44.550781 -26.496094 C 46.859375 -24.628906 48.296875 -23.207031 48.867188 -22.230469 C 48.992188 -21.691406 49.214844 -20.902344 49.527344 -19.859375 C 49.78125 -19.511719 49.988281 -19.335938 50.144531 -19.335938 C 50.304688 -19.335938 50.460938 -19.402344 50.621094 -19.527344 C 50.777344 -19.652344 50.871094 -19.71875 50.902344 -19.71875 C 51.757812 -18.800781 52.910156 -17.457031 54.363281 -15.6875 C 54.902344 -15.941406 55.167969 -16.179688 55.167969 -16.398438 C 55.167969 -16.558594 55.105469 -16.824219 54.980469 -17.203125 C 54.851562 -17.585938 54.789062 -17.851562 54.789062 -18.011719 L 54.789062 -23.082031 C 54.789062 -23.238281 54.765625 -23.46875 54.71875 -23.769531 C 54.671875 -24.070312 54.648438 -24.457031 54.648438 -24.929688 C 54.773438 -25.53125 54.867188 -26.382812 54.933594 -27.488281 C 54.773438 -28.40625 54.570312 -29.75 54.316406 -31.519531 C 54.253906 -31.769531 54.285156 -32.246094 54.410156 -32.941406 C 54.539062 -33.636719 54.601562 -34.03125 54.601562 -34.125 C 54.601562 -34.25 54.554688 -34.511719 54.457031 -34.90625 C 54.363281 -35.300781 54.316406 -35.578125 54.316406 -35.738281 C 54.253906 -36.304688 54.253906 -37.078125 54.316406 -38.058594 C 54.378906 -39.292969 54.410156 -40.113281 54.410156 -40.523438 C 54.410156 -40.683594 54.339844 -40.949219 54.199219 -41.328125 C 54.054688 -41.707031 53.96875 -41.992188 53.9375 -42.183594 C 53.9375 -42.183594 54 -42.609375 54.125 -43.460938 C 54.15625 -43.714844 54.101562 -44.203125 53.960938 -44.933594 C 53.820312 -45.660156 53.746094 -46.210938 53.746094 -46.589844 C 53.746094 -46.71875 53.808594 -47 53.9375 -47.445312 C 54.0625 -47.886719 54.109375 -48.203125 54.078125 -48.390625 C 53.890625 -49.6875 53.558594 -51.582031 53.082031 -54.078125 C 52.640625 -55.722656 50.839844 -56.8125 47.679688 -57.347656 C 47.742188 -57.886719 47.679688 -58.457031 47.492188 -59.054688 C 47.839844 -59.339844 48.960938 -59.480469 50.855469 -59.480469 L 59.480469 -59.152344 C 59.292969 -59.152344 60.714844 -59.246094 63.746094 -59.433594 C 65.550781 -59.5625 66.957031 -59.449219 67.964844 -59.101562 Z M 67.964844 -57.347656 "/></g></g></g><g fill="#6b817f" fill-opacity="1"><g transform="translate(436.615295, 486.074754)"><g><path d="M 57.253906 -58.769531 C 57.316406 -58.519531 57.347656 -58.234375 57.347656 -57.917969 C 57.347656 -57.222656 57.199219 -56.007812 56.898438 -54.269531 C 56.597656 -52.53125 56.449219 -51.234375 56.449219 -50.382812 C 56.449219 -49.941406 56.464844 -49.527344 56.496094 -49.148438 C 56.339844 -48.582031 56.195312 -47.792969 56.070312 -46.78125 C 56.324219 -45.515625 56.464844 -45.027344 56.496094 -45.3125 C 56.402344 -45.121094 56.257812 -44.882812 56.070312 -44.601562 C 56.070312 -44.285156 56.164062 -43.382812 56.355469 -41.898438 C 55.5625 -41.140625 54.851562 -40.761719 54.222656 -40.761719 C 53.96875 -40.761719 53.683594 -40.949219 53.367188 -41.328125 C 53.652344 -43.195312 53.746094 -44.347656 53.652344 -44.789062 C 53.558594 -45.296875 53.367188 -46.007812 53.082031 -46.921875 C 52.453125 -48.3125 51.28125 -49.84375 49.578125 -51.519531 C 48.914062 -52.152344 47.363281 -52.988281 44.933594 -54.03125 C 44.648438 -54.15625 43.621094 -54.378906 41.851562 -54.695312 C 40.714844 -54.886719 39.039062 -54.980469 36.828125 -54.980469 C 30.570312 -54.980469 25.65625 -53.320312 22.085938 -50.003906 C 21.644531 -49.78125 21.011719 -49.292969 20.191406 -48.535156 C 17.441406 -44.742188 15.878906 -41.03125 15.5 -37.394531 C 15.339844 -35.878906 15.261719 -33.382812 15.261719 -29.90625 L 15.261719 -26.777344 C 15.261719 -26.96875 15.484375 -26.132812 15.925781 -24.265625 C 15.957031 -23.289062 16.113281 -21.960938 16.398438 -20.285156 C 16.589844 -20.128906 16.90625 -19.652344 17.347656 -18.863281 C 17.378906 -18.453125 17.488281 -17.914062 17.679688 -17.253906 C 18.121094 -16.652344 18.800781 -15.75 19.71875 -14.550781 C 19.84375 -14.171875 20.0625 -13.632812 20.378906 -12.9375 C 21.800781 -10.347656 24 -8.199219 26.96875 -6.492188 C 28.296875 -5.734375 29.605469 -5.199219 30.902344 -4.882812 C 37.128906 -3.429688 41.125 -2.703125 42.894531 -2.703125 C 43.714844 -2.703125 44.519531 -2.796875 45.3125 -2.984375 C 45.691406 -3.050781 46.242188 -3.238281 46.96875 -3.554688 C 47.128906 -4.785156 47.207031 -5.402344 47.207031 -5.402344 C 47.207031 -5.84375 47 -6.144531 46.589844 -6.304688 C 46.023438 -6.492188 45.644531 -6.746094 45.453125 -7.0625 C 45.136719 -7.566406 45.121094 -8.546875 45.40625 -10 C 45.40625 -10 45.40625 -12.511719 45.40625 -17.535156 C 45.214844 -19.371094 44.949219 -20.808594 44.601562 -21.851562 C 44.410156 -22.007812 44.15625 -22.308594 43.839844 -22.75 C 43.304688 -24.425781 42.152344 -25.5 40.382812 -25.972656 C 39.65625 -26.164062 38.105469 -26.289062 35.738281 -26.351562 C 35.640625 -26.414062 35.5 -26.527344 35.308594 -26.683594 L 35.308594 -27.917969 C 36.101562 -28.167969 37.394531 -28.296875 39.195312 -28.296875 C 39.324219 -28.296875 40.429688 -28.207031 42.515625 -28.035156 C 44.601562 -27.859375 45.707031 -27.773438 45.832031 -27.773438 C 45.988281 -27.773438 46.257812 -27.84375 46.636719 -27.988281 C 47.015625 -28.128906 47.300781 -28.214844 47.492188 -28.25 C 49.417969 -28.40625 50.492188 -28.484375 50.714844 -28.484375 C 55.167969 -28.484375 57.066406 -28.46875 56.402344 -28.4375 L 56.402344 -26.398438 C 56.402344 -26.304688 56.257812 -25.972656 55.976562 -25.40625 C 55.628906 -24.742188 55.421875 -24.28125 55.359375 -24.03125 C 54.820312 -21.851562 54.503906 -19.636719 54.410156 -17.394531 C 54.285156 -14.550781 54.222656 -12.589844 54.222656 -11.515625 C 54.222656 -9.335938 54.457031 -6.335938 54.933594 -2.511719 C 53.480469 -1.753906 49.671875 -0.742188 43.507812 0.519531 C 43.003906 0.488281 42.230469 0.519531 41.1875 0.617188 C 39.765625 0.933594 38.769531 1.089844 38.203125 1.089844 C 38.042969 1.089844 37.804688 1.042969 37.492188 0.949219 C 37.175781 0.851562 36.953125 0.804688 36.828125 0.804688 C 33.574219 0.648438 30.871094 0.378906 28.722656 0 C 27.902344 -0.316406 26.683594 -0.710938 25.074219 -1.183594 C 21.882812 -1.816406 18.359375 -3.839844 14.503906 -7.25 C 10.492188 -10.820312 8.027344 -14.25 7.109375 -17.535156 C 6.824219 -18.261719 6.460938 -19.351562 6.019531 -20.808594 C 5.765625 -21.28125 5.433594 -21.992188 5.023438 -22.941406 C 4.644531 -24.488281 4.457031 -25.800781 4.457031 -26.875 C 4.457031 -26.777344 4.535156 -27.363281 4.691406 -28.628906 C 4.851562 -29.703125 4.867188 -30.460938 4.738281 -30.902344 C 4.613281 -31.40625 4.550781 -31.945312 4.550781 -32.515625 C 4.550781 -33.589844 4.820312 -35.121094 5.355469 -37.109375 C 5.988281 -39.574219 6.367188 -41.234375 6.492188 -42.085938 C 9.589844 -47.679688 11.46875 -50.476562 12.132812 -50.476562 C 12.261719 -50.476562 12.355469 -50.421875 12.417969 -50.3125 C 12.480469 -50.199219 12.589844 -50.144531 12.75 -50.144531 C 13.285156 -50.144531 13.714844 -50.273438 14.027344 -50.523438 C 14.15625 -50.902344 14.410156 -51.425781 14.789062 -52.089844 C 17.726562 -55.34375 19.511719 -56.96875 20.144531 -56.96875 C 20.300781 -56.96875 20.410156 -56.9375 20.476562 -56.875 C 20.539062 -56.8125 20.632812 -56.78125 20.757812 -56.78125 C 20.886719 -56.78125 21.226562 -56.992188 21.777344 -57.421875 C 22.332031 -57.847656 22.6875 -58.058594 22.84375 -58.058594 C 22.972656 -58.058594 23.152344 -57.996094 23.390625 -57.871094 C 23.628906 -57.746094 23.808594 -57.679688 23.933594 -57.679688 C 24.09375 -57.679688 25.5 -58.011719 28.152344 -58.675781 C 30.808594 -59.339844 32.214844 -59.671875 32.371094 -59.671875 L 44.550781 -59.671875 C 44.710938 -59.671875 46.164062 -59.523438 48.914062 -59.222656 C 51.660156 -58.921875 53.117188 -58.769531 53.273438 -58.769531 C 53.335938 -58.769531 53.898438 -58.769531 54.957031 -58.769531 C 56.015625 -58.769531 56.78125 -58.769531 57.253906 -58.769531 Z M 57.253906 -58.769531 "/></g></g></g><g fill="#6b817f" fill-opacity="1"><g transform="translate(492.826066, 486.074754)"><g><path d="M 46.589844 -14.835938 C 46.589844 -14.140625 46.21875 -12.773438 45.476562 -10.734375 C 44.734375 -8.695312 44.1875 -7.441406 43.839844 -6.96875 C 42.355469 -5.167969 40.777344 -3.585938 39.101562 -2.226562 C 38.1875 -1.5 36.984375 -0.902344 35.5 -0.425781 C 31.675781 0.773438 28.058594 1.375 24.644531 1.375 C 24.710938 1.375 24.109375 1.34375 22.84375 1.28125 C 21.707031 1.183594 20.871094 1.152344 20.332031 1.183594 C 20.429688 1.46875 20.476562 0.917969 20.476562 -0.472656 C 19.683594 -1.230469 18.640625 -1.613281 17.347656 -1.613281 C 16.875 -1.613281 16.429688 -1.40625 16.019531 -0.996094 C 16.082031 -0.933594 16.558594 -0.710938 17.441406 -0.332031 C 17.253906 0.238281 16.875 0.519531 16.304688 0.519531 C 15.703125 0.519531 14.359375 0.269531 12.277344 -0.238281 C 9.558594 -0.902344 7.582031 -1.660156 6.351562 -2.511719 C 6.066406 -2.703125 5.75 -3.964844 5.402344 -6.304688 C 5.152344 -8.167969 5.023438 -10.457031 5.023438 -13.175781 C 5.023438 -15.640625 5.152344 -17.648438 5.402344 -19.195312 C 5.5625 -19.164062 6.066406 -19.226562 6.917969 -19.386719 C 7.171875 -19.070312 7.285156 -18.46875 7.25 -17.585938 C 7.21875 -16.445312 7.203125 -15.894531 7.203125 -15.925781 C 7.363281 -15.167969 7.597656 -14.046875 7.914062 -12.558594 C 7.945312 -12.339844 8.375 -11.644531 9.195312 -10.472656 C 9.667969 -9.714844 10.523438 -8.671875 11.753906 -7.347656 C 12.796875 -6.523438 14.203125 -5.894531 15.972656 -5.449219 C 16.921875 -5.167969 17.867188 -4.867188 18.816406 -4.550781 C 20.015625 -4.203125 21.011719 -4.027344 21.800781 -4.027344 C 22.117188 -3.839844 22.355469 -3.746094 22.511719 -3.746094 C 22.640625 -3.746094 22.828125 -3.777344 23.082031 -3.839844 C 23.335938 -3.902344 23.523438 -3.933594 23.652344 -3.933594 C 23.808594 -3.933594 24.410156 -3.816406 25.453125 -3.578125 C 26.496094 -3.339844 27.078125 -3.222656 27.207031 -3.222656 C 27.332031 -3.222656 27.640625 -3.40625 28.128906 -3.769531 C 28.621094 -4.132812 28.992188 -4.34375 29.242188 -4.40625 C 30.128906 -4.597656 31.421875 -4.867188 33.128906 -5.214844 C 34.015625 -5.402344 34.726562 -6.257812 35.261719 -7.773438 C 35.484375 -8.183594 35.800781 -8.785156 36.210938 -9.574219 C 36.210938 -9.796875 36.242188 -10.144531 36.304688 -10.617188 C 36.367188 -10.839844 36.558594 -11.234375 36.875 -11.800781 C 37.191406 -12.371094 37.347656 -12.734375 37.347656 -12.890625 C 37.347656 -14.0625 37.207031 -15.054688 36.921875 -15.878906 C 36.765625 -16.382812 36.117188 -17.503906 34.976562 -19.242188 C 34.632812 -19.496094 34.125 -19.859375 33.460938 -20.332031 C 30.710938 -22.542969 28.058594 -24.078125 25.5 -24.929688 C 24.804688 -25.339844 23.792969 -25.894531 22.464844 -26.589844 C 20.886719 -27.253906 18.34375 -28.675781 14.835938 -30.855469 C 14.582031 -30.949219 14.21875 -31.109375 13.746094 -31.328125 C 12.796875 -32.117188 11.816406 -33.144531 10.804688 -34.410156 C 9.351562 -36.242188 8.5625 -37.222656 8.4375 -37.347656 C 8.4375 -37.789062 8.40625 -38.453125 8.339844 -39.339844 C 8.152344 -39.65625 7.882812 -40.175781 7.535156 -40.902344 C 7.535156 -41.566406 7.488281 -42.484375 7.394531 -43.652344 C 7.582031 -43.90625 7.679688 -44.125 7.679688 -44.316406 C 7.332031 -45.136719 7.15625 -45.53125 7.15625 -45.5 C 7.15625 -45.4375 7.488281 -46.179688 8.152344 -47.726562 C 8.246094 -48.421875 8.46875 -49.371094 8.816406 -50.570312 C 8.941406 -50.855469 9.78125 -51.757812 11.328125 -53.273438 C 12.054688 -52.925781 12.386719 -52.753906 12.324219 -52.753906 C 12.417969 -53.164062 12.605469 -53.683594 12.890625 -54.316406 C 15.796875 -57.097656 18.46875 -58.804688 20.902344 -59.433594 C 22.890625 -59.941406 25.5625 -60.191406 28.910156 -60.191406 C 29.070312 -60.191406 30.664062 -60.019531 33.699219 -59.671875 C 36.730469 -59.324219 38.328125 -59.152344 38.484375 -59.152344 C 38.613281 -59.152344 39.316406 -59.238281 40.59375 -59.410156 C 41.875 -59.585938 42.59375 -59.671875 42.75 -59.671875 C 43.636719 -59.671875 44.078125 -59.292969 44.078125 -58.535156 L 43.367188 -50.714844 L 43.367188 -46.589844 C 43.367188 -46.527344 43.335938 -45.972656 43.273438 -44.933594 C 43.210938 -43.890625 43.179688 -43.128906 43.179688 -42.65625 C 43.144531 -42.65625 43.042969 -42.59375 42.871094 -42.46875 C 42.695312 -42.339844 42.53125 -42.277344 42.371094 -42.277344 L 41.28125 -42.277344 C 41.1875 -43.289062 40.980469 -44.726562 40.664062 -46.589844 C 39.6875 -50.320312 37.648438 -52.734375 34.550781 -53.84375 C 32.941406 -54.410156 30.113281 -54.695312 26.066406 -54.695312 C 25.308594 -54.695312 24.015625 -54.378906 22.179688 -53.746094 C 20.601562 -53.210938 19.101562 -51.835938 17.679688 -49.625 C 17.171875 -48.832031 16.921875 -47.980469 16.921875 -47.066406 C 16.921875 -45.578125 17.410156 -43.792969 18.390625 -41.707031 C 18.800781 -41.328125 19.371094 -40.808594 20.097656 -40.144531 C 22.277344 -37.964844 25.515625 -35.988281 29.8125 -34.21875 C 36.605469 -31.441406 41.328125 -28.375 43.984375 -25.023438 C 44.964844 -23.792969 45.625 -22.355469 45.972656 -20.710938 C 46.386719 -18.785156 46.589844 -16.824219 46.589844 -14.835938 Z M 46.589844 -14.835938 "/></g></g></g></svg>